<svg width="1512" height="670" viewBox="0 0 1512 670" fill="none" xmlns="http://www.w3.org/2000/svg">
<path d="M1510 0H-2V670H1510V0Z" fill="#FDCE64"/>
<path d="M57.7544 636.131C29.3218 626.723 60.8225 535.231 30.6876 515.116C20.1209 508.062 7.6906 507.903 -4 510.666V670H198C181.198 588.83 84.9244 645.122 57.7544 636.131ZM13.9222 608.848C9.45187 608.848 4.96155 603 4.96155 596.946C4.96155 590.892 9.45273 586.926 13.9222 586.926C18.3926 586.926 23.7501 592.774 23.7501 598.828C23.7501 604.882 18.3917 608.848 13.9222 608.848Z" fill="#EF7F7E"/>
<path d="M1369 670H1524V485.233C1507.34 478.913 1485.58 477.711 1462.71 495.607C1413.97 533.756 1470.24 610.609 1453.04 630.046C1437.33 647.789 1405.51 630.453 1369 670Z" fill="#5B6CB1"/>
<path d="M153.53 0H-4V113.183C14.439 132.546 43.0857 156.723 69.0256 153.75C111.624 148.869 90.9625 100.06 90.9625 100.06C90.9625 100.06 150.447 169.614 217.449 147.649C272.671 129.547 190.562 48.4521 153.53 0ZM56.2462 69.2487C49.8236 69.2487 44.6838 60.6619 44.6838 54.2214C44.6838 47.781 49.8905 42.562 56.3131 42.562C62.7357 42.562 72.0684 49.3868 72.0684 55.826C72.0684 62.2653 62.6688 69.2487 56.2462 69.2487ZM127.221 80.287C114.63 80.287 98.8445 66.6191 98.8445 53.9957C98.8445 41.3723 109.378 32.0313 121.969 32.0313C134.56 32.0313 147.832 50.219 147.832 62.8424C147.832 75.4658 139.812 80.287 127.221 80.287Z" fill="#7BC9EF"/>
<path d="M1481.65 87.546C1481.65 73.253 1493.23 61.667 1507.52 61.667C1508.44 61.667 1509.34 61.716 1510.23 61.809V0H1284C1288.59 11.821 1299.83 29.869 1326.73 37C1368.23 48 1432.23 38 1428.23 73C1424.46 106.036 1430.5 192.019 1510.23 176.569V113.284C1509.34 113.377 1508.44 113.426 1507.53 113.426C1493.23 113.425 1481.65 101.839 1481.65 87.546ZM1469.32 44.333C1464.4 44.333 1460.41 41.199 1460.41 37.333C1460.41 33.467 1464.4 30.333 1469.32 30.333C1474.24 30.333 1478.23 33.467 1478.23 37.333C1478.23 41.199 1474.24 44.333 1469.32 44.333Z" fill="#46B17B"/>
</svg>
