<svg width="342" height="279" viewBox="0 0 342 279" fill="none" xmlns="http://www.w3.org/2000/svg">
<path d="M217.725 194.104C217.725 194.104 213.105 224.25 191.005 224.812C191.005 224.812 176.584 224.625 168.905 208.33C168.905 208.33 161.975 222.003 153.547 219.193C145.119 216.383 149.777 187.049 166.283 182.671C166.283 182.671 170.654 182.547 172.838 185.98L188.18 196.531L191.755 183.452L217.725 194.104Z" fill="#5B6CB1"/>
<path d="M211.513 211.321C216.351 203.076 217.726 194.104 217.726 194.104L191.755 183.452L190.471 188.151C194.201 193.476 203.276 205.725 211.513 211.321Z" fill="#070000"/>
<path d="M170.511 211.35C173.039 201.271 178.742 194.519 181.357 191.839L172.838 185.981C170.653 182.547 166.283 182.672 166.283 182.672C149.777 187.05 145.119 216.385 153.547 219.194C161.975 222.004 168.905 208.331 168.905 208.331C169.413 209.407 169.951 210.409 170.511 211.35Z" fill="#94533F"/>
<path d="M161.039 198.029C163.661 186.417 172.838 185.98 172.838 185.98C170.653 182.546 166.283 182.671 166.283 182.671C149.777 187.049 145.119 216.384 153.547 219.193C161.975 222.003 168.905 208.33 168.905 208.33C170.216 200.09 161.039 198.029 161.039 198.029Z" fill="#46B17B"/>
<path d="M188.181 196.531L185.574 204.772" stroke="#070000" stroke-width="1.8269" stroke-miterlimit="10" stroke-linecap="round" stroke-linejoin="round"/>
<path d="M234.705 204.21L238.702 254.903C238.702 254.903 237.453 258.899 238.702 261.521C239.95 264.143 256.557 281.249 265.921 278.752C275.285 276.255 261.177 255.653 261.177 255.653L263.549 204.211L234.705 204.21Z" fill="#5B6CB1"/>
<path d="M261.573 247.038C252.277 247.157 242.967 244.718 237.768 243.068L238.701 254.903C238.701 254.903 237.453 258.899 238.701 261.521C239.949 264.143 256.556 281.249 265.92 278.752C275.285 276.254 261.176 255.653 261.176 255.653L261.573 247.038Z" fill="#94533F"/>
<path d="M255.245 253.654C250.375 254.029 249.251 259.273 244.944 257.962C240.637 256.65 238.701 254.903 238.701 254.903C238.701 254.903 237.453 258.898 238.701 261.52C239.95 264.142 256.556 281.249 265.921 278.751C275.285 276.254 261.176 255.652 261.176 255.652C261.176 255.652 260.115 253.28 255.245 253.654Z" fill="#46B17B"/>
<path d="M263.196 211.854C263.196 211.854 248.378 218.468 235.798 218.082L234.705 204.21H263.549L263.196 211.854Z" fill="#070000"/>
<path d="M264.235 31.7146C264.235 31.7146 259.553 7.36645 270.041 4.3705C281.547 1.08339 285.399 28.9057 285.399 28.9057C285.399 28.9057 309.559 14.1096 315.366 25.9089C320.571 36.4878 302.817 48.3839 290.082 49.1327L264.235 31.7146Z" fill="#46B17B"/>
<path d="M224.967 55.3753C224.967 55.3753 215.977 37.8244 231.709 27.3718C247.442 16.9183 271.415 27.9065 280.904 33.8992C290.394 39.8928 307.104 43.1389 306.49 67.861C306.49 67.861 305.105 77.3451 300.247 85.7138C300.247 85.7138 315.865 83.0942 319.612 95.0805C323.357 107.067 311.87 108.565 311.87 108.565C311.87 108.565 323.857 112.311 319.362 127.044C314.867 141.778 286.899 143.776 266.422 128.543C266.422 128.543 253.436 135.036 238.703 130.541C223.969 126.046 223.72 118.304 223.72 118.304C223.72 118.304 204.241 127.044 198.998 107.816C198.998 107.816 177.272 96.8258 184.014 78.0988C190.416 60.3215 205.615 69.3586 205.615 69.3586C205.615 69.3586 206.489 61.0547 215.23 59.5883C223.97 58.1219 226.717 61.368 226.717 61.368L224.967 55.3753Z" fill="#070000"/>
<path d="M269.723 128.545C269.723 128.545 274.351 110.441 262.084 106.007C249.816 101.574 218.725 89.3997 209.736 109.721C200.746 130.042 182.934 143.417 197.272 155.646L245.113 167.678C245.113 167.678 254.588 170.871 259.882 160.008C265.174 149.146 269.723 128.545 269.723 128.545Z" fill="#EF7F7E"/>
<path d="M195.501 104.195L160.789 98.8268C160.789 98.8268 157.917 95.83 153.672 94.3316C149.427 92.8332 145.541 92.5839 143.48 91.0855C141.42 89.5871 138.658 94.5506 144.698 97.3128C144.698 97.3128 130.557 98.0149 127.561 100.731C124.564 103.447 127.561 103.821 127.561 103.821C127.561 103.821 124.236 105.086 123.862 107.005C123.487 108.925 127.982 108.925 127.982 108.925C127.982 108.925 125.314 110.237 125.922 111.922C126.531 113.607 130.604 113.28 130.604 113.28C130.604 113.28 128.731 116.652 135.287 117.354C141.842 118.056 158.277 117.587 158.277 117.587L191.63 124.423L195.501 104.195Z" fill="#94533F"/>
<path d="M184.916 123.047L191.63 124.423L195.502 104.196L193.488 103.885C193.488 103.885 187.08 112.399 184.916 123.047Z" fill="#070000"/>
<path d="M144.699 97.3125C144.699 97.3125 147.43 103.322 154.922 103.071" stroke="#070000" stroke-width="1.8269" stroke-miterlimit="10" stroke-linecap="round" stroke-linejoin="round"/>
<path d="M130.604 113.279L142.559 110.688" stroke="#070000" stroke-width="1.8269" stroke-miterlimit="10" stroke-linecap="round" stroke-linejoin="round"/>
<path d="M127.982 108.925C127.982 108.925 134.319 106.319 141.811 105.819" stroke="#070000" stroke-width="1.8269" stroke-miterlimit="10" stroke-linecap="round" stroke-linejoin="round"/>
<path d="M127.561 103.82C127.561 103.82 137.315 101.822 140.687 101.822" stroke="#070000" stroke-width="1.8269" stroke-miterlimit="10" stroke-linecap="round" stroke-linejoin="round"/>
<path d="M140.688 100.075L143.309 108.943" stroke="#070000" stroke-width="1.8269" stroke-miterlimit="10" stroke-linecap="round" stroke-linejoin="round"/>
<path d="M146.93 110.688C146.93 110.688 149.427 107.041 153.423 107.616C157.418 108.191 158.167 109.689 158.167 109.689" stroke="#070000" stroke-width="1.8269" stroke-miterlimit="10" stroke-linecap="round" stroke-linejoin="round"/>
<path d="M279.519 127.046L312.704 138.553C312.704 138.553 316.645 137.25 321.097 137.914C325.55 138.577 329.101 140.176 331.623 139.817C334.145 139.458 334.262 145.136 327.631 144.749C327.631 144.749 339.797 151.99 341.173 155.793C342.55 159.596 339.727 158.524 339.727 158.524C339.727 158.524 342.072 161.198 341.505 163.07C340.937 164.941 336.965 162.837 336.965 162.837C336.965 162.837 338.71 165.245 337.383 166.449C336.056 167.654 332.61 165.457 332.61 165.457C332.61 165.457 332.686 169.312 326.565 166.864C320.444 164.415 306.141 156.308 306.141 156.308L273.469 146.732L279.519 127.046Z" fill="#94533F"/>
<path d="M288.752 151.21L273.469 146.732L279.519 127.046L289.429 130.482C289.429 130.482 292.623 139.864 288.752 151.21Z" fill="#070000"/>
<path d="M327.632 144.749C327.632 144.749 322.405 148.78 315.902 145.052" stroke="#070000" stroke-width="1.8269" stroke-miterlimit="10" stroke-linecap="round" stroke-linejoin="round"/>
<path d="M332.611 165.456L323.26 157.569" stroke="#070000" stroke-width="1.8269" stroke-miterlimit="10" stroke-linecap="round" stroke-linejoin="round"/>
<path d="M336.966 162.836C336.966 162.836 332.588 157.566 326.201 153.617" stroke="#070000" stroke-width="1.8269" stroke-miterlimit="10" stroke-linecap="round" stroke-linejoin="round"/>
<path d="M339.728 158.524C339.728 158.524 332.044 152.192 329.064 150.613" stroke="#070000" stroke-width="1.8269" stroke-miterlimit="10" stroke-linecap="round" stroke-linejoin="round"/>
<path d="M329.884 149.068L323.416 155.676" stroke="#070000" stroke-width="1.8269" stroke-miterlimit="10" stroke-linecap="round" stroke-linejoin="round"/>
<path d="M319.397 155.524C319.397 155.524 318.899 151.132 315.099 149.769C311.299 148.407 309.936 149.379 309.936 149.379" stroke="#070000" stroke-width="1.8269" stroke-miterlimit="10" stroke-linecap="round" stroke-linejoin="round"/>
<path d="M238.015 109.627L195.5 100.075C195.5 100.075 185.012 117.045 190.256 131.019L210.296 137.158C210.296 137.158 189.507 165.252 179.768 174.429C179.768 174.429 195.312 202.523 228.276 210.014C261.239 217.506 266.109 210.014 266.109 210.014L267.233 152.328L280.717 156.074C280.717 156.074 286.523 150.455 288.958 140.341C290.498 133.945 288.958 127.606 288.958 127.606L256.389 114.733L238.015 109.627Z" fill="#C1D57E"/>
<path d="M266.506 189.635L266.718 178.767L253.041 182.983L266.506 189.635Z" fill="#070000"/>
<path d="M188.18 165.282C192.968 168.46 205.818 176.187 215.977 174.991L197.269 154.146C194.305 157.895 191.156 161.781 188.18 165.282Z" fill="#070000"/>
<path d="M266.016 118.54C266.016 118.54 274.35 162.443 270.229 186.229C270.229 186.229 255.62 187.166 247.941 183.607C247.941 183.607 259.779 129.021 256.389 114.735L266.016 118.54Z" fill="#46B17B"/>
<path d="M225.429 106.8C225.429 106.8 218.725 129.106 210.297 137.16L191.006 158.136C191.006 158.136 205.427 175.179 218.725 178.176C218.725 178.176 236.021 127.343 236.176 109.214L225.429 106.8Z" fill="#46B17B"/>
<path d="M270.749 157.578C269.504 157.578 268.399 156.687 268.171 155.418L260.969 115.198C260.714 113.773 261.663 112.411 263.088 112.155C264.518 111.899 265.876 112.849 266.131 114.274L273.333 154.493C273.588 155.919 272.639 157.281 271.214 157.536C271.058 157.564 270.903 157.578 270.749 157.578Z" fill="#EF7F7E"/>
<path d="M204.1 144.278C203.114 144.278 202.169 143.718 201.724 142.766C201.111 141.454 201.677 139.893 202.988 139.279C226.662 128.212 225.981 104.983 225.94 103.999C225.881 102.555 227.001 101.331 228.445 101.268C229.908 101.204 231.112 102.321 231.179 103.765C231.191 104.04 232.128 131.445 205.21 144.029C204.85 144.197 204.473 144.278 204.1 144.278Z" fill="#EF7F7E"/>
<path d="M262.799 108.691L256.559 116.37C256.559 116.37 258.806 131.915 250.191 130.979C241.575 130.042 235.582 112.063 236.518 107.942L239.307 103.072L262.799 108.691Z" fill="#94533F"/>
<path d="M258.011 107.546L239.307 103.072L236.518 107.942C236.256 109.096 236.538 111.338 237.268 113.987C243.317 113.629 254.967 112.323 258.011 107.546Z" fill="#070000"/>
<path d="M256.56 116.37L253.227 122.925" stroke="#070000" stroke-width="1.8269" stroke-miterlimit="10" stroke-linecap="round" stroke-linejoin="round"/>
<path d="M224.968 55.3757L219.724 67.7655C219.724 67.7655 207.738 67.4185 205.74 80.6252C203.742 93.8326 225.968 113.061 253.187 111.812C280.407 110.564 289.647 101.574 289.647 101.574L293.143 91.5223L288.648 75.6051C288.648 75.6051 269.419 62.8668 268.919 39.1436C268.919 39.1436 254.186 46.3853 236.206 44.3875L224.968 55.3757Z" fill="#94533F"/>
<path d="M308.494 98.3365C313.97 91.7809 314.359 83.0821 309.362 78.9072C304.364 74.7324 295.874 76.6623 290.397 83.2179C284.92 89.7735 284.532 98.4723 289.529 102.647C294.526 106.822 303.017 104.892 308.494 98.3365Z" fill="#94533F"/>
<path d="M306.493 85.7139L293.258 91.8321" stroke="#070000" stroke-width="1.8269" stroke-miterlimit="10" stroke-linecap="round" stroke-linejoin="round"/>
<path d="M300.358 88.5498C300.358 88.5498 303.787 92.5816 298.959 96.8266" stroke="#070000" stroke-width="1.8269" stroke-miterlimit="10" stroke-linecap="round" stroke-linejoin="round"/>
<path d="M232.399 81.055C232.399 81.055 226.967 76.6649 229.027 73.2933C231.087 69.9217 238.579 76.2901 238.579 76.2901" stroke="#070000" stroke-width="1.8269" stroke-miterlimit="10" stroke-linecap="round" stroke-linejoin="round"/>
<path d="M235.354 73.9784C235.354 73.9784 241.014 69.5472 243.261 63.1797" stroke="#070000" stroke-width="1.8269" stroke-miterlimit="10" stroke-linecap="round" stroke-linejoin="round"/>
<path d="M250.19 89.7744C250.19 89.7744 249.347 98.6704 243.355 98.5769C237.361 98.4834 241.309 90.246 241.309 90.246C241.309 90.246 246.257 90.8078 250.19 89.7744Z" fill="#FBFFFF"/>
<path d="M236.518 88.7734C236.518 88.7734 243.448 91.648 250.19 89.7748" stroke="#070000" stroke-width="1.8269" stroke-miterlimit="10" stroke-linecap="round" stroke-linejoin="round"/>
<path d="M253.225 75.8955C253.225 75.8955 260.665 73.0766 262.798 80.6211" stroke="#070000" stroke-width="1.8269" stroke-miterlimit="10" stroke-linecap="round" stroke-linejoin="round"/>
<path d="M225.314 65.7632C225.314 65.7632 232.399 62.6171 234.679 69.0839" stroke="#070000" stroke-width="1.8269" stroke-miterlimit="10" stroke-linecap="round" stroke-linejoin="round"/>
<path d="M229.996 54.5637L236.519 54.002" stroke="#070000" stroke-width="1.8269" stroke-miterlimit="10" stroke-linecap="round" stroke-linejoin="round"/>
<path d="M262.084 60.3701L266.953 64.9981" stroke="#070000" stroke-width="1.8269" stroke-miterlimit="10" stroke-linecap="round" stroke-linejoin="round"/>
<path d="M53.6165 136.617C56.2409 125.67 62.1549 102.907 68.757 90.0256C71.4216 84.8276 76.2949 81.1312 82.0145 79.9478C90.6112 78.1689 105.538 75.378 119.569 78.8759C122.707 79.6583 125.541 81.3617 127.723 83.7483L133.061 90.4406C134.871 92.4212 135.551 95.1867 134.865 97.7808L123.759 139.75C122.728 143.647 119.566 146.616 115.613 147.4L70.2677 156.397C66.395 157.165 62.4174 155.707 59.9594 152.618L56.0868 147.751C53.5935 144.615 52.6832 140.511 53.6165 136.617Z" fill="#5B6CB1"/>
<path d="M65.3438 149.398C67.9682 138.451 73.7419 116.278 80.344 103.397C83.0087 98.199 87.8819 94.5026 93.6023 93.3192C102.199 91.5403 129.373 87.634 134.268 92.1874" stroke="#070000" stroke-width="1.8269" stroke-miterlimit="10" stroke-linecap="round" stroke-linejoin="round"/>
<path d="M73.207 98.5536C73.207 98.5536 76.9272 88.5865 83.3127 87.1069C89.6983 85.6274 120.802 83.2228 120.802 83.2228C120.802 83.2228 127.403 82.7044 131.393 87.4399" stroke="#FBFFFF" stroke-width="1.8269" stroke-miterlimit="10" stroke-linecap="round" stroke-linejoin="round"/>
<path d="M142.154 168.693C142.154 168.693 153.953 179.931 152.08 189.295C150.207 198.659 139.719 198.847 139.719 198.847C139.719 198.847 147.023 207.65 138.596 212.894C130.864 217.705 120.822 203.902 116.804 193.354C116.091 191.482 116.322 189.39 117.397 187.701C118.592 185.821 120.571 183.311 123.612 181.054L142.154 168.693Z" fill="#F8B193"/>
<path d="M127.733 190.682C127.733 190.682 143.184 188.92 150.475 180.088C147.563 173.85 142.154 168.693 142.154 168.693C124.299 178.308 119.152 185.29 119.152 185.29L127.733 190.682Z" fill="#070000"/>
<path d="M119.153 185.289C118.441 186.153 117.858 186.974 117.397 187.7C116.322 189.39 116.091 191.482 116.804 193.353C120.821 203.902 130.864 217.704 138.596 212.893C147.023 207.649 139.719 198.847 139.719 198.847C139.719 198.847 126.102 198.326 119.153 185.289Z" fill="#EF7F7E"/>
<path d="M131.025 201.244L139.72 198.848" stroke="#FBFFFF" stroke-width="1.8269" stroke-miterlimit="10" stroke-linecap="round" stroke-linejoin="round"/>
<path d="M133.07 206.432L142.239 203.64" stroke="#FBFFFF" stroke-width="1.8269" stroke-miterlimit="10" stroke-linecap="round" stroke-linejoin="round"/>
<path d="M131.104 149.402L151.067 172.068C151.067 172.068 145.214 189.933 127.734 190.682L115.871 177.247L120.116 197.724L82.445 201.657C82.445 201.657 68.3616 177.247 70.7966 145.47L131.104 149.402Z" fill="#5B6CB1"/>
<path d="M120.117 197.724C120.35 202.614 112.7 207.961 102.413 208.452C92.125 208.941 82.6795 206.547 82.4458 201.657C82.2129 196.766 91.2811 191.231 101.569 190.742C111.857 190.251 119.884 192.833 120.117 197.724Z" fill="#070000"/>
<path d="M70.5137 156.894C108.63 170.941 131.105 149.402 131.105 149.402L70.7967 145.469C70.3079 149.346 70.5137 156.894 70.5137 156.894Z" fill="#070000"/>
<path d="M115.871 177.247C115.871 177.247 122.613 171.504 123.612 167.508" stroke="#070000" stroke-width="1.8269" stroke-miterlimit="10" stroke-linecap="round" stroke-linejoin="round"/>
<path d="M88.2832 194.425L99.451 245.484L123.611 240.427C123.611 240.427 118.305 202.059 111.968 191.464C111.968 191.464 99.077 188.172 88.2832 194.425Z" fill="#F8B193"/>
<path d="M111.968 191.463C111.968 191.463 99.0762 188.172 88.2832 194.425L90.2663 203.492C92.3954 199.994 96.8069 196.236 105.947 196.039C108.912 195.975 111.648 196.068 114.158 196.26C113.447 194.349 112.714 192.712 111.968 191.463Z" fill="#EF7F7E"/>
<path d="M121.367 226.411C109.474 222.209 100.239 229.477 96.707 232.941L99.4504 245.484L123.611 240.427C123.611 240.427 122.773 234.372 121.367 226.411Z" fill="#FBFFFF"/>
<path d="M98.8704 242.825C98.8704 242.825 106.444 231.624 115.871 231.624C125.298 231.624 132.415 235.484 134.101 242.825C135.786 250.166 129.231 261.215 123.612 262.714C117.993 264.212 102.823 265.71 100.388 258.968C97.9535 252.226 98.8704 242.825 98.8704 242.825Z" fill="#EF7F7E"/>
<path d="M123.611 262.715C128.698 261.358 134.552 252.173 134.364 244.999C130.911 238.272 120.31 238.583 112.936 240.427C101.698 243.236 100.387 258.968 100.387 258.968C102.823 265.711 117.993 264.213 123.611 262.715Z" fill="#070000"/>
<path d="M101.221 254.485L131.653 254.849" stroke="#FBFFFF" stroke-width="1.8269" stroke-miterlimit="10" stroke-linecap="round" stroke-linejoin="round"/>
<path d="M138.162 119.812L154.952 134.608C154.952 134.608 160.696 141.163 161.445 151.526C161.814 156.634 154.079 165.136 151.581 164.637C149.084 164.137 147.336 160.641 147.336 160.641C147.336 160.641 142.342 160.087 141.468 158.179C140.593 156.271 139.845 149.279 140.593 147.156L127.857 138.041C127.857 138.041 129.863 126.803 138.162 119.812Z" fill="#F8B193"/>
<path d="M140.594 147.156C140.594 147.156 141.468 143.556 142.467 142.234" stroke="#070000" stroke-width="1.8269" stroke-miterlimit="10" stroke-linecap="round" stroke-linejoin="round"/>
<path d="M147.336 160.641L148.959 154.772" stroke="#070000" stroke-width="1.8269" stroke-miterlimit="10" stroke-linecap="round" stroke-linejoin="round"/>
<path d="M147.336 153.648C147.336 153.648 151.61 155.147 152.282 156.895" stroke="#070000" stroke-width="1.8269" stroke-miterlimit="10" stroke-linecap="round" stroke-linejoin="round"/>
<path d="M131.103 133.545C131.103 133.545 143.227 134.286 143.595 115.764C143.668 112.038 141.83 105.427 138.703 104.716L131.029 102.8L131.103 133.545Z" fill="#5B6CB1"/>
<path d="M107.88 96.5869C107.88 96.5869 100.911 95.5363 90.3989 96.9207C81.5677 98.0844 74.1676 133.108 74.1676 133.108L70.7969 145.469C70.7969 145.469 89.1515 160.64 113.312 157.83C113.312 157.83 128.697 155.957 131.105 149.402C131.105 149.402 140.657 111.663 133.352 103.422L107.88 96.5869Z" fill="#EF7F7E"/>
<path d="M205.252 38.2056C205.252 49.1405 180.376 62.2307 148.353 69.1182C116.33 76.0048 93.5586 76.5035 91.4435 66.6709C89.3292 56.8383 114.288 46.019 145.598 36.398C179.29 26.0446 203.138 28.373 205.252 38.2056Z" fill="#070000"/>
<path d="M87.4026 73.6121C87.4026 73.6121 68.1278 33.9512 95.6433 13.1796C121.115 -6.04847 149.763 -2.73185 165.566 13.4297C176.553 24.6672 176.553 32.1592 176.553 32.1592L87.4026 73.6121Z" fill="#5B6CB1"/>
<path d="M182.761 60.7468C184.158 53.684 180.927 47.0949 175.543 46.0297C170.159 44.9645 164.662 49.8266 163.265 56.8894C161.867 63.9522 165.099 70.5413 170.482 71.6065C175.866 72.6717 181.363 67.8096 182.761 60.7468Z" fill="#EF7F7E"/>
<path d="M91.1484 67.1198C91.1484 67.1198 139.595 24.4178 176.553 32.159V62.8747C176.553 62.8747 190.288 68.1187 188.54 79.8556C186.792 91.5926 165.815 111.071 132.602 106.576L130.854 109.822C130.854 109.822 136.098 117.563 128.357 119.061C120.788 120.526 107.88 96.5864 107.88 96.5864C107.88 96.5864 97.3913 88.8451 91.1484 67.1198Z" fill="#F8B193"/>
<path d="M141.795 83.499C141.795 83.499 138.319 91.6955 143.069 93.7196C148.359 95.9733 152.465 85.8077 152.465 85.8077C152.465 85.8077 145.51 85.2754 141.795 83.499Z" fill="#FBFFFF"/>
<path d="M91.1484 67.1199C93.3308 74.7152 96.0315 80.5964 98.6223 85.0399C104.025 81.4042 113.711 72.8978 112.624 59.1294C112.624 59.1294 130.508 64.8728 139.92 59.1294C146.668 55.0115 142.675 50.8944 139.873 48.8932C143.285 50.8813 150.257 54.4152 154.826 53.1358C161.069 51.3873 154.826 42.8972 154.826 42.8972C154.826 42.8972 167.919 47.1513 176.552 45.5118C176.552 45.5118 184.293 44.713 184.293 39.1517C184.293 33.5903 176.552 32.1592 176.552 32.1592C139.595 24.4171 91.1484 67.1199 91.1484 67.1199Z" fill="#94533F"/>
<path d="M100.719 92.791C105.716 88.6161 105.328 79.9174 99.8512 73.3618C94.3746 66.8062 85.8837 64.8762 80.8864 69.0511C75.889 73.226 76.2776 81.9247 81.7543 88.4803C87.2309 95.0359 95.7218 96.9659 100.719 92.791Z" fill="#F8B193"/>
<path d="M111.455 55.0012C110.367 55.0012 109.319 54.4074 108.787 53.374C108.03 51.9027 108.61 50.096 110.082 49.3381C112.526 48.0809 170.23 18.6552 196.57 27.3946C201.901 29.1636 205.727 32.3572 207.944 36.8877C208.672 38.3746 208.057 40.169 206.57 40.8965C205.084 41.6248 203.289 41.0088 202.562 39.5219C201.058 36.4497 198.482 34.3436 194.684 33.0839C184.925 29.8468 167.753 32.5049 145.022 40.7718C127.54 47.1295 112.969 54.5944 112.824 54.669C112.384 54.8937 111.915 55.0012 111.455 55.0012Z" fill="#5B6CB1"/>
<path d="M117.119 45.8935C117.119 45.8935 139.921 30.1609 174.978 26.5449" stroke="#070000" stroke-width="1.8269" stroke-miterlimit="10" stroke-linecap="round" stroke-linejoin="round"/>
<path d="M83.7832 75.8604L97.0185 81.9786" stroke="#070000" stroke-width="1.8269" stroke-miterlimit="10" stroke-linecap="round" stroke-linejoin="round"/>
<path d="M89.9172 78.6963C89.9172 78.6963 86.4883 82.7281 91.3164 86.9731" stroke="#070000" stroke-width="1.8269" stroke-miterlimit="10" stroke-linecap="round" stroke-linejoin="round"/>
<path d="M132.602 106.576L118.742 100.957C118.742 100.957 124.736 108.574 130.854 109.822L132.602 106.576Z" fill="#070000"/>
<path d="M158.699 75.1736C158.699 75.1736 164.209 69.7959 166.815 73.6129C168.563 76.1725 163.569 80.1059 163.569 80.1059" stroke="#070000" stroke-width="1.8269" stroke-miterlimit="10" stroke-linecap="round" stroke-linejoin="round"/>
<path d="M157.076 61.251C157.076 61.251 157.183 69.9912 160.673 73.6121" stroke="#070000" stroke-width="1.8269" stroke-miterlimit="10" stroke-linecap="round" stroke-linejoin="round"/>
<path d="M141.795 83.499C141.795 83.499 149.781 86.6926 156.001 85.5879" stroke="#070000" stroke-width="1.8269" stroke-miterlimit="10" stroke-linecap="round" stroke-linejoin="round"/>
<path d="M143.582 70.9275C143.582 72.4103 142.884 73.6118 142.022 73.6118C141.16 73.6118 140.461 72.4103 140.461 70.9275C140.461 69.4447 141.16 68.2432 142.022 68.2432C142.884 68.2432 143.582 69.4447 143.582 70.9275Z" fill="#070000"/>
<path d="M167.868 66.3396C167.868 67.8224 167.169 69.0239 166.307 69.0239C165.445 69.0239 164.746 67.8224 164.746 66.3396C164.746 64.8568 165.445 63.6553 166.307 63.6553C167.169 63.6553 167.868 64.8568 167.868 66.3396Z" fill="#070000"/>
<path d="M137.551 62.5621C137.551 62.5621 139.33 60.4085 142.421 59.8467" stroke="#94533F" stroke-width="1.8269" stroke-miterlimit="10" stroke-linecap="round" stroke-linejoin="round"/>
<path d="M167.523 55.1447C167.523 55.1447 165.023 53.8981 161.971 54.6379" stroke="#94533F" stroke-width="1.8269" stroke-miterlimit="10" stroke-linecap="round" stroke-linejoin="round"/>
<path d="M161.459 17.1221C161.812 20.6906 156.201 24.1663 148.925 24.8855C141.65 25.6048 135.466 23.2953 135.113 19.7269C134.761 16.1585 140.372 12.6828 147.648 11.9635C154.923 11.2434 161.107 13.5537 161.459 17.1221Z" fill="#FBFFFF"/>
<path d="M22.662 121.872C22.662 121.872 11.9863 115.691 2.62197 117.002L7.30412 124.119L0 128.614C0 128.614 11.6123 130.487 18.5416 136.48L22.662 121.872Z" fill="#EF7F7E"/>
<path d="M41.9539 96.9215L45.3255 91.3438L109.379 145.096C109.379 145.096 87.6765 194.713 84.2819 204.654C82.7835 213.457 64.1246 217.827 61.6199 210.46L11.4252 167.945C11.4252 167.945 7.67965 164.012 9.17803 155.959C10.6764 147.905 21.5391 99.9593 21.5391 99.9593L24.7229 102.394L41.9539 96.9215Z" fill="#46B17B"/>
<path d="M63.1172 207.464C63.1172 207.464 65.5989 211.731 73.2073 210.046C80.8157 208.36 82.4445 201.658 82.4445 201.658C82.4445 201.658 69.392 196.079 63.1172 207.464Z" fill="#070000"/>
<path d="M24.7227 102.394L83.7814 152.187C83.7814 152.187 62.5555 193.043 63.1173 207.464C63.1173 207.464 71.4318 200.16 82.4446 201.658L103.525 147.157L41.9537 96.9219L24.7227 102.394Z" fill="#FBFFFF"/>
<path d="M31.7188 100.957L43.4516 110.821" stroke="#7BC9EF" stroke-width="1.8269" stroke-miterlimit="10" stroke-linecap="round" stroke-linejoin="round"/>
<path d="M37.5859 98.3086L93.6545 149.671L76.4308 201.657" stroke="#7BC9EF" stroke-width="1.8269" stroke-miterlimit="10" stroke-linecap="round" stroke-linejoin="round"/>
<path d="M74.2916 140.135L86.9003 151.391L72.8711 192.98" stroke="#7BC9EF" stroke-width="1.8269" stroke-miterlimit="10" stroke-linecap="round" stroke-linejoin="round"/>
<path d="M103.525 147.155L83.7812 152.185" stroke="#7BC9EF" stroke-width="1.8269" stroke-miterlimit="10" stroke-linecap="round" stroke-linejoin="round"/>
<path d="M68.3617 128.613C68.3617 128.613 54.8771 139.851 51.8803 147.904C51.8803 147.904 53.9405 150.62 53.66 153.523C53.3787 156.426 55.9072 160.452 53.9405 162.139C51.9738 163.824 48.8835 160.266 47.8534 157.269C47.8534 157.269 46.355 158.954 46.1681 164.761C45.9811 170.566 45.5128 172.159 44.2014 172.065C42.89 171.971 40.8298 169.818 40.8298 169.818C40.8298 169.818 37.1777 170.379 35.1175 166.353C35.1175 166.353 31.559 165.041 30.4354 161.389C29.3118 157.737 31.0907 144.721 33.4322 139.664C33.4322 139.664 40.5386 117.189 55.8137 108.199L68.3617 128.613Z" fill="#F8B193"/>
<path d="M52.1973 110.691C56.211 122.445 68.3605 128.613 68.3605 128.613L55.8124 108.198C54.5502 108.941 53.3487 109.784 52.1973 110.691Z" fill="#070000"/>
<path d="M40.8309 169.817C40.8309 169.817 39.5195 163.824 40.8309 158.486" stroke="#070000" stroke-width="1.8269" stroke-miterlimit="10" stroke-linecap="round" stroke-linejoin="round"/>
<path d="M35.1172 166.353C35.1172 166.353 35.1172 160.266 35.5855 157.644" stroke="#070000" stroke-width="1.8269" stroke-miterlimit="10" stroke-linecap="round" stroke-linejoin="round"/>
<path d="M31.5059 163.514L31.934 155.957" stroke="#070000" stroke-width="1.8269" stroke-miterlimit="10" stroke-linecap="round" stroke-linejoin="round"/>
<path d="M90.3984 96.9209C90.3984 96.9209 76.7891 98.4595 55.8125 108.199C55.8125 108.199 56.7491 125.43 70.7956 134.607L88.7352 128.052C88.7352 128.052 95.6998 117.939 95.7055 107.825C95.7104 99.7701 90.3984 96.9209 90.3984 96.9209Z" fill="#EF7F7E"/>
<path d="M82.4453 130.35L92.8963 126.179" stroke="#070000" stroke-width="1.8269" stroke-miterlimit="10" stroke-linecap="round" stroke-linejoin="round"/>
<path d="M90.3991 96.9208C90.3991 96.9208 92.8964 108.823 89.3223 128.265L98.8957 136.298C101.762 129.237 106.07 112.631 102.647 96.2228C102.647 96.2228 100.844 95.5577 97.0176 95.7939C92.0386 96.1023 90.3991 96.9208 90.3991 96.9208Z" fill="#5B6CB1"/>
</svg>
