<svg width="141" height="150" viewBox="0 0 141 150" fill="none" xmlns="http://www.w3.org/2000/svg">
<path d="M72.4799 35.6979C68.129 34.932 64.1869 32.7107 60.9457 29.7082C56.1746 25.2905 41.002 12.9637 20.9475 25.1396C-3.71189 40.1118 -12.9541 124.457 29.0648 142.602C29.0648 142.602 41.957 148.809 48.6418 144.989C55.3266 141.169 61.534 137.349 69.1738 144.034C76.8136 150.719 92.0932 152.151 106.895 140.214C121.697 128.277 157.509 78.1408 130.292 42.8067C130.292 42.8067 119.071 22.353 85.8859 34.6894C85.8859 34.6894 79.8657 37.0005 72.4799 35.6979Z" fill="#EF7F7E"/>
<path d="M59.3848 41.6147C59.3848 41.6147 72.2769 50.9258 86.8403 46.8671" stroke="#070000" stroke-miterlimit="10" stroke-linecap="round" stroke-linejoin="round"/>
<path d="M71.431 46.9057C71.431 46.9057 76.5764 22.5137 65.3555 9.14404" stroke="#070000" stroke-miterlimit="10" stroke-linecap="round" stroke-linejoin="round"/>
<path d="M130.715 1.55943C130.715 1.55943 129.341 24.5572 114.736 35.188C100.131 45.8169 77.8242 40.0546 77.8242 40.0546C77.8242 40.0546 79.1975 17.0568 93.8029 6.426C108.408 -4.20289 130.715 1.55943 130.715 1.55943Z" fill="#46B17B"/>
<path d="M130.715 1.55908C130.715 1.55908 86.8411 28.0253 71.4297 46.9052" stroke="#070000" stroke-miterlimit="10" stroke-linecap="round" stroke-linejoin="round"/>
<path d="M101.072 21.249L124.658 23.1666" stroke="#070000" stroke-miterlimit="10" stroke-linecap="round" stroke-linejoin="round"/>
<path d="M92.0078 28.026L93.8032 6.42627" stroke="#070000" stroke-miterlimit="10" stroke-linecap="round" stroke-linejoin="round"/>
<path d="M22.3796 60.4756C22.3796 64.6985 19.8146 68.1211 16.6498 68.1211C13.485 68.1211 10.9199 64.6985 10.9199 60.4756C10.9199 56.2527 13.485 52.8301 16.6498 52.8301C19.8146 52.8301 22.3796 56.2527 22.3796 60.4756Z" fill="#FBFFFF"/>
<path d="M19.5153 46.9056C21.0976 46.9056 22.3802 45.3467 22.3802 43.4237C22.3802 41.5008 21.0976 39.9419 19.5153 39.9419C17.9331 39.9419 16.6504 41.5008 16.6504 43.4237C16.6504 45.3467 17.9331 46.9056 19.5153 46.9056Z" fill="#FBFFFF"/>
</svg>
