<svg width="276" height="155" viewBox="0 0 276 155" fill="none" xmlns="http://www.w3.org/2000/svg">
<path d="M153.271 9.2705C154.965 7.5765 157.712 7.5765 159.406 9.2705L163.834 13.6985L157.698 19.8335L153.271 15.4065C151.576 13.7115 151.576 10.9645 153.271 9.2705Z" fill="#070000"/>
<path d="M157.133 19.2673L165.009 45.8983L167.555 48.4443L192.445 23.5533L189.9 21.0083L163.269 13.1323L157.133 19.2673Z" fill="#F8B193"/>
<path d="M226.951 107.842L251.841 82.9517L270.226 101.337C277.099 108.21 277.099 119.354 270.226 126.227C263.353 133.1 252.209 133.1 245.336 126.227L226.951 107.842Z" fill="#EF7F7E"/>
<path d="M231.325 116.478C230.648 118.201 231.004 120.236 232.397 121.629C234.272 123.503 237.311 123.503 239.185 121.629L265.631 95.1834C267.505 93.3094 267.506 90.2694 265.631 88.3954C264.238 87.0024 262.203 86.6474 260.48 87.3234C261.157 85.6004 260.801 83.5654 259.408 82.1724C257.533 80.2974 254.494 80.2974 252.62 82.1724L226.174 108.618C224.299 110.493 224.299 113.532 226.174 115.406C227.567 116.799 229.602 117.155 231.325 116.478Z" fill="#FDCE64"/>
<path d="M226.956 107.84L251.846 82.9497L189.904 21.0077L165.014 45.8977L226.956 107.84Z" fill="#5B6CB1"/>
<path d="M234.733 100.061L244.066 90.7271L182.124 28.7851L172.791 38.1188L234.733 100.061Z" fill="#7BC9EF"/>
<path d="M230.758 118.045C230.502 118.045 230.246 117.947 230.051 117.752C229.66 117.361 229.66 116.729 230.051 116.338L260.338 86.0516C260.729 85.6606 261.361 85.6606 261.752 86.0516C262.143 86.4426 262.143 87.0746 261.752 87.4656L231.465 117.752C231.27 117.947 231.014 118.045 230.758 118.045Z" fill="#070000"/>
<path d="M177.837 96.6908L183.855 119.237C185.907 126.922 181.34 134.815 173.655 136.866L111.138 153.554C103.454 155.605 95.5614 151.038 93.5093 143.354L87.4907 120.808C85.4395 113.123 90.0061 105.231 97.6909 103.179L160.208 86.4907C167.893 84.4394 175.785 89.0069 177.837 96.6908Z" fill="#7BC9EF"/>
<path d="M141.814 145.365L173.655 136.866C181.339 134.815 185.906 126.922 183.855 119.237L177.836 96.6909C175.785 89.0061 167.892 84.4395 160.208 86.4907L128.367 94.9899L141.814 145.365Z" fill="#EF7F7E"/>
<path d="M122.946 96.4254L136.393 146.801L147.241 143.906L133.795 93.5297L122.946 96.4254Z" fill="#FBFFFF"/>
<path d="M181.371 109.928C183.422 117.613 178.855 125.505 171.17 127.557L108.654 144.245C100.969 146.296 93.0766 141.73 91.0254 134.045" stroke="#070000" stroke-width="2" stroke-miterlimit="10" stroke-linecap="round" stroke-linejoin="round"/>
<path d="M24.9634 138.054L1.94562 115.037C-0.64854 112.442 -0.64854 108.236 1.94562 105.641L105.641 1.94562C108.236 -0.64854 112.442 -0.64854 115.037 1.94562L138.054 24.9634C140.649 27.5576 140.649 31.7635 138.054 34.3585L34.3577 138.054C31.7635 140.649 27.5576 140.649 24.9634 138.054Z" fill="#FDCE64"/>
<path d="M138.054 24.9632L129.129 16.0381L16.0391 129.128L24.9642 138.053C27.5583 140.647 31.7651 140.647 34.3593 138.053L138.054 34.3575C140.649 31.7633 140.649 27.5574 138.054 24.9632Z" fill="#EF7F7E"/>
<path d="M133.358 39.8858C133.145 39.8858 132.932 39.8045 132.77 39.6425L124.785 31.6574C124.46 31.3328 124.46 30.8079 124.785 30.4833C125.109 30.1586 125.634 30.1586 125.959 30.4833L133.945 38.4684C134.269 38.793 134.269 39.3179 133.945 39.6425C133.782 39.8045 133.57 39.8858 133.358 39.8858Z" fill="#070000"/>
<path d="M123.961 49.2807C123.748 49.2807 123.536 49.1993 123.374 49.0374L115.388 41.0515C115.063 40.7268 115.063 40.202 115.388 39.8773C115.713 39.5526 116.238 39.5526 116.562 39.8773L124.548 47.8632C124.873 48.1879 124.873 48.7127 124.548 49.0374C124.385 49.1993 124.174 49.2807 123.961 49.2807Z" fill="#070000"/>
<path d="M114.567 58.6757C114.354 58.6757 114.141 58.5944 113.979 58.4324L105.994 50.4465C105.669 50.1218 105.669 49.597 105.994 49.2723C106.318 48.9476 106.843 48.9476 107.168 49.2723L115.154 57.2583C115.478 57.5829 115.478 58.1077 115.154 58.4324C114.992 58.5944 114.779 58.6757 114.567 58.6757Z" fill="#070000"/>
<path d="M105.171 68.0708C104.959 68.0708 104.746 67.9894 104.584 67.8275L96.599 59.8415C96.2743 59.5168 96.2743 58.992 96.599 58.6673C96.9237 58.3427 97.4485 58.3427 97.7732 58.6673L105.758 66.6533C106.083 66.978 106.083 67.5028 105.758 67.8275C105.596 67.9894 105.384 68.0708 105.171 68.0708Z" fill="#070000"/>
<path d="M95.7775 77.4653C95.5649 77.4653 95.3523 77.3839 95.1904 77.222L87.2045 69.2361C86.8798 68.9114 86.8798 68.3866 87.2045 68.0619C87.5291 67.7372 88.0548 67.7372 88.3786 68.0619L96.3646 76.0478C96.6892 76.3725 96.6892 76.8973 96.3646 77.222C96.2026 77.3839 95.9901 77.4653 95.7775 77.4653Z" fill="#070000"/>
<path d="M86.3821 86.8603C86.1695 86.8603 85.9569 86.7789 85.795 86.617L77.8099 78.6311C77.4852 78.3064 77.4852 77.7816 77.8099 77.4569C78.1346 77.1322 78.6594 77.1322 78.9841 77.4569L86.9692 85.4428C87.2939 85.7675 87.2939 86.2923 86.9692 86.617C86.8073 86.7789 86.5947 86.8603 86.3821 86.8603Z" fill="#070000"/>
<path d="M76.9865 96.2548C76.7739 96.2548 76.5613 96.1735 76.3994 96.0115L68.4134 88.0256C68.0888 87.7009 68.0888 87.1761 68.4134 86.8514C68.7381 86.5267 69.2629 86.5267 69.5876 86.8514L77.5735 94.8373C77.8982 95.162 77.8982 95.6868 77.5735 96.0115C77.4116 96.1743 77.199 96.2548 76.9865 96.2548Z" fill="#070000"/>
<path d="M67.5911 105.65C67.3785 105.65 67.1659 105.568 67.004 105.406L59.0189 97.4203C58.6942 97.0956 58.6942 96.57 59.0189 96.2461C59.3436 95.9223 59.8684 95.9214 60.1931 96.2461L68.1782 104.232C68.5029 104.557 68.5029 105.082 68.1782 105.406C68.0163 105.569 67.8037 105.65 67.5911 105.65Z" fill="#070000"/>
<path d="M58.1974 115.045C57.9848 115.045 57.7722 114.964 57.6103 114.802L49.6244 106.816C49.2997 106.491 49.2997 105.966 49.6244 105.641C49.9491 105.317 50.4739 105.317 50.7986 105.641L58.7845 113.627C59.1092 113.952 59.1092 114.477 58.7845 114.802C58.6226 114.964 58.41 115.045 58.1974 115.045Z" fill="#070000"/>
<path d="M48.8029 124.44C48.5903 124.44 48.3777 124.359 48.2158 124.197L40.2298 116.211C39.9052 115.886 39.9052 115.361 40.2298 115.036C40.5545 114.712 41.0793 114.712 41.404 115.036L49.39 123.022C49.7146 123.347 49.7146 123.872 49.39 124.197C49.228 124.359 49.0154 124.44 48.8029 124.44Z" fill="#070000"/>
<path d="M39.4064 133.834C39.1938 133.834 38.9812 133.753 38.8193 133.591L30.8334 125.605C30.5087 125.28 30.5087 124.755 30.8334 124.431C31.158 124.106 31.6829 124.106 32.0075 124.431L39.9935 132.416C40.3182 132.741 40.3182 133.266 39.9935 133.591C39.8315 133.753 39.619 133.834 39.4064 133.834Z" fill="#070000"/>
</svg>
