<svg width="184" height="256" viewBox="0 0 184 256" fill="none" xmlns="http://www.w3.org/2000/svg">
<path d="M45.9132 141.965C45.9132 141.965 37.0382 149.298 31.9132 151.298C31.9132 151.298 27.2462 149.715 23.4552 154.215C23.4552 154.215 20.9552 150.466 18.3722 150.758C15.7892 151.05 15.2052 153.257 15.8302 155.465C15.8302 155.465 10.5382 152.341 8.74721 154.258C6.95521 156.175 8.20521 158.59 8.20521 158.59C8.20521 158.59 5.49721 157.924 4.66321 160.008C3.83021 162.091 6.53821 166.612 14.9132 168.456C23.2882 170.3 37.6632 170.049 52.0382 162.049L66.2882 137.96C66.2882 137.96 51.1152 137.958 45.9132 141.965Z" fill="#EF7F7E"/>
<path d="M23.4551 154.216C23.4551 154.216 30.4551 152.299 31.7051 157.883" stroke="#070000" stroke-miterlimit="10" stroke-linecap="round" stroke-linejoin="round"/>
<path d="M15.8301 155.465C15.8301 155.465 18.4551 160.465 23.4551 161.882" stroke="#070000" stroke-miterlimit="10" stroke-linecap="round" stroke-linejoin="round"/>
<path d="M8.20508 158.59C8.20508 158.59 13.4951 161.148 17.8721 161.298" stroke="#070000" stroke-miterlimit="10" stroke-linecap="round" stroke-linejoin="round"/>
<path d="M47.0997 149.185C47.0997 149.185 39.9917 146.037 31.3907 137.623C29.6077 135.879 29.0967 133.197 30.1397 130.93C35.0157 120.333 49.7797 90.7133 62.0607 91.6763C77.0077 92.8483 97.4917 102.043 101.561 111.426C106.056 121.789 82.8087 153.442 82.8087 153.442L47.0997 149.185Z" fill="#46B17B"/>
<path d="M75.2061 94.3081C75.1931 94.3761 73.2051 104.954 101.632 118.539C102.269 115.709 102.345 113.238 101.559 111.427C98.6111 104.627 87.0411 97.9291 75.2061 94.3081Z" fill="#070000"/>
<path d="M47.1003 149.185C47.1003 149.185 63.5613 123.537 70.8133 107.63C72.4043 104.14 71.3243 100.017 68.1963 97.7962L61.5653 93.5852C59.4183 92.0612 56.7603 91.7472 54.4253 92.5292C53.0243 92.9982 51.7393 93.8612 50.7503 95.0932C50.7503 95.0932 43.4043 101.382 44.7203 104.965" stroke="#070000" stroke-miterlimit="10" stroke-linecap="round" stroke-linejoin="round"/>
<path d="M38.051 109.38C38.051 109.38 44.717 115.923 54.184 120.676L50.973 125.86C41.969 125.268 36.119 120.672 35.25 114.517L38.051 109.38Z" stroke="#070000" stroke-miterlimit="10" stroke-linecap="round" stroke-linejoin="round"/>
<path d="M50.9747 125.861L45.9787 133.851C44.4717 136.261 41.2447 136.902 38.9317 135.249L32.1497 130.405C30.0407 128.899 29.4577 126.017 30.8147 123.81L35.6627 115.923" stroke="#070000" stroke-miterlimit="10" stroke-linecap="round" stroke-linejoin="round"/>
<path d="M69.0377 200.798L57.5377 219.798C57.5377 219.798 54.7877 225.672 42.5377 229.11C30.2877 232.548 21.2877 234.524 21.2877 234.524C21.2877 234.524 20.2877 255.047 9.78766 255.047C-0.712336 255.047 -2.71234 233.797 3.53766 219.047L34.5187 202.547L43.7877 186.298L69.0377 200.798Z" fill="#EF7F7E"/>
<path d="M38.8438 194.965C50.9008 197.798 67.4387 203.44 67.4387 203.44L69.0378 200.798L43.7868 186.298L38.8438 194.965Z" fill="#070000"/>
<path d="M9.78766 255.048C20.2877 255.048 21.2877 234.525 21.2877 234.525C21.2877 234.525 30.2877 232.548 42.5377 229.111C44.1817 228.649 45.6427 228.142 46.9607 227.613L34.5187 202.548L3.53766 219.048C-2.71234 233.798 -0.712336 255.048 9.78766 255.048Z" fill="#7BC9EF"/>
<path d="M31.5197 232.057L19.5697 210.509L3.53766 219.048C-2.71234 233.798 -0.712336 255.048 9.78766 255.048C20.2877 255.048 21.2877 234.525 21.2877 234.525C21.2877 234.525 25.2687 233.649 31.5197 232.057Z" fill="#FBFFFF"/>
<path d="M6.4026 217.522C6.4026 217.522 -1.2114 246.298 9.7886 255.048" stroke="#070000" stroke-miterlimit="10" stroke-linecap="round" stroke-linejoin="round"/>
<path d="M21.2877 234.525L14.0996 231.891C12.5116 231.309 10.7706 232.239 10.3716 233.882C10.0366 235.259 10.7717 236.672 12.0907 237.189L20.4537 240.465" stroke="#070000" stroke-miterlimit="10" stroke-linecap="round" stroke-linejoin="round"/>
<path d="M130.913 168.918L143.412 171.133C143.412 171.133 154.079 173.714 151.454 186.964C148.829 200.214 132.912 225.422 132.912 225.422C132.912 225.422 139.662 243.047 131.912 247.797C124.162 252.547 110.412 229.672 109.537 224.297L118.781 200.797L115.17 200.128L130.913 168.918Z" fill="#EF7F7E"/>
<path d="M116.611 206.316L109.537 224.298C110.412 229.673 124.162 252.548 131.912 247.798C139.662 243.048 132.912 225.423 132.912 225.423C132.912 225.423 135.446 221.408 138.656 215.746L116.611 206.316Z" fill="#FBFFFF"/>
<path d="M118.781 200.798L145.086 203.633L138.656 215.746L116.611 206.316L118.781 200.798Z" fill="#7BC9EF"/>
<path d="M110.736 221.251C110.736 221.251 121.662 242.048 131.912 247.798" stroke="#070000" stroke-miterlimit="10" stroke-linecap="round" stroke-linejoin="round"/>
<path d="M132.913 225.423L125.314 227.211C123.69 227.593 122.748 229.289 123.28 230.87C123.744 232.249 125.178 233.051 126.595 232.726L134.555 230.9" stroke="#070000" stroke-miterlimit="10" stroke-linecap="round" stroke-linejoin="round"/>
<path d="M115.788 166.131L133.882 169.465L118.782 200.798L87.2881 194.965L78.2881 208.798L37.1211 188.465L53.6211 153.298L115.788 166.131Z" fill="#5B6CB1"/>
<path d="M87.2891 194.965L107.448 165.775" stroke="#070000" stroke-miterlimit="10" stroke-linecap="round" stroke-linejoin="round"/>
<path d="M94.3574 184.727C94.3574 184.727 99.4124 185.298 102.099 182.965C104.787 180.632 113.154 166.132 113.154 166.132" stroke="#070000" stroke-miterlimit="10" stroke-linecap="round" stroke-linejoin="round"/>
<path d="M58.6211 170.965C58.6211 170.965 64.9541 172.586 73.1211 165.775" stroke="#070000" stroke-miterlimit="10" stroke-linecap="round" stroke-linejoin="round"/>
<path d="M117.787 141.966C117.787 141.966 122.787 146.799 130.787 136.133C138.787 125.466 141.115 115.153 141.115 115.153L127.458 110.854C127.458 110.854 103.287 133.299 117.787 141.966Z" fill="#070000"/>
<path d="M154.037 65.5305L173.6 65.1855" stroke="#FBFFFF" stroke-miterlimit="10" stroke-linecap="round" stroke-linejoin="round"/>
<path d="M158.037 46.2984C158.037 46.2984 161.037 57.0484 159.537 70.0484C159.537 70.0484 168.457 80.0484 158.997 96.7984C149.537 113.548 121.584 111.874 109.537 109.048C89.2869 104.298 82.7869 87.7984 82.7869 87.7984L74.2869 63.2984C74.2869 63.2984 71.2869 26.5484 104.537 21.7984C137.787 17.0484 152.537 29.7984 158.037 46.2984Z" fill="#EF7F7E"/>
<path d="M85.7877 70.0483C85.7877 70.0483 101.538 60.2983 101.538 41.7983C101.538 41.7983 123.038 53.5483 130.038 48.7983C137.038 44.0483 132.538 41.7983 132.538 41.7983C132.538 41.7983 161.288 58.2983 177.288 46.2983C193.288 34.2983 175.288 25.0483 169.538 25.7983C169.538 25.7983 174.538 22.0483 170.038 15.2983C165.538 8.54833 140.538 11.0483 140.538 11.0483C140.538 11.0483 144.509 3.04833 134.773 0.548331C125.038 -1.95167 102.288 4.04833 91.0377 19.5483C91.0377 19.5483 84.1667 9.95633 74.2877 16.2983C60.7877 24.9653 59.3207 48.9653 74.2877 63.2983L85.7877 70.0483Z" fill="#070000"/>
<path d="M87.7572 69.8025C89.8582 79.0155 85.8462 87.7875 78.7962 89.3955C71.7462 91.0025 64.3292 84.8375 62.2282 75.6235C60.1272 66.4105 64.1392 57.6385 71.1892 56.0305C78.2382 54.4235 85.6562 60.5895 87.7572 69.8025Z" fill="#EF7F7E"/>
<path d="M68.377 67.1733C68.377 67.1733 68.377 64.0433 73.037 64.0483C76.92 64.0523 82.037 72.7133 82.037 77.1733" stroke="#070000" stroke-miterlimit="10" stroke-linecap="round" stroke-linejoin="round"/>
<path d="M74.9917 78.7983C74.9917 78.7983 71.6127 70.0943 79.0747 69.0713" stroke="#070000" stroke-miterlimit="10" stroke-linecap="round" stroke-linejoin="round"/>
<path d="M134.912 67.4233C134.912 67.4233 136.537 73.4283 137.662 75.6133" stroke="#070000" stroke-miterlimit="10" stroke-linecap="round" stroke-linejoin="round"/>
<path d="M124.537 70.0683C124.537 71.5293 123.67 72.7133 122.599 72.7133C121.528 72.7133 120.662 71.5293 120.662 70.0683C120.662 68.6073 121.529 67.4233 122.599 67.4233C123.669 67.4233 124.537 68.6073 124.537 70.0683Z" fill="#070000"/>
<path d="M149.038 73.2563C150.108 73.2563 150.976 72.0721 150.976 70.6113C150.976 69.1505 150.108 67.9663 149.038 67.9663C147.967 67.9663 147.1 69.1505 147.1 70.6113C147.1 72.0721 147.967 73.2563 149.038 73.2563Z" fill="#070000"/>
<path d="M118.037 83.9233C118.037 83.9233 121.287 87.2983 126.787 87.9233C126.787 87.9233 123.287 93.1733 119.287 91.9233C115.287 90.6733 118.037 83.9233 118.037 83.9233Z" fill="#FBFFFF"/>
<path d="M118.037 83.9233C118.037 83.9233 123.12 88.6633 128.954 87.3143" stroke="#070000" stroke-miterlimit="10" stroke-linecap="round" stroke-linejoin="round"/>
<path d="M114.569 87.3145C125.235 87.3145 133.882 76.7372 133.882 63.6895C133.882 50.6417 125.235 40.0645 114.569 40.0645C103.903 40.0645 95.2559 50.6417 95.2559 63.6895C95.2559 76.7372 103.903 87.3145 114.569 87.3145Z" stroke="#FBFFFF" stroke-miterlimit="10" stroke-linecap="round" stroke-linejoin="round"/>
<path d="M156.01 88.8105C165.725 88.8105 173.6 78.2333 173.6 65.1855C173.6 52.1378 165.725 41.5605 156.01 41.5605C146.295 41.5605 138.42 52.1378 138.42 65.1855C138.42 78.2333 146.295 88.8105 156.01 88.8105Z" stroke="#FBFFFF" stroke-miterlimit="10" stroke-linecap="round" stroke-linejoin="round"/>
<path d="M133.803 65.8235C133.803 65.8235 136.868 64.5045 138.422 65.8235" stroke="#FBFFFF" stroke-miterlimit="10" stroke-linecap="round" stroke-linejoin="round"/>
<path d="M134.912 76.4233C134.912 76.4233 141.787 74.1733 143.912 77.1733C146.037 80.1733 140.912 83.2983 139.412 83.1733" fill="#EF7F7E"/>
<path d="M134.912 76.4233C134.912 76.4233 141.787 74.1733 143.912 77.1733C146.037 80.1733 140.912 83.2983 139.412 83.1733" stroke="#070000" stroke-miterlimit="10" stroke-linecap="round" stroke-linejoin="round"/>
<path d="M85.9023 64.6834L95.2563 63.6895" stroke="#FBFFFF" stroke-miterlimit="10" stroke-linecap="round" stroke-linejoin="round"/>
<path d="M82.7871 87.7985L84.9051 85.4185" stroke="#070000" stroke-miterlimit="10" stroke-linecap="round" stroke-linejoin="round"/>
<path d="M117.115 56.0483C117.115 56.0483 120.36 53.6103 123.74 54.4233" stroke="#070000" stroke-miterlimit="10" stroke-linecap="round" stroke-linejoin="round"/>
<path d="M152.35 56.0483C152.35 56.0483 149.663 53.6103 145.725 54.4233" stroke="#070000" stroke-miterlimit="10" stroke-linecap="round" stroke-linejoin="round"/>
<path d="M135.096 113.256L147.789 116.965L163.348 104.465C163.348 104.465 160.789 100.548 161.289 97.5485C161.789 94.5485 164.206 93.4655 165.789 94.2985C165.789 94.2985 168.122 88.0714 171.372 88.8104C174.622 89.5494 174.705 91.4655 174.705 91.4655C174.705 91.4655 178.205 90.9655 179.538 94.1325L180.038 95.7155C180.038 95.7155 181.538 95.8825 181.538 100.382C181.538 100.382 183.205 102.965 182.121 106.715C181.038 110.465 176.954 114.882 176.954 114.882C176.954 114.882 168.537 137.965 153.704 141.549C138.871 145.132 117.787 134.504 117.787 134.504C117.787 134.504 116.805 116.172 135.096 113.256Z" fill="#EF7F7E"/>
<path d="M53.6211 153.298C53.6211 153.298 68.7881 117.298 89.2881 103.798C89.2881 103.798 96.2881 99.2983 108.121 103.798C119.954 108.298 135.095 113.256 135.095 113.256C135.095 113.256 112.85 130.673 117.788 141.965C117.788 141.965 118.621 156.632 115.788 166.132C115.788 166.132 59.2881 164.798 53.6211 153.298Z" fill="#7BC9EF"/>
<path d="M56.1622 146.173L56.1582 137.173C56.3572 137.173 73.6272 137.043 88.2282 129.743L98.4672 134.188C80.8322 146.033 57.1862 146.173 56.1622 146.173Z" fill="#46B17B"/>
<path d="M117.789 141.965L86.4141 129.048" stroke="#070000" stroke-miterlimit="10" stroke-linecap="round" stroke-linejoin="round"/>
</svg>
