<svg width="153" height="118" viewBox="0 0 153 118" fill="none" xmlns="http://www.w3.org/2000/svg">
<path d="M1.55439 37.5268L54.338 107.406C54.338 107.406 61.8027 120.12 78.4235 116.352C91.8837 113.302 134.971 96.9814 150.876 90.8835C153.39 89.9195 153.758 86.5235 151.519 85.0303L142.221 78.8315L140.891 71.0755L148.562 68.2979C150.998 67.4163 151.719 64.3169 149.921 62.4513L91.8744 2.18704C90.1831 0.430552 87.7125 -0.340652 85.3231 0.140686L11.4723 15.0076C11.4723 15.0076 -5.03808 19.4899 1.55439 37.5268Z" fill="#46B17B"/>
<path d="M140.892 71.0757L75.2959 89.4742C75.2959 89.4742 63.9937 93.2358 64.4365 102.321C64.8793 111.407 75.0738 111.407 79.9497 110.077C84.8256 108.748 143.331 86.5862 143.331 86.5862L140.892 71.0757Z" fill="#FBFFFF"/>
<path d="M11.9141 18.5542L72.197 90.8945" stroke="#070000" stroke-miterlimit="10" stroke-linecap="round" stroke-linejoin="round"/>
<path d="M113.637 22.2225L99.5288 26.9415C96.7658 27.8656 95.9667 31.3892 98.0582 33.4156L99.0116 34.3384C102.681 37.8939 108.036 39.0879 112.868 37.4298L128.482 32.0713L119.135 23.4072C117.657 22.0377 115.549 21.5829 113.637 22.2225Z" fill="#C1D57E"/>
<path d="M122.604 34.0897L128.483 32.0713V40.1929L122.604 34.0897Z" fill="#070000"/>
<path d="M113.33 30.7839C113.33 32.5962 111.079 34.0669 108.303 34.0669C105.527 34.0669 103.275 32.5976 103.275 30.7839C103.275 28.9716 105.527 27.501 108.303 27.501C111.079 27.501 113.33 28.9703 113.33 30.7839Z" stroke="#070000" stroke-miterlimit="10" stroke-linecap="round" stroke-linejoin="round"/>
<path d="M79.5059 95.2302L141.668 75.6177" stroke="#070000" stroke-miterlimit="10" stroke-linecap="round" stroke-linejoin="round"/>
<path d="M99.4512 95.2302L143.33 81.9336" stroke="#070000" stroke-miterlimit="10" stroke-linecap="round" stroke-linejoin="round"/>
</svg>
