<svg width="457" height="416" viewBox="0 0 457 416" fill="none" xmlns="http://www.w3.org/2000/svg">
<path opacity="0.5" d="M25.1531 26.6978C18.8114 26.5652 7.64049 36.8984 4.25668 41.6412C-0.156633 47.8273 -0.380614 53.1626 0.275256 60.0698C1.19127 69.705 2.28304 72.5324 12.7971 75.2623C21.1054 77.4198 26.1987 84.1633 34.4468 85.9581C46.0526 88.4842 57.9617 82.6175 69.0422 80.4852C81.4214 78.1018 84.1815 85.9802 94.808 88.435C105.096 90.8114 117.139 85.5222 128.001 86.5789C139.026 87.6506 147.246 93.919 157.693 94.7115C166.932 95.4125 173.831 94.3398 180.411 101.486C188.029 109.759 179.33 115.153 171.442 119.721C151.625 131.197 131.545 144.738 109.941 152.588C99.7586 156.288 89.0005 156.583 78.7537 159.686C68.6394 162.749 60.7379 171.238 51.7686 176.661C42.024 182.553 29.7683 183.998 20.5661 190.306C10.8907 196.938 5.40872 209.099 3.37583 220.241C1.02353 233.131 2.5924 242.61 11.4391 252.414C20.1141 262.028 18.8064 270.538 22.2645 282.503C25.0959 292.3 30.8661 301.854 40.2572 306.55C52.2768 312.56 59.4201 305.446 70.9837 305.121C82.5533 304.797 91.0344 319.723 115.387 316.39L153.293 259.149L142.36 250.693C135.319 241.765 148.756 229.558 148.416 218.903C147.962 204.733 140.106 205.176 131.106 197.787C110.417 180.801 138.927 160.674 152.414 152.785C171.44 141.654 195.28 143.69 213.748 130.22C220.553 125.256 229.049 116.012 229.101 107.001C229.176 93.7603 218.882 92.7469 208.928 92.5249C202.612 92.3843 198.492 91.5597 193.79 87.288C192.422 86.0445 191.32 83.9192 189.714 82.8566C186.52 80.7433 184.196 82.3745 181.159 80.897C177.646 79.1885 177.401 75.5205 175.129 72.6891C170.985 67.5245 167.633 68.4194 161.741 67.5084C150.952 65.8401 149.091 54.3609 137.104 53.3344C123.954 52.2084 114.919 59.6651 103.03 62.9354C90.1415 66.4809 75.9615 58.7491 62.5307 60.4435C50.5232 61.9591 38.0014 72.1115 26.2218 66.0269C16.8478 61.1847 5.30628 61.2631 8.18086 47.6465C9.29373 42.3744 12.6002 37.3635 16.5947 33.8049C19.0253 31.6374 24.2502 30.1107 25.1531 26.6978Z" fill="#FBFFFF"/>
<path d="M110.822 254.442L113.983 255.293L110.822 256.144C108.48 256.775 106.715 258.7 106.288 261.087L105.102 267.731L103.915 261.087C103.49 258.7 101.723 256.774 99.3815 256.144L96.2207 255.293L99.3815 254.442C101.723 253.811 103.49 251.886 103.915 249.499L105.102 242.855L106.288 249.499C106.715 251.886 108.48 253.811 110.822 254.442Z" fill="#FBFFFF"/>
<path d="M153.717 122.932L156.878 123.784L153.717 124.634C151.376 125.265 149.609 127.191 149.183 129.577L147.997 136.221L146.811 129.577C146.385 127.191 144.618 125.264 142.277 124.634L139.115 123.784L142.277 122.932C144.618 122.301 146.384 120.376 146.811 117.989L147.997 111.345L149.183 117.989C149.61 120.375 151.376 122.301 153.717 122.932Z" fill="#FBFFFF"/>
<path d="M112.839 76.7005L116 77.5522L112.839 78.4029C110.498 79.0337 108.731 80.9591 108.305 83.3456L107.119 89.9896L105.933 83.3456C105.507 80.9591 103.74 79.0327 101.399 78.4029L98.2383 77.5522L101.399 76.7005C103.74 76.0697 105.507 74.1443 105.933 71.7578L107.119 65.1138L108.305 71.7578C108.731 74.1443 110.498 76.0697 112.839 76.7005Z" fill="#FBFFFF"/>
<path d="M249.364 91.6398L251.831 92.3047L249.364 92.9686C247.536 93.4608 246.158 94.9644 245.825 96.8275L244.899 102.013L243.973 96.8275C243.641 94.9644 242.262 93.4608 240.435 92.9686L237.967 92.3047L240.435 91.6398C242.262 91.1476 243.641 89.6441 243.973 87.7809L244.899 82.5952L245.825 87.7809C246.157 89.6441 247.536 91.1476 249.364 91.6398Z" fill="#FBFFFF"/>
<path d="M19.8188 215.961L22.2866 216.625L19.8188 217.29C17.9918 217.782 16.6127 219.286 16.2803 221.149L15.3542 226.334L14.4282 221.149C14.0957 219.286 12.7167 217.782 10.8897 217.29L8.42188 216.625L10.8897 215.961C12.7167 215.469 14.0957 213.965 14.4282 212.102L15.3542 206.917L16.2803 212.102C16.6127 213.965 17.9918 215.469 19.8188 215.961Z" fill="#FBFFFF"/>
<path d="M131.206 47.3139C131.206 48.475 130.265 49.4161 129.104 49.4161C127.943 49.4161 127.002 48.475 127.002 47.3139C127.002 46.1528 127.943 45.2117 129.104 45.2117C130.265 45.2127 131.206 46.1528 131.206 47.3139Z" fill="#FBFFFF"/>
<path d="M121.21 65.1137C121.21 66.2748 120.269 67.2159 119.108 67.2159C117.947 67.2159 117.006 66.2748 117.006 65.1137C117.006 63.9526 117.947 63.0115 119.108 63.0115C120.269 63.0115 121.21 63.9526 121.21 65.1137Z" fill="#FDCE64"/>
<path d="M76.3077 63.8182C77.1259 63.8182 77.7891 63.1549 77.7891 62.3367C77.7891 61.5185 77.1259 60.8552 76.3077 60.8552C75.4895 60.8552 74.8262 61.5185 74.8262 62.3367C74.8262 63.1549 75.4895 63.8182 76.3077 63.8182Z" fill="#FDCE64"/>
<path d="M52.5899 65.1141C52.5899 65.9316 51.927 66.5955 51.1084 66.5955C50.2909 66.5955 49.627 65.9326 49.627 65.1141C49.627 64.2965 50.2899 63.6326 51.1084 63.6326C51.927 63.6326 52.5899 64.2965 52.5899 65.1141Z" fill="#FBFFFF"/>
<path d="M91.6259 53.2156C92.6748 53.2156 93.5252 52.3653 93.5252 51.3163C93.5252 50.2673 92.6748 49.417 91.6259 49.417C90.5769 49.417 89.7266 50.2673 89.7266 51.3163C89.7266 52.3653 90.5769 53.2156 91.6259 53.2156Z" fill="#FBFFFF"/>
<path d="M164.576 53.2158H159.727V58.065H164.576V53.2158Z" fill="#FDCE64"/>
<path d="M93.2346 81.0757H87.6602V86.6501H93.2346V81.0757Z" fill="#7BC9EF"/>
<path d="M185.604 81.4204H180.029V86.9948H185.604V81.4204Z" fill="#EF7F7E"/>
<path d="M46.0864 215.256C47.1847 215.256 48.0751 214.366 48.0751 213.267C48.0751 212.169 47.1847 211.279 46.0864 211.279C44.988 211.279 44.0977 212.169 44.0977 213.267C44.0977 214.366 44.988 215.256 46.0864 215.256Z" fill="#FDCE64"/>
<path d="M144.303 221.727C144.303 222.802 143.432 223.673 142.358 223.673C141.283 223.673 140.412 222.802 140.412 221.727C140.412 220.652 141.283 219.781 142.358 219.781C143.432 219.781 144.303 220.652 144.303 221.727Z" fill="#FDCE64"/>
<path d="M83.4468 261.497C83.4468 263.4 81.9041 264.943 80.0008 264.943C78.0974 264.943 76.5547 263.4 76.5547 261.497C76.5547 259.594 78.0974 258.051 80.0008 258.051C81.9041 258.051 83.4468 259.595 83.4468 261.497Z" fill="#FDCE64"/>
<path d="M102.022 281.611C102.022 282.879 100.994 283.907 99.7267 283.907C98.4591 283.907 97.4316 282.879 97.4316 281.611C97.4316 280.344 98.4591 279.316 99.7267 279.316C100.994 279.316 102.022 280.344 102.022 281.611Z" fill="#FBFFFF"/>
<path d="M32.6185 196.657C32.6185 197.741 31.7397 198.62 30.6559 198.62C29.5722 198.62 28.6934 197.741 28.6934 196.657C28.6934 195.574 29.5722 194.695 30.6559 194.695C31.7397 194.696 32.6185 195.574 32.6185 196.657Z" fill="#FBFFFF"/>
<path d="M141.118 144.717C142.223 144.717 143.119 143.822 143.119 142.717C143.119 141.612 142.223 140.716 141.118 140.716C140.013 140.716 139.117 141.612 139.117 142.717C139.117 143.822 140.013 144.717 141.118 144.717Z" fill="#FBFFFF"/>
<path d="M223.121 112.742C223.121 113.984 222.114 114.99 220.873 114.99C219.631 114.99 218.625 113.984 218.625 112.742C218.625 111.501 219.631 110.494 220.873 110.494C222.114 110.494 223.121 111.501 223.121 112.742Z" fill="#FDCE64"/>
<path d="M202.08 113.866C202.08 114.487 201.577 114.99 200.956 114.99C200.335 114.99 199.832 114.487 199.832 113.866C199.832 113.245 200.335 112.742 200.956 112.742C201.577 112.742 202.08 113.245 202.08 113.866Z" fill="#FBFFFF"/>
<path d="M204.221 80.7503C204.221 81.6523 203.49 82.3835 202.588 82.3835C201.686 82.3835 200.955 81.6523 200.955 80.7503C200.955 79.8484 201.686 79.1172 202.588 79.1172C203.49 79.1172 204.221 79.8484 204.221 80.7503Z" fill="#FBFFFF"/>
<path d="M141.553 160.72L155.375 134.523C155.375 134.523 157.709 129.521 163.156 130.521C168.603 131.522 183.054 137.747 183.054 137.747C183.054 137.747 186.834 140.971 186.055 144.417C185.412 147.264 173.841 168.934 169.839 176.377C168.327 179.19 165.099 180.66 162.005 179.862C161.588 179.755 161.156 179.614 160.71 179.433C157.12 177.98 147.677 172.121 143.508 169.493C141.689 168.347 140.567 166.334 140.647 164.186C140.687 163.133 140.93 161.947 141.553 160.72Z" fill="#7BC9EF"/>
<path d="M183.053 137.747L165.625 172.843C164.421 175.269 161.418 176.176 159.072 174.821L144.127 166.194C142.135 165.044 141.303 162.598 142.183 160.472" stroke="#FBFFFF" stroke-width="2" stroke-miterlimit="10" stroke-linecap="round" stroke-linejoin="round"/>
<path d="M158.264 135.968L153.262 145.639L170.381 152.42L176.161 142.415L158.264 135.968Z" fill="#C1D57E"/>
<path d="M154.687 152.158C154.596 153.521 153.417 154.551 152.054 154.46C150.691 154.369 149.66 153.189 149.752 151.827C149.843 150.464 151.022 149.433 152.385 149.524C153.749 149.616 154.78 150.795 154.687 152.158Z" fill="#FBFFFF"/>
<path d="M161.076 155.067C160.985 156.43 159.805 157.46 158.442 157.369C157.08 157.277 156.049 156.098 156.14 154.735C156.232 153.372 157.411 152.342 158.774 152.433C160.138 152.525 161.168 153.704 161.076 155.067Z" fill="#FBFFFF"/>
<path d="M167.654 158.315C167.563 159.678 166.384 160.708 165.021 160.617C163.658 160.525 162.627 159.346 162.719 157.983C162.81 156.62 163.989 155.59 165.352 155.681C166.716 155.773 167.747 156.952 167.654 158.315Z" fill="#FBFFFF"/>
<path d="M150.678 158.717C150.586 160.08 149.407 161.11 148.044 161.019C146.681 160.927 145.651 159.748 145.742 158.385C145.833 157.022 147.013 155.992 148.375 156.083C149.739 156.174 150.77 157.354 150.678 158.717Z" fill="#FBFFFF"/>
<path d="M157.068 161.625C156.977 162.988 155.798 164.019 154.435 163.928C153.072 163.836 152.041 162.657 152.133 161.294C152.224 159.931 153.403 158.901 154.766 158.992C156.129 159.083 157.16 160.263 157.068 161.625Z" fill="#FBFFFF"/>
<path d="M163.644 164.874C163.553 166.236 162.374 167.267 161.011 167.176C159.648 167.084 158.617 165.905 158.709 164.542C158.8 163.179 159.979 162.149 161.342 162.24C162.705 162.331 163.736 163.511 163.644 164.874Z" fill="#EF7F7E"/>
<path d="M46.535 205.392C44.006 207.098 43.5419 210.635 45.5447 212.936L71.9101 243.232C73.5 245.059 76.1587 245.512 78.2609 244.307C85.7145 240.039 102.733 230.684 109.584 230.17C109.584 230.17 118.477 231.707 122.034 224.602C122.034 224.602 132.961 213.161 148.563 208.896C150.835 208.275 151.611 205.448 149.959 203.767L119.997 173.279C117.901 171.148 114.665 170.622 112.004 171.981L46.535 205.392Z" fill="#6D86CC"/>
<path d="M46.535 205.392C44.006 207.098 43.5419 210.635 45.5447 212.936L71.9101 243.232C73.5 245.059 76.1587 245.512 78.2609 244.307C85.7145 240.039 102.733 230.684 109.584 230.17C109.584 230.17 118.477 231.707 122.034 224.602C122.034 224.602 132.961 213.161 148.563 208.896C150.835 208.275 151.611 205.448 149.959 203.767L119.997 173.279C117.901 171.148 114.665 170.622 112.004 171.981L46.535 205.392Z" stroke="#070000" stroke-width="2" stroke-miterlimit="10" stroke-linecap="round" stroke-linejoin="round"/>
<path d="M52.4563 188.595L44.9414 181.036C44.9414 181.036 50.2225 175.033 57.7816 175.256L63.5619 181.923L52.4563 188.595Z" fill="#46B17B"/>
<path d="M41.7754 194.82C41.7754 194.82 48.2969 183.259 58.5237 180.294C68.7504 177.33 78.0883 178.96 78.0883 178.96C78.0883 178.96 91.3293 156.243 115.439 161.311L146.696 193.486L146.735 204.454C146.735 204.454 130.038 207.77 118.699 219.538L109.806 223.722C109.806 223.722 93.8101 223.722 76.4351 240.619L47.1097 207.77L41.7754 194.82Z" fill="#F8B193"/>
<path d="M78.0879 178.961L111.288 211.724" stroke="#EF7F7E" stroke-width="2" stroke-miterlimit="10" stroke-linecap="round" stroke-linejoin="round"/>
<path d="M76.4351 240.62C93.8091 223.723 109.806 223.723 109.806 223.723L118.699 219.538C130.038 207.771 146.735 204.454 146.735 204.454L146.696 193.486C127.781 195.265 111.289 214.051 111.289 214.051C93.6504 210.605 72.9006 227.502 72.9006 227.502L41.7754 194.82L47.1107 207.771L76.4351 240.62Z" fill="#EF7F7E"/>
<path d="M72.9004 227.502L76.4359 240.619" stroke="#F8B193" stroke-width="2" stroke-miterlimit="10" stroke-linecap="round" stroke-linejoin="round"/>
<path d="M78.0879 230.17C78.0879 230.17 94.6885 216.244 112.696 219.539" stroke="#F8B193" stroke-width="2" stroke-miterlimit="10" stroke-linecap="round" stroke-linejoin="round"/>
<path d="M118.256 214.052C118.256 214.052 129.862 201.046 146.735 198.489" stroke="#F8B193" stroke-width="2" stroke-miterlimit="10" stroke-linecap="round" stroke-linejoin="round"/>
<path d="M44.9414 202.509L74.6675 234.061" stroke="#F8B193" stroke-width="2" stroke-miterlimit="10" stroke-linecap="round" stroke-linejoin="round"/>
<path d="M62.8809 209.577L72.2338 219.538L83.1275 214.052L73.0042 204.111L62.8809 209.577Z" fill="#46B17B"/>
<path d="M49 192.709C49 192.709 58.2264 182.431 74.6673 182.482" stroke="#EF7F7E" stroke-width="2" stroke-miterlimit="10" stroke-linecap="round" stroke-linejoin="round"/>
<path d="M69.0898 190.829C72.0578 189.896 75.3352 189.209 78.7923 189.041" stroke="#EF7F7E" stroke-width="2" stroke-miterlimit="10" stroke-linecap="round" stroke-linejoin="round"/>
<path d="M54.252 198.489C54.252 198.489 57.4047 195.941 62.4508 193.486" stroke="#EF7F7E" stroke-width="2" stroke-miterlimit="10" stroke-linecap="round" stroke-linejoin="round"/>
<path d="M58.7832 204.111C58.7832 204.111 62.8811 200.596 70.4553 198.488" stroke="#EF7F7E" stroke-width="2" stroke-miterlimit="10" stroke-linecap="round" stroke-linejoin="round"/>
<path d="M80.9043 202.508L91.353 199.156" stroke="#EF7F7E" stroke-width="2" stroke-miterlimit="10" stroke-linecap="round" stroke-linejoin="round"/>
<path d="M83.8047 206.27L94.2544 202.918" stroke="#EF7F7E" stroke-width="2" stroke-miterlimit="10" stroke-linecap="round" stroke-linejoin="round"/>
<path d="M87.1211 210.684L97.5698 207.332" stroke="#EF7F7E" stroke-width="2" stroke-miterlimit="10" stroke-linecap="round" stroke-linejoin="round"/>
<path d="M100.914 187.594C100.914 187.594 111.364 177.701 123.146 176.144" stroke="#EF7F7E" stroke-width="2" stroke-miterlimit="10" stroke-linecap="round" stroke-linejoin="round"/>
<path d="M103.582 195.342C103.582 195.342 117.588 182.236 129.372 180.68" stroke="#EF7F7E" stroke-width="2" stroke-miterlimit="10" stroke-linecap="round" stroke-linejoin="round"/>
<path d="M99.8027 168.363C99.8027 168.363 107.064 164.831 112.697 164.56" stroke="#EF7F7E" stroke-width="2" stroke-miterlimit="10" stroke-linecap="round" stroke-linejoin="round"/>
<path d="M103.582 173.134C103.582 173.134 110.843 169.602 116.476 169.33" stroke="#EF7F7E" stroke-width="2" stroke-miterlimit="10" stroke-linecap="round" stroke-linejoin="round"/>
<path d="M86.1289 177.457L94.2555 184.593L102.47 178.961L94.2555 170.365L86.1289 177.457Z" fill="#7BC9EF"/>
<path d="M77.9512 148.743L86.7326 116.728C86.7326 116.728 89.7337 113.393 95.2921 114.727C100.85 116.061 100.072 121.619 100.072 121.619L92.9578 154.079L83.175 161.083L77.9512 148.743Z" fill="#FDCE64"/>
<path d="M95.2936 114.727C89.7353 113.393 86.7342 116.728 86.7342 116.728L83.7109 127.748C89.0312 126.843 92.9594 127.621 97.9834 131.152L100.073 121.618C100.073 121.618 100.852 116.061 95.2936 114.727Z" fill="#EF7F7E"/>
<path d="M97.9834 131.152L99.035 126.356C93.2889 122.953 88.0318 122.817 84.9664 123.17L83.7109 127.748C89.0312 126.843 92.9594 127.621 97.9834 131.152Z" fill="#FBFFFF"/>
<path d="M77.9512 148.743L82.6206 147.409L89.5128 148.743L92.9589 154.078L83.176 161.082L77.9512 148.743Z" fill="#F8B193"/>
<path d="M80.8281 155.535L83.1764 161.082L88.0537 157.591C85.6683 153.962 82.63 154.64 80.8281 155.535Z" fill="#070000"/>
<path d="M82.6211 147.409L87.2875 127.406" stroke="#EF7F7E" stroke-width="2" stroke-miterlimit="10" stroke-linecap="round" stroke-linejoin="round"/>
<path d="M89.5137 148.743L94.1289 128.888" stroke="#EF7F7E" stroke-width="2" stroke-miterlimit="10" stroke-linecap="round" stroke-linejoin="round"/>
<path d="M196.546 93.4961L209.774 96.9602L209.218 105.331L190.351 114.173C190.351 114.173 178.599 115.407 177.29 109.954C175.981 104.501 178.426 102.611 178.426 102.611L196.546 93.4961Z" fill="#FBFFFF"/>
<path d="M184.645 99.4843L197.649 103.713L198.166 110.512L209.22 105.331L209.776 96.9613L196.547 93.4961L184.645 99.4843Z" fill="#EF7F7E"/>
<path d="M178.426 102.612C178.426 102.612 177.203 106.947 184.429 107.726C191.655 108.504 209.774 96.9614 209.774 96.9614" stroke="#070000" stroke-width="2" stroke-miterlimit="10" stroke-linecap="round" stroke-linejoin="round"/>
<path d="M149.751 76.5882L118.737 70.7958C117.694 70.601 116.714 71.3573 116.637 72.4159L114.015 108.572C113.899 110.171 115.791 111.095 116.981 110.021L150.617 79.6576C151.709 78.6703 151.199 76.8583 149.751 76.5882ZM122.39 91.4261L123.156 80.8709C123.232 79.8123 124.213 79.056 125.256 79.2508L134.31 80.9422C135.757 81.2124 136.268 83.0243 135.174 84.0106L125.354 92.8754C124.166 93.9491 122.275 93.0251 122.39 91.4261Z" fill="#FDCE64"/>
<path d="M118.213 103.527L120.705 106.658" stroke="#070000" stroke-width="2" stroke-miterlimit="10" stroke-linecap="round" stroke-linejoin="round"/>
<path d="M122.332 99.5608L124.824 102.692" stroke="#070000" stroke-width="2" stroke-miterlimit="10" stroke-linecap="round" stroke-linejoin="round"/>
<path d="M127.418 95.4729L129.91 98.6036" stroke="#070000" stroke-width="2" stroke-miterlimit="10" stroke-linecap="round" stroke-linejoin="round"/>
<path d="M131.877 91.4644L134.369 94.5951" stroke="#070000" stroke-width="2" stroke-miterlimit="10" stroke-linecap="round" stroke-linejoin="round"/>
<path d="M137.113 86.3743L139.605 89.505" stroke="#070000" stroke-width="2" stroke-miterlimit="10" stroke-linecap="round" stroke-linejoin="round"/>
<path d="M141.529 81.8542L144.021 84.9859" stroke="#070000" stroke-width="2" stroke-miterlimit="10" stroke-linecap="round" stroke-linejoin="round"/>
<path d="M191.859 35.8208L164.631 63.9238L201.864 67.1107L203.423 60.0378L219.136 56.9493L205.968 47.7319L199.764 49.9386L201.97 44.5882L191.859 35.8208Z" fill="#7BC9EF"/>
<path d="M164.631 63.9238L199.764 49.9386L201.97 44.5881L164.631 63.9238Z" fill="#070000"/>
<path d="M203.423 60.0378L164.631 63.9238L201.864 67.1108L203.423 60.0378Z" fill="#EF7F7E"/>
<path d="M43.4163 136.132C32.5618 130.159 18.3677 139.739 18.3677 139.739C18.3677 139.739 11.2536 144.284 9.4748 152.312C8.24843 157.845 13.4763 161.328 17.6265 160.489C21.7766 159.648 26.0744 162.07 22.5179 166.858C18.9603 171.644 21.3317 187.712 36.0059 179.975C50.6791 172.237 54.2719 142.104 43.4163 136.132ZM20.1465 155.105C17.6908 155.105 15.7 153.313 15.7 151.104C15.7 148.894 17.6908 147.102 20.1465 147.102C22.6022 147.102 24.593 148.894 24.593 151.104C24.593 153.313 22.6022 155.105 20.1465 155.105Z" fill="#FBFFFF"/>
<path d="M34.5237 138.503C33.5635 140.43 31.4633 138.76 29.8422 139.18C28.2784 139.586 27.6336 141.177 27.4548 142.661C27.2509 144.352 28.0625 145.362 29.6414 145.842C30.3203 146.047 30.696 146.224 30.8908 146.985C31.1078 147.828 30.935 148.691 31.2514 149.535C31.8621 151.165 33.901 151.733 35.4538 152.038C36.9875 152.339 39.1982 152.397 40.4446 151.26C41.7885 150.034 41.3978 148.081 41.0091 146.565C40.8072 145.778 40.7309 144.988 41.0684 144.225C41.4591 143.341 42.131 142.668 42.2184 141.656C42.3922 139.641 40.5149 138.241 38.8928 137.481C37.6574 136.902 33.7292 135.94 34.5237 138.503Z" fill="#EF7F7E"/>
<path d="M29.508 148.285C29.508 149.186 28.6231 149.916 27.5313 149.916C26.4396 149.916 25.5547 149.185 25.5547 148.285C25.5547 147.385 26.4396 146.655 27.5313 146.655C28.6231 146.655 29.508 147.385 29.508 148.285Z" fill="#EF7F7E"/>
<path d="M37.4137 155.993C37.4046 156.029 35.893 155.755 35.6731 155.759C34.7731 155.776 34.28 156.239 33.7024 156.866C33.1661 157.447 32.7774 157.679 31.9819 157.786C31.1915 157.892 30.3448 157.736 29.5794 157.99C27.9854 158.518 27.3245 160.859 27.4119 162.353C27.5113 164.06 28.2898 165.396 29.8144 166.138C30.4171 166.431 31.1081 166.674 31.5058 167.246C31.9377 167.869 32.008 168.611 32.6277 169.121C33.838 170.114 35.9021 170.578 37.4227 170.384C39.2065 170.157 40.4891 169.401 41.593 168.001C42.5381 166.803 43.0504 164.82 42.5783 163.329C42.3031 162.458 41.602 161.838 41.1189 161.083C40.5675 160.222 40.6036 159.467 40.4369 158.509C40.1918 157.094 38.853 155.854 37.4137 155.993Z" fill="#FDCE64"/>
<path d="M31.6326 171.783C31.6326 173.131 30.7428 175.261 29.1869 175.261C27.6321 175.261 26 173.131 26 171.783C26 170.435 27.2605 169.342 28.8163 169.342C30.3721 169.342 31.6326 170.435 31.6326 171.783Z" fill="#FDCE64"/>
<path d="M35.8874 262.729C35.8874 262.729 29.6059 257.804 32.2073 249.408C34.8087 241.013 47.4088 218.184 54.8162 221.976C62.2236 225.768 51.8673 256.958 51.8673 256.958C51.8673 256.958 48.9586 266.835 40.7979 264.816L35.8874 262.729Z" fill="#94533F"/>
<path d="M43.7541 228.386C42.0265 230.555 40.3472 233.052 38.8145 235.604C41.5434 235.415 49.5836 235.535 55.7988 242.429C56.4215 239.539 56.9518 236.538 57.2441 233.739C54.9009 231.817 50.2405 228.794 43.7541 228.386Z" fill="#FDCE64"/>
<path d="M33.0309 259.139C33.0309 259.139 36.49 255.737 40.1631 257.46C43.8362 259.181 46.1935 261.553 45.7375 264.54L40.822 272.717L31 268.543L33.0309 259.139Z" fill="#FDCE64"/>
<path d="M39.2912 268.363C39.2912 268.363 33.2448 264.022 27.8632 267.21C22.4817 270.399 23.0963 280.323 17.0469 281.295C17.0469 281.295 24.9766 295.984 37.2453 286.819C49.751 277.477 39.2912 268.363 39.2912 268.363Z" fill="#070000"/>
<path d="M24.5449 289.795C24.5449 289.795 28.2994 289.297 30.0832 286.995" stroke="#FBFFFF" stroke-width="2" stroke-miterlimit="10" stroke-linecap="round" stroke-linejoin="round"/>
<path d="M33.8223 289.945C33.8223 289.945 37.4793 287.402 38.9286 283.992" stroke="#FBFFFF" stroke-width="2" stroke-miterlimit="10" stroke-linecap="round" stroke-linejoin="round"/>
<path d="M310.928 283.427C310.928 283.427 319.176 280.897 321.501 271.264L317.817 269.143C317.817 269.143 318.158 276.636 307.902 276.108L310.928 283.427Z" fill="#070000"/>
<path d="M426.542 369.436L451.516 367.979C451.516 367.979 455.095 368.044 456.482 372.771C457.87 377.499 455.224 380.188 451.906 381.251C448.588 382.313 428.072 387.344 428.072 387.344C428.072 387.344 423.818 385.779 421.806 379.66C419.016 371.172 426.542 369.436 426.542 369.436Z" fill="#070000"/>
<path d="M172.899 265.258C191.661 281.2 257.584 329.328 376.296 336.044C376.296 336.044 416.573 367.728 426.541 369.436C426.541 369.436 421.491 376.837 428.073 387.344C428.073 387.344 388.72 409.342 368.52 415.34C368.52 415.34 245.872 422.456 135.915 345.817C132.108 343.164 128.894 339.75 126.504 335.774C120.213 325.311 110.712 303.705 121.806 281.296C130.25 264.241 142.989 259.493 152.834 258.703C160.117 258.119 167.331 260.527 172.899 265.258Z" fill="#FDCE64"/>
<path d="M227.252 299.556C227.252 299.556 239.411 325.384 261.15 331.288L263.29 314.4C249.828 309.716 237.823 304.649 227.252 299.556Z" fill="#070000"/>
<path d="M183.99 304.7C183.99 304.7 272.644 353.875 369.02 358.509" stroke="#070000" stroke-width="2" stroke-miterlimit="10" stroke-linecap="round" stroke-linejoin="round"/>
<path d="M171.771 343.074C171.771 343.074 288.238 402.242 368.522 393.07" stroke="#070000" stroke-width="2" stroke-miterlimit="10" stroke-linecap="round" stroke-linejoin="round"/>
<path d="M172.899 265.258C167.331 260.527 160.117 258.119 152.834 258.702C142.989 259.492 130.25 264.24 121.806 281.295C110.712 303.704 120.213 325.31 126.504 335.773C128.894 339.749 132.108 343.163 135.915 345.816C148.805 354.8 161.87 362.62 174.892 369.449C172.376 359.081 168.134 334.69 177.776 315.38C185.25 300.412 194.801 290.819 201.33 285.493C187.785 277.236 178.349 269.888 172.899 265.258Z" fill="#EF7F7E"/>
<path d="M201.328 285.494C192.151 279.899 184.866 274.725 179.424 270.528C170.344 277.903 157.484 290.708 152.169 307.361C146.154 326.209 149.669 346.217 152.341 356.589C159.845 361.224 167.374 365.509 174.891 369.45C172.375 359.082 168.133 334.691 177.775 315.381C185.249 300.413 194.8 290.819 201.328 285.494Z" fill="#FBFFFF"/>
<path d="M426.542 369.436C416.574 367.727 376.297 336.044 376.297 336.044C360.108 342.452 369.02 358.509 369.02 358.509C369.02 358.509 361.257 360.301 360.4 372.376C359.542 384.452 368.522 393.069 368.522 393.069C360.367 405.344 368.521 415.34 368.521 415.34C388.721 409.341 428.074 387.344 428.074 387.344C421.491 376.837 426.542 369.436 426.542 369.436Z" fill="#F8B193"/>
<path d="M278.102 224.165C278.102 224.165 272.008 209.338 252.668 213.356C225.471 219.006 194.96 251.838 214.348 256.718C214.348 256.718 206.034 279.56 217.746 295.57C217.746 295.57 221.146 299.69 225.407 299.82C229.669 299.951 246.284 299.572 246.284 299.572L278.102 224.165Z" fill="#46B17B"/>
<path d="M295.069 331.478C295.069 331.478 293.567 342.982 278.413 348.09C263.26 353.197 257.432 347.884 257.432 347.884C257.432 347.884 260.55 336.948 273.191 332.533C285.831 328.116 295.069 331.478 295.069 331.478Z" fill="#070000"/>
<path d="M283.26 328.561C283.26 328.561 293.681 344.121 293.365 355.626C293.051 367.131 274.964 369.82 266.648 364.019C258.331 358.218 246.707 347.092 246.707 347.092C246.707 347.092 235.332 345.412 230.301 336.477C225.27 327.541 249.072 325.167 254.092 326.978C259.112 328.789 261.149 331.288 261.149 331.288L283.26 328.561Z" fill="#94533F"/>
<path d="M254.092 326.977C249.071 325.166 225.27 327.541 230.301 336.476C235.333 345.411 246.707 347.091 246.707 347.091C246.707 347.091 247.882 348.215 249.749 349.933C252.091 349.79 255.411 349.164 259.572 347.267L253.313 337.119C253.313 337.119 259.112 328.788 254.092 326.977Z" fill="#6D86CC"/>
<path d="M239.107 338.601C245.787 339.026 256.233 337.247 261.857 333.811C261.672 333.001 261.452 332.168 261.15 331.287C261.15 331.287 259.112 328.788 254.092 326.977C249.191 325.209 226.406 327.434 230.007 335.854C231.517 337.114 234.227 338.292 239.107 338.601Z" fill="#070000"/>
<path d="M256.65 342.57L265.857 357.371" stroke="#070000" stroke-width="2" stroke-miterlimit="10" stroke-linecap="round" stroke-linejoin="round"/>
<path d="M240.82 304.875C240.82 304.875 242.999 321.372 251.141 336.715L257.431 347.884C257.431 347.884 275.919 332.779 295.069 331.478L290.452 322.7C290.452 322.7 310.715 328.35 327.404 330.64L312.524 304.734L242.594 292.067L240.82 304.875Z" fill="#FBFFFF"/>
<path d="M327.404 330.641L312.523 304.734" stroke="#070000" stroke-width="2" stroke-miterlimit="10" stroke-linecap="round" stroke-linejoin="round"/>
<path d="M257.054 233.501C257.054 233.501 245.69 241.023 244.356 259.37L239.305 304.074C239.305 304.074 271.797 321.976 295.12 318.982C295.12 318.982 311.811 316.851 317.217 307.14L311.291 273.097C311.291 273.097 329.161 273.651 348.841 268.218L338.567 232.674C338.567 232.674 315.796 236.647 300.383 234.191C300.383 234.191 271.833 221.133 257.054 233.501Z" fill="#7BC9EF"/>
<path d="M282.677 283.839C285.06 286.864 281.096 293.961 273.823 299.69C266.551 305.419 258.723 307.611 256.341 304.587C253.958 301.563 257.922 294.466 265.195 288.737C272.467 283.008 280.294 280.815 282.677 283.839Z" fill="#070000"/>
<path d="M349.558 247.756C352.545 257.072 351.924 267.231 348.842 268.219C345.761 269.207 341.386 260.65 338.399 251.334C335.412 242.017 335.487 233.665 338.569 232.677C341.65 231.687 346.57 238.439 349.558 247.756Z" fill="#070000"/>
<path d="M387.017 209.432C390.136 205.577 391.998 200.134 388.333 197.119C384.668 194.105 377.522 207.531 377.522 207.531C367.47 212.868 366.266 217.948 366.266 217.948C357.397 225.192 338.567 232.675 338.567 232.675C330.896 237.097 341.717 259.997 341.717 259.997C341.717 259.997 347.724 259.196 360.562 253.71C373.401 248.223 381.881 235.428 383.312 233.91C383.348 233.872 383.377 233.842 383.412 233.805C386.241 234.129 389.182 234.166 390.267 233.167C391.581 231.958 391.128 230.277 389.683 228.686C391.231 227.871 394.518 225.63 395.045 221.106C395.74 215.157 387.017 209.432 387.017 209.432Z" fill="#94533F"/>
<path d="M338.566 232.676C334.938 234.767 335.448 240.989 336.99 246.969C340.198 236.115 345.59 229.655 345.59 229.655C341.5 231.509 338.566 232.676 338.566 232.676Z" fill="#070000"/>
<path d="M383.412 233.806C383.412 233.806 376.827 235.408 373.379 232.046" stroke="#070000" stroke-width="2" stroke-miterlimit="10" stroke-linecap="round" stroke-linejoin="round"/>
<path d="M389.682 228.688C389.682 228.688 382.092 227.983 379.227 223.286" stroke="#070000" stroke-width="2" stroke-miterlimit="10" stroke-linecap="round" stroke-linejoin="round"/>
<path d="M379.365 216.264C379.365 216.264 384.373 213.95 387.018 209.433" stroke="#070000" stroke-width="2" stroke-miterlimit="10" stroke-linecap="round" stroke-linejoin="round"/>
<path d="M390.114 211.894C390.114 211.894 394.073 223.107 385.949 227.881" stroke="#070000" stroke-width="2" stroke-miterlimit="10" stroke-linecap="round" stroke-linejoin="round"/>
<path d="M383.372 213.629C383.372 213.629 386.205 220.272 381.555 225.752" stroke="#070000" stroke-width="2" stroke-miterlimit="10" stroke-linecap="round" stroke-linejoin="round"/>
<path d="M272.791 244.177C272.791 244.177 286.458 265.689 302.679 261.946C302.679 261.946 308.306 258.231 304.218 250.807L308.219 240.401L272.791 244.177Z" fill="#94533F"/>
<path d="M272.791 244.177C272.791 244.177 274.374 246.724 277.162 249.901C294.11 255.905 304.218 250.806 304.218 250.806L308.219 240.4L272.791 244.177Z" fill="#070000"/>
<path d="M304.217 250.807L302.723 255.589" stroke="#070000" stroke-width="2" stroke-miterlimit="10" stroke-linecap="round" stroke-linejoin="round"/>
<path d="M306.32 245.339C306.32 245.339 320.661 259.011 317.633 278.7C317.633 278.7 329.149 268.531 318.297 242.975L306.32 245.339Z" fill="#46B17B"/>
<path d="M357.623 144.135C348.458 122.755 328.786 133.049 328.786 133.049C328.786 133.049 327.061 119.781 315.387 116.481C303.712 113.182 294.824 120.987 294.824 120.987C294.824 120.987 286.922 103.151 266.733 105.413C246.543 107.674 243.025 129.104 243.025 129.104C243.025 129.104 238.273 125.885 234.675 129.592C231.077 133.3 233.182 139.527 233.182 139.527C233.182 139.527 216.695 139.496 213.819 155.024C210.943 170.552 220.494 181.055 220.494 181.055C220.494 181.055 215.046 184.47 221.148 199.125C227.25 213.78 248.342 219.701 248.342 219.701L328.835 195.028C331.781 194.379 334.319 193.582 336.512 192.675L336.947 192.541C336.959 192.521 336.969 192.5 336.981 192.48C350.416 186.684 350.088 176.465 347.542 169.037C355.787 166.612 364.093 159.228 357.623 144.135Z" fill="#070000"/>
<path d="M252.667 213.356C252.667 213.356 246.861 191.089 230.872 196.114C213.835 201.47 231.164 249.496 253.188 228.157C253.188 228.157 263.089 248.841 298.192 248.505C330.414 248.196 347.515 234.453 348.761 220.578C349.883 208.071 341.637 207.078 342.482 198.197C343.328 189.317 344.571 180.344 338.794 171.656C338.794 171.656 341.426 183.966 327.47 184.292C313.515 184.617 298.746 177.557 298.746 177.557C298.746 177.557 301.95 186.617 291.183 188.211C280.416 189.805 268.38 177.216 268.38 177.216C268.38 177.216 274.04 187.268 270.494 194.098C266.949 200.929 256.343 205.159 252.667 213.356Z" fill="#94533F"/>
<path d="M231.639 209.078C231.639 209.078 235.233 205.354 238.86 208.526C242.487 211.698 248.343 219.7 248.343 219.7" stroke="#070000" stroke-width="2" stroke-miterlimit="10" stroke-linecap="round" stroke-linejoin="round"/>
<path d="M243.192 213.144C243.192 213.144 235.194 214.911 239.357 224.193" stroke="#070000" stroke-width="2" stroke-miterlimit="10" stroke-linecap="round" stroke-linejoin="round"/>
<path d="M316.102 213.194C316.102 213.194 324.282 206.184 326.885 210.705C329.487 215.227 321.583 218.61 321.583 218.61" stroke="#070000" stroke-width="2" stroke-miterlimit="10" stroke-linecap="round" stroke-linejoin="round"/>
<path d="M317.467 198.849C317.467 198.849 317.553 207.908 320.145 210.453" stroke="#070000" stroke-width="2" stroke-miterlimit="10" stroke-linecap="round" stroke-linejoin="round"/>
<path d="M296.242 222.677C296.242 222.677 300.779 227.865 305.789 227.377C305.789 227.377 301.934 236.729 297.202 236.485C292.468 236.241 296.242 222.677 296.242 222.677Z" fill="#FBFFFF"/>
<path d="M296.242 222.677C296.242 222.677 301.462 229.855 310.482 226.477" stroke="#070000" stroke-width="2" stroke-miterlimit="10" stroke-linecap="round" stroke-linejoin="round"/>
<path d="M294.236 207.55C294.236 207.55 296.164 203.68 300.34 203.761C304.515 203.841 305.855 206.428 305.855 206.428" stroke="#070000" stroke-width="2" stroke-miterlimit="10" stroke-linecap="round" stroke-linejoin="round"/>
<path d="M326.543 204.074C326.543 204.074 330.594 199.754 335.127 203.311" stroke="#070000" stroke-width="2" stroke-miterlimit="10" stroke-linecap="round" stroke-linejoin="round"/>
<path d="M292.848 193.17C292.848 193.17 295.418 190.797 301.114 190.226" stroke="#070000" stroke-width="2" stroke-miterlimit="10" stroke-linecap="round" stroke-linejoin="round"/>
<path d="M328.859 189.019C328.859 189.019 332.981 189.51 334.964 191.025" stroke="#070000" stroke-width="2" stroke-miterlimit="10" stroke-linecap="round" stroke-linejoin="round"/>
<path d="M280.513 268.397L241.004 243.441L250.726 236.791L285.303 261.167L280.513 268.397Z" fill="#46B17B"/>
<path d="M258.082 296.164C258.082 296.164 267.663 283.165 276.678 283.311L277.389 273.682C277.389 273.682 274.729 260.71 284.261 256.172C293.792 251.634 296.815 254.723 296.815 254.723C296.815 254.723 298.94 256.571 297.435 261.149C297.435 261.149 301.504 262.66 300.023 266.231C300.023 266.231 305.624 269.615 305.665 276.064C305.705 282.514 299.492 286.954 299.492 286.954C299.492 286.954 299.892 290.464 303.412 297.185C307.99 305.927 303.412 320.967 288.529 319.549C269.403 317.729 258.082 296.164 258.082 296.164Z" fill="#94533F"/>
<path d="M276.68 283.312L274.934 295.852" stroke="#070000" stroke-width="2" stroke-miterlimit="10" stroke-linecap="round" stroke-linejoin="round"/>
<path d="M297.436 261.151C297.436 261.151 294.623 259.573 289.742 260.143" stroke="#070000" stroke-width="2" stroke-miterlimit="10" stroke-linecap="round" stroke-linejoin="round"/>
<path d="M293.15 267.189L300.023 266.233" stroke="#070000" stroke-width="2" stroke-miterlimit="10" stroke-linecap="round" stroke-linejoin="round"/>
<path d="M296.498 273.245C296.498 273.245 301.112 271.268 305.205 273.006" stroke="#070000" stroke-width="2" stroke-miterlimit="10" stroke-linecap="round" stroke-linejoin="round"/>
<path d="M237.15 282.189L248.489 279.573L251.163 288.007L236.842 293.396L237.15 282.189Z" fill="#46B17B"/>
<path d="M311.291 273.097L310.311 262.635" stroke="#070000" stroke-width="2" stroke-miterlimit="10" stroke-linecap="round" stroke-linejoin="round"/>
<path d="M246.373 272.935L255.891 302.797" stroke="#070000" stroke-width="2" stroke-miterlimit="10" stroke-linecap="round" stroke-linejoin="round"/>
<path d="M214.348 256.718L219.58 237.25" stroke="#070000" stroke-width="2" stroke-miterlimit="10" stroke-linecap="round" stroke-linejoin="round"/>
<path d="M214.035 237.676C214.035 237.676 218.083 232.695 225.836 232.835C233.589 232.976 239.654 234.169 238.872 243.001C238.872 243.001 228.506 244.262 219.109 238.998" stroke="#070000" stroke-width="2" stroke-miterlimit="10" stroke-linecap="round" stroke-linejoin="round"/>
<path d="M234.102 265.438C224.547 265.314 208.867 260.952 208.867 260.952C208.867 260.952 205.982 265.181 205.613 270.017C205.422 272.519 206.784 274.622 209.818 276.259C209.591 282.381 210.789 291.957 219.861 295.082C219.861 295.082 231.789 299.163 233.481 291.053C234.598 285.699 233.424 278.549 232.496 274.305C234.38 270.276 234.102 265.438 234.102 265.438Z" fill="#C1D57E"/>
<path d="M209.816 276.26L224.395 279.194C224.395 279.194 231.023 279.895 232.494 274.306" stroke="#070000" stroke-width="2" stroke-miterlimit="10" stroke-linecap="round" stroke-linejoin="round"/>
<path d="M219.693 270.554C220.026 271.995 219.128 273.432 217.687 273.763C216.247 274.096 214.81 273.198 214.477 271.758C214.145 270.317 215.043 268.88 216.483 268.548C217.924 268.216 219.361 269.114 219.693 270.554Z" stroke="#070000" stroke-width="2" stroke-miterlimit="10" stroke-linecap="round" stroke-linejoin="round"/>
<path d="M246.754 247.072L243.184 244.818" stroke="#070000" stroke-width="2" stroke-miterlimit="10" stroke-linecap="round" stroke-linejoin="round"/>
<path d="M253.292 238.6L248.986 235.362" stroke="#070000" stroke-width="2" stroke-miterlimit="10" stroke-linecap="round" stroke-linejoin="round"/>
<path d="M290.453 322.701C290.453 322.701 296.856 322.812 303.485 319.693" stroke="#070000" stroke-width="2" stroke-miterlimit="10" stroke-linecap="round" stroke-linejoin="round"/>
<path d="M180.092 201.117C180.092 201.117 170.839 195.723 163.381 203.713C155.922 211.703 157.92 239.562 176.696 244.309C176.696 244.309 183.438 246.988 185.26 242.429C187.082 237.87 190.478 244.59 196.87 242.429C203.262 240.267 212.712 232.998 209.654 209.705C207.059 189.931 184.687 191.929 180.092 201.117Z" fill="#EF7F7E"/>
<path d="M175.498 187.434C175.498 187.434 180.991 196.723 180.092 204.113" stroke="#070000" stroke-width="2" stroke-miterlimit="10" stroke-linecap="round" stroke-linejoin="round"/>
<path d="M175.498 204.113C175.498 204.113 181.391 205.612 185.385 202.615" stroke="#070000" stroke-width="2" stroke-miterlimit="10" stroke-linecap="round" stroke-linejoin="round"/>
<path d="M184.237 193.826C184.237 193.826 181.241 195.424 180.441 201.417C180.441 201.417 188.738 196.323 197.034 197.621C197.034 197.621 190.629 191.729 184.237 193.826Z" fill="#070000"/>
<path d="M184.236 193.826C184.236 193.826 189.63 194.326 190.729 199.319C191.828 204.313 201.167 212.004 209.831 206.311C209.831 206.311 206.429 202.416 206.27 198.121C206.109 193.826 194.124 185.637 184.236 193.826Z" fill="#46B17B"/>
<path d="M193.525 190.331C193.525 190.331 198.619 192.828 200.517 200.018C202.415 207.209 209.832 206.311 209.832 206.311" stroke="#070000" stroke-width="2" stroke-miterlimit="10" stroke-linecap="round" stroke-linejoin="round"/>
<path d="M169.506 234.975C169.506 234.975 172.801 239.569 177.845 240.268" stroke="#FBFFFF" stroke-width="2" stroke-miterlimit="10" stroke-linecap="round" stroke-linejoin="round"/>
<path d="M437.645 9.04458L440.113 9.70949L437.645 10.3744C435.818 10.8666 434.439 12.3701 434.106 14.2333L433.18 19.419L432.254 14.2333C431.922 12.3701 430.543 10.8666 428.716 10.3744L426.248 9.70949L428.716 9.04458C430.543 8.55243 431.922 7.04885 432.254 5.18569L433.18 0L434.106 5.18569C434.439 7.04885 435.817 8.55243 437.645 9.04458Z" fill="#FBFFFF"/>
<path d="M399.549 112.078L402.017 112.742L399.549 113.406C397.721 113.899 396.343 115.402 396.011 117.265L395.085 122.452L394.159 117.265C393.826 115.402 392.447 113.899 390.62 113.406L388.152 112.742L390.62 112.078C392.447 111.585 393.826 110.082 394.159 108.219L395.085 103.033L396.011 108.219C396.343 110.082 397.722 111.585 399.549 112.078Z" fill="#FBFFFF"/>
<path d="M219.641 20.5901L221.288 21.033L219.641 21.476C218.422 21.8044 217.502 22.8078 217.28 24.0502L216.662 27.5104L216.045 24.0502C215.823 22.8068 214.903 21.8044 213.683 21.476L212.037 21.033L213.683 20.5901C214.903 20.2616 215.823 19.2582 216.045 18.0158L216.662 14.5557L217.28 18.0158C217.502 19.2592 218.422 20.2616 219.641 20.5901Z" fill="#FBFFFF"/>
<path d="M286.338 18.7541L288.806 19.419L286.338 20.0829C284.51 20.575 283.132 22.0786 282.8 23.9418L281.874 29.1275L280.948 23.9418C280.615 22.0786 279.236 20.575 277.409 20.0829L274.941 19.419L277.409 18.7541C279.236 18.2619 280.615 16.7583 280.948 14.8952L281.874 9.70947L282.8 14.8952C283.132 16.7583 284.511 18.2619 286.338 18.7541Z" fill="#FBFFFF"/>
</svg>
