<svg width="247" height="153" viewBox="0 0 247 153" fill="none" xmlns="http://www.w3.org/2000/svg">
<g clip-path="url(#clip0_3004_4095)">
<rect width="247" height="153" rx="15" fill="white"/>
<path d="M162 161H247V60.3068C237.863 56.8624 225.93 56.2074 213.391 65.9603C186.661 86.7507 217.518 128.634 208.084 139.226C199.473 148.896 182.021 139.448 162 161Z" fill="#5B6CB1"/>
<path d="M45.9462 0H0V33.0731C5.37803 38.7311 13.7333 45.7957 21.2991 44.9271C33.7236 43.5008 27.6974 29.2382 27.6974 29.2382C27.6974 29.2382 45.047 49.5624 64.5893 43.1442C80.6957 37.8546 56.7473 14.1581 45.9462 0ZM17.5718 20.235C15.6985 20.235 14.1994 17.7259 14.1994 15.8439C14.1994 13.962 15.7181 12.437 17.5913 12.437C19.4646 12.437 22.1866 14.4312 22.1866 16.3128C22.1866 18.1944 19.4451 20.235 17.5718 20.235ZM38.2728 23.4605C34.6005 23.4605 29.9963 19.4666 29.9963 15.778C29.9963 12.0893 33.0687 9.35981 36.741 9.35981C40.4134 9.35981 44.2845 14.6744 44.2845 18.363C44.2845 22.0517 41.9451 23.4605 38.2728 23.4605Z" fill="#7BC9EF"/>
<path d="M125.276 49.7319C122.018 49.1584 119.066 47.495 116.639 45.2466C113.066 41.9385 101.704 32.7076 86.6864 41.8255C68.2204 53.0372 61.2994 116.199 92.7649 129.786C92.7649 129.786 102.419 134.434 107.425 131.574C112.431 128.713 117.079 125.853 122.8 130.859C128.521 135.865 139.963 136.937 151.048 127.998C162.132 119.059 188.949 81.515 168.568 55.0553C168.568 55.0553 160.166 39.7387 135.315 48.9767C135.315 48.9767 130.807 50.7074 125.276 49.7319Z" fill="#EF7F7E"/>
<path d="M115.471 54.1631C115.471 54.1631 125.125 61.1356 136.031 58.0963" stroke="#070000" stroke-miterlimit="10" stroke-linecap="round" stroke-linejoin="round"/>
<path d="M124.49 58.1247C124.49 58.1247 128.343 39.8589 119.94 29.8472" stroke="#070000" stroke-miterlimit="10" stroke-linecap="round" stroke-linejoin="round"/>
<path d="M168.884 24.1678C168.884 24.1678 167.856 41.3895 156.918 49.3502C145.981 57.3096 129.277 52.9945 129.277 52.9945C129.277 52.9945 130.306 35.7728 141.243 27.8121C152.18 19.8527 168.884 24.1678 168.884 24.1678Z" fill="#46B17B"/>
<path d="M168.885 24.1675C168.885 24.1675 136.031 43.9865 124.49 58.1245" stroke="#070000" stroke-miterlimit="10" stroke-linecap="round" stroke-linejoin="round"/>
<path d="M146.686 38.9126L164.348 40.3486" stroke="#070000" stroke-miterlimit="10" stroke-linecap="round" stroke-linejoin="round"/>
<path d="M139.898 43.9868L141.243 27.812" stroke="#070000" stroke-miterlimit="10" stroke-linecap="round" stroke-linejoin="round"/>
<path d="M87.7592 68.2868C87.7592 71.4491 85.8384 74.0121 83.4685 74.0121C81.0986 74.0121 79.1777 71.4491 79.1777 68.2868C79.1777 65.1245 81.0986 62.5615 83.4685 62.5615C85.8384 62.5615 87.7592 65.1245 87.7592 68.2868Z" fill="#FBFFFF"/>
<path d="M85.6141 58.1248C86.799 58.1248 87.7595 56.9575 87.7595 55.5175C87.7595 54.0775 86.799 52.9102 85.6141 52.9102C84.4293 52.9102 83.4688 54.0775 83.4688 55.5175C83.4688 56.9575 84.4293 58.1248 85.6141 58.1248Z" fill="#FBFFFF"/>
</g>
<defs>
<clipPath id="clip0_3004_4095">
<rect width="247" height="153" rx="15" fill="white"/>
</clipPath>
</defs>
</svg>
