<svg width="110" height="86" viewBox="0 0 110 86" fill="none" xmlns="http://www.w3.org/2000/svg">
<path d="M4.73813 44.6221C2.22013 46.3211 1.75813 49.8421 3.75213 52.1331L30.0021 82.2961C31.5851 84.1151 34.2321 84.5661 36.3251 83.3671C43.7461 79.1171 60.6901 69.8031 67.5111 69.2921C67.5111 69.2921 76.3651 70.8221 79.9071 63.7481C79.9071 63.7481 90.7861 52.3571 106.319 48.1111C108.582 47.4921 109.354 44.6781 107.709 43.0041L77.8781 12.6501C75.7921 10.5281 72.5701 10.0041 69.9201 11.3571L4.73813 44.6221Z" fill="#6D86CC"/>
<path d="M4.73813 44.6221C2.22013 46.3211 1.75813 49.8421 3.75213 52.1331L30.0021 82.2961C31.5851 84.1151 34.2321 84.5661 36.3251 83.3671C43.7461 79.1171 60.6901 69.8031 67.5111 69.2921C67.5111 69.2921 76.3651 70.8221 79.9071 63.7481C79.9071 63.7481 90.7861 52.3571 106.319 48.1111C108.582 47.4921 109.354 44.6781 107.709 43.0041L77.8781 12.6501C75.7921 10.5281 72.5701 10.0041 69.9201 11.3571L4.73813 44.6221Z" stroke="#070000" stroke-width="2" stroke-miterlimit="10" stroke-linecap="round" stroke-linejoin="round"/>
<path d="M10.6353 27.8991L3.15332 20.3731C3.15332 20.3731 8.41132 14.3961 15.9373 14.6181L21.6923 21.2561L10.6353 27.8991Z" fill="#46B17B"/>
<path d="M0 34.0962C0 34.0962 6.493 22.5862 16.675 19.6342C26.857 16.6832 36.154 18.3062 36.154 18.3062C36.154 18.3062 49.337 -4.31183 73.341 0.73417L104.461 32.7682L104.5 43.6882C104.5 43.6882 87.876 46.9902 76.587 58.7062L67.733 62.8722C67.733 62.8722 51.807 62.8722 34.508 79.6952L5.311 46.9902L0 34.0962Z" fill="#F8B193"/>
<path d="M36.1543 18.3071L69.2093 50.9261" stroke="#EF7F7E" stroke-width="2" stroke-miterlimit="10" stroke-linecap="round" stroke-linejoin="round"/>
<path d="M34.509 79.6951C51.807 62.8721 67.734 62.8721 67.734 62.8721L76.588 58.7061C87.877 46.9901 104.501 43.6881 104.501 43.6881L104.462 32.7681C85.63 34.5391 69.21 53.2431 69.21 53.2431C51.649 49.8121 30.99 66.6351 30.99 66.6351L0.000976562 34.0961L5.31298 46.9901L34.509 79.6951Z" fill="#EF7F7E"/>
<path d="M30.9893 66.6353L34.5093 79.6953" stroke="#F8B193" stroke-width="2" stroke-miterlimit="10" stroke-linecap="round" stroke-linejoin="round"/>
<path d="M36.1543 69.2921C36.1543 69.2921 52.6823 55.4261 70.6113 58.7071" stroke="#F8B193" stroke-width="2" stroke-miterlimit="10" stroke-linecap="round" stroke-linejoin="round"/>
<path d="M76.1445 53.2443C76.1445 53.2443 87.6995 40.2953 104.5 37.7493" stroke="#F8B193" stroke-width="2" stroke-miterlimit="10" stroke-linecap="round" stroke-linejoin="round"/>
<path d="M3.15332 41.7512L32.7493 73.1652" stroke="#F8B193" stroke-width="2" stroke-miterlimit="10" stroke-linecap="round" stroke-linejoin="round"/>
<path d="M21.0127 48.7882L30.3247 58.7062L41.1707 53.2442L31.0917 43.3462L21.0127 48.7882Z" fill="#46B17B"/>
<path d="M7.19336 31.9942C7.19336 31.9942 16.3794 21.7612 32.7484 21.8122" stroke="#EF7F7E" stroke-width="2" stroke-miterlimit="10" stroke-linecap="round" stroke-linejoin="round"/>
<path d="M27.1953 30.1233C30.1503 29.1943 33.4133 28.5103 36.8553 28.3423" stroke="#EF7F7E" stroke-width="2" stroke-miterlimit="10" stroke-linecap="round" stroke-linejoin="round"/>
<path d="M12.4229 37.7491C12.4229 37.7491 15.5618 35.2121 20.5858 32.7681" stroke="#EF7F7E" stroke-width="2" stroke-miterlimit="10" stroke-linecap="round" stroke-linejoin="round"/>
<path d="M16.9326 43.3463C16.9326 43.3463 21.0126 39.8473 28.5536 37.7483" stroke="#EF7F7E" stroke-width="2" stroke-miterlimit="10" stroke-linecap="round" stroke-linejoin="round"/>
<path d="M38.958 41.7511L49.361 38.4131" stroke="#EF7F7E" stroke-width="2" stroke-miterlimit="10" stroke-linecap="round" stroke-linejoin="round"/>
<path d="M41.8457 45.4962L52.2497 42.1592" stroke="#EF7F7E" stroke-width="2" stroke-miterlimit="10" stroke-linecap="round" stroke-linejoin="round"/>
<path d="M45.1475 49.8912L55.5505 46.5532" stroke="#EF7F7E" stroke-width="2" stroke-miterlimit="10" stroke-linecap="round" stroke-linejoin="round"/>
<path d="M58.8789 26.9022C58.8789 26.9022 69.2829 17.0522 81.0139 15.5022" stroke="#EF7F7E" stroke-width="2" stroke-miterlimit="10" stroke-linecap="round" stroke-linejoin="round"/>
<path d="M61.5361 34.6161C61.5361 34.6161 75.4811 21.5671 87.2131 20.0181" stroke="#EF7F7E" stroke-width="2" stroke-miterlimit="10" stroke-linecap="round" stroke-linejoin="round"/>
<path d="M57.7734 7.75526C57.7734 7.75526 65.0024 4.23826 70.6114 3.96826" stroke="#EF7F7E" stroke-width="2" stroke-miterlimit="10" stroke-linecap="round" stroke-linejoin="round"/>
<path d="M61.5361 12.5053C61.5361 12.5053 68.7651 8.98826 74.3741 8.71826" stroke="#EF7F7E" stroke-width="2" stroke-miterlimit="10" stroke-linecap="round" stroke-linejoin="round"/>
<path d="M44.1592 16.8093L52.2502 23.9143L60.4292 18.3073L52.2502 9.74829L44.1592 16.8093Z" fill="#7BC9EF"/>
</svg>
