<svg width="247" height="153" viewBox="0 0 247 153" fill="none" xmlns="http://www.w3.org/2000/svg">
<g clip-path="url(#clip0_3004_4070)">
<rect width="247" height="153" rx="15" fill="white"/>
<path d="M162 161H247V60.3068C237.863 56.8624 225.93 56.2074 213.391 65.9603C186.661 86.7507 217.518 128.634 208.084 139.226C199.473 148.896 182.021 139.448 162 161Z" fill="#5B6CB1"/>
<path d="M45.9462 0H0V33.0731C5.37803 38.7311 13.7333 45.7957 21.2991 44.9271C33.7236 43.5008 27.6974 29.2382 27.6974 29.2382C27.6974 29.2382 45.047 49.5624 64.5893 43.1442C80.6957 37.8546 56.7473 14.1581 45.9462 0ZM17.5718 20.235C15.6985 20.235 14.1994 17.7259 14.1994 15.8439C14.1994 13.962 15.7181 12.437 17.5913 12.437C19.4646 12.437 22.1866 14.4312 22.1866 16.3128C22.1866 18.1944 19.4451 20.235 17.5718 20.235ZM38.2728 23.4605C34.6005 23.4605 29.9963 19.4666 29.9963 15.778C29.9963 12.0893 33.0687 9.35981 36.741 9.35981C40.4134 9.35981 44.2845 14.6744 44.2845 18.363C44.2845 22.0517 41.9451 23.4605 38.2728 23.4605Z" fill="#7BC9EF"/>
<path d="M56 72.7449C57.4913 68.8496 58.774 64.9765 60.5332 61.3335C62.246 57.7867 64.5452 54.5281 66.4081 51.0473C68.7051 46.7552 70.8919 42.3997 72.9898 38.0064C75.3707 33.0204 77.6044 27.9396 81.0971 23.6134C85.0835 18.6757 90.2719 15.8771 96.6759 15.1899C103.697 14.4365 110.367 16.0568 117.049 17.7267C121.588 18.8608 126.139 19.8004 130.814 20.2566C135.927 20.7555 141.046 21.3974 146.09 22.3546C151.672 23.4138 156.346 26.2946 160.535 30.1806C164.683 34.0293 167.785 38.6686 171.202 43.0799C174.358 47.1547 177.49 51.2489 180.626 55.3395C183.667 59.307 186.646 63.3305 188.341 68.0946C190.725 74.7964 190.584 81.4207 187.627 87.9789C185.506 92.6813 182.549 96.848 179.755 101.14C175.354 107.899 171.255 114.857 166.813 121.589C164.673 124.832 162.248 127.944 159.585 130.768C155.909 134.666 151.215 136.993 145.868 137.575C141.991 137.998 138.047 138.273 134.164 138.059C129.603 137.807 125.079 136.924 120.532 136.373C118.34 136.107 116.135 135.909 113.931 135.798C110.89 135.646 107.836 135.704 104.8 135.497C99.7418 135.151 94.689 134.648 90.01 132.457C86.4779 130.803 83.668 128.225 81.1535 125.292C76.7057 120.104 73.9302 113.866 70.3363 108.142C67.6841 103.917 64.8364 99.8164 62.1081 95.6394C59.7271 91.9942 57.6946 88.174 56.5121 83.952C56.3727 83.4544 56.2753 82.945 56.0792 82.3798C56 79.1683 56 76.018 56 72.7449ZM90.7558 31.5277C90.6801 31.5705 90.6269 31.6324 90.4333 31.8056C88.072 32.7628 86.1697 34.295 84.7647 36.4171C83.4919 38.3395 82.8651 40.3345 84.3064 42.6709C82.1153 47.028 79.9936 51.4216 77.7148 55.7323C75.1912 60.5061 72.3671 65.1269 69.9888 69.9691C68.8811 72.2241 68.1044 74.8143 67.9236 77.3066C67.7161 80.1688 68.7958 82.9726 70.3276 85.4518C72.5676 89.0769 74.9768 92.5975 77.2187 96.2216C80.3087 101.217 83.2525 106.303 86.3758 111.277C87.7283 113.43 89.3725 115.401 90.7992 117.615C88.371 120.521 89.8994 124.231 92.705 125.272C95.1334 126.174 97.1972 125.316 99.1928 122.671C100.532 122.765 101.871 122.859 103.211 122.953C108.177 123.298 113.146 123.618 118.11 123.997C121.086 124.224 124.055 124.539 127.026 124.821C130.512 125.152 133.996 125.49 137.57 125.984C138.202 126.731 138.711 127.659 139.489 128.194C142.071 129.97 146.006 128.604 146.841 124.701C150.121 123.365 152.474 120.898 154.335 118.047C161.077 107.716 167.743 97.3338 174.328 86.9015C175.511 85.0276 176.172 82.8247 177.264 80.7345C179.013 80.3128 180.142 79.1693 180.406 77.4571C180.608 76.148 180.601 74.7251 180.312 73.4367C179.299 68.919 176.53 65.9086 172.014 64.3267C167.614 58.5813 163.25 52.8085 158.799 47.1034C156.859 44.6175 154.741 42.2706 152.767 39.6695C153.771 37.0023 153.171 34.8902 151.019 33.516C148.987 32.2188 146.758 32.6167 144.62 34.5966C139.737 33.9063 134.855 33.2078 129.97 32.5288C127.097 32.1295 124.191 31.9078 121.351 31.3488C115.062 30.1111 108.831 28.5708 102.527 27.4328C99.0959 26.8135 95.6284 27.182 92.6913 29.4132C91.9725 29.9593 91.4842 30.8089 90.8733 31.5083C90.8733 31.5083 90.8744 31.4887 90.7558 31.5277Z" fill="#D7ABF4"/>
<path d="M137.481 125.825C133.996 125.49 130.511 125.152 127.026 124.821C124.054 124.539 121.085 124.224 118.109 123.997C113.145 123.618 108.177 123.298 103.21 122.952C101.871 122.859 100.531 122.765 99.0815 122.56C98.8895 121.185 99.1382 119.776 98.6622 118.683C97.4553 115.912 93.7123 114.869 90.8836 117.455C89.3719 115.401 87.7277 113.43 86.3752 111.277C83.2519 106.303 80.308 101.217 77.218 96.2215C74.9762 92.5974 72.567 89.0768 70.327 85.4517C68.7952 82.9726 67.7154 80.1687 67.923 77.3066C68.1038 74.8142 68.8805 72.224 69.9881 69.969C72.3665 65.1269 75.1905 60.506 77.7142 55.7322C79.9929 51.4216 82.1147 47.0279 84.3873 42.6149C86.7167 44.5147 89.5297 44.3815 90.8404 42.04C91.948 40.0612 93.3183 39.1671 95.646 39.2467C98.1179 39.3311 99.9959 37.4172 100.009 35.2911C100.023 33.0788 98.3128 31.3363 95.7818 31.239C94.157 31.1766 92.5205 31.4152 90.8893 31.5188C91.4836 30.8088 91.9719 29.9593 92.6907 29.4132C95.6278 27.1819 99.0953 26.8135 102.526 27.4327C108.831 28.5707 115.062 30.111 121.35 31.3487C124.191 31.9078 127.097 32.1294 129.969 32.5288C134.854 33.2078 139.736 33.9062 144.691 34.697C143.873 36.2563 143.577 37.7674 144.328 39.3856C145.908 42.7896 150.339 43.2944 152.704 39.8606C154.741 42.2706 156.859 44.6174 158.798 47.1033C163.249 52.8084 167.613 58.5813 171.941 64.4099C171.272 64.5738 170.628 64.5385 170.087 64.757C168.458 65.4141 167.473 66.653 167.409 68.4328C167.346 70.1637 168.2 71.4898 169.752 72.1872C171.6 73.017 172.394 74.2638 172.427 76.3376C172.465 78.7949 173.985 81.0383 177.074 80.7736C176.172 82.8246 175.51 85.0275 174.327 86.9014C167.743 97.3337 161.077 107.716 154.334 118.047C152.473 120.898 150.121 123.365 146.749 124.627C146.7 122.98 146.141 121.645 144.927 120.66C143.207 119.264 141.217 119.182 139.364 120.331C137.657 121.39 136.957 123.432 137.481 125.825ZM105.739 111.361C112.174 113.931 118.787 114.867 125.691 113.803C132.691 112.725 138.96 109.97 144.175 105.276C154.224 96.2305 158.441 84.9051 156.387 71.4333C155 62.339 150.612 54.8351 143.568 49.0396C134.638 41.6921 124.269 39.162 112.941 41.2716C104.471 42.8491 97.3397 47.1285 91.8746 53.7713C84.8851 62.267 82.1098 72.0715 83.7524 83.0479C84.906 90.7563 88.2849 97.3518 93.5978 102.985C96.9936 106.585 101.06 109.251 105.739 111.361Z" fill="#C596EA"/>
<path d="M90.8817 31.5135C92.5213 31.4152 94.1577 31.1766 95.7826 31.239C98.3136 31.3363 100.024 33.0788 100.01 35.2911C99.9967 37.4172 98.1187 39.3311 95.6468 39.2467C93.319 39.1671 91.9488 40.0612 90.8411 42.04C89.5304 44.3815 86.7175 44.5148 84.3919 42.5151C82.8652 40.3345 83.492 38.3394 84.7648 36.417C86.1699 34.2949 88.0721 32.7628 90.5784 31.7459C90.8145 31.6517 90.8649 31.5858 90.8745 31.4886C90.8745 31.4886 90.8734 31.5083 90.8817 31.5135Z" fill="#B1EE98"/>
<path d="M177.17 80.7541C173.985 81.0383 172.466 78.795 172.427 76.3376C172.395 74.2638 171.6 73.017 169.753 72.1872C168.201 71.4899 167.347 70.1638 167.409 68.4329C167.474 66.653 168.459 65.4141 170.087 64.757C170.629 64.5386 171.272 64.5739 171.981 64.4871C176.53 65.9085 179.299 68.9189 180.312 73.4367C180.601 74.725 180.608 76.1479 180.406 77.457C180.142 79.1692 179.013 80.3128 177.17 80.7541Z" fill="#A0EFF2"/>
<path d="M90.8418 117.535C93.7131 114.869 97.4561 115.912 98.6629 118.683C99.139 119.776 98.8902 121.185 98.9629 122.558C97.1973 125.316 95.1336 126.174 92.7052 125.273C89.8996 124.231 88.3712 120.521 90.8418 117.535Z" fill="#FEEA9A"/>
<path d="M137.525 125.905C136.957 123.433 137.657 121.39 139.364 120.331C141.217 119.182 143.207 119.265 144.927 120.661C146.141 121.646 146.7 122.981 146.664 124.664C146.006 128.604 142.07 129.97 139.488 128.194C138.71 127.659 138.202 126.732 137.525 125.905Z" fill="#B2ED99"/>
<path d="M152.736 39.7651C150.34 43.2945 145.909 42.7897 144.329 39.3857C143.578 37.7675 143.874 36.2564 144.794 34.7097C146.759 32.6167 148.987 32.2188 151.019 33.516C153.172 34.8902 153.772 37.0023 152.736 39.7651Z" fill="#FEEA9A"/>
<path d="M90.8142 31.5083C90.8639 31.5859 90.8135 31.6518 90.6588 31.7001C90.6261 31.6325 90.6793 31.5705 90.8142 31.5083Z" fill="#C596EA"/>
<path d="M105.648 111.321C101.06 109.251 96.9936 106.585 93.5978 102.985C88.2849 97.352 84.9059 90.7565 83.7523 83.048C82.1097 72.0717 84.8851 62.2671 91.8746 53.7715C97.3397 47.1287 104.471 42.8493 112.941 41.2718C124.269 39.1621 134.638 41.6923 143.568 49.0398C150.612 54.8353 155 62.3392 156.387 71.4335C158.441 84.9053 154.224 96.2306 144.175 105.277C138.96 109.971 132.691 112.725 125.691 113.804C118.787 114.867 112.174 113.931 105.648 111.321ZM127.641 76.5721C126.784 75.8491 125.895 75.8771 124.998 76.4796C121.743 78.6656 118.506 78.6572 115.226 76.498C114.038 75.716 112.901 75.9531 112.247 76.9558C111.595 77.9543 111.893 79.0621 113.033 79.8811C117.229 82.8957 122.931 82.916 127.111 79.9312C128.441 78.9817 128.613 78.1633 127.641 76.5721ZM114.485 55.0578C114.473 55.275 114.434 55.4947 114.453 55.7089C114.657 57.9102 116.495 59.6744 118.67 59.7658C120.472 59.8416 122.591 57.9598 122.82 56.0802C123.075 53.9866 121.702 52.0354 119.591 51.4909C117.324 50.9061 115.446 52.1606 114.485 55.0578ZM138.108 96.878C138.396 96.9775 138.677 97.1018 138.972 97.1723C140.493 97.537 142.379 96.7956 143.217 95.5173C144.357 93.7777 144.311 92.0257 143.083 90.4204C142.155 89.2062 140.113 88.6572 138.603 89.1389C136.917 89.677 135.96 90.9041 135.72 92.5297C135.448 94.3725 136.343 95.8012 138.108 96.878ZM109.142 103.784C109.296 103.863 109.449 103.947 109.607 104.02C111.389 104.843 113.011 104.575 114.36 103.236C115.515 102.089 115.878 100.362 115.268 98.9111C114.529 97.1523 112.915 96.0529 111.065 96.2294C109.45 96.3835 108.175 97.2045 107.62 98.789C106.954 100.694 107.33 102.381 109.142 103.784ZM139.943 78.551C140.366 79.7121 141.205 80.2067 142.396 79.9386C143.504 79.6893 143.891 78.8193 143.917 77.7822C143.943 76.7396 143.961 75.6905 143.875 74.6532C143.775 73.4525 142.899 72.6404 141.869 72.6532C140.751 72.6672 139.916 73.5253 139.875 74.8096C139.837 75.9822 139.887 77.1577 139.943 78.551ZM96.8191 79.3345C98.3109 80.4738 100.043 80.0704 100.242 78.4408C100.41 77.0708 100.361 75.6579 100.254 74.2761C100.177 73.287 99.3585 72.6034 98.467 72.7334C97.7399 72.8395 96.5776 73.5177 96.5245 74.036C96.3519 75.7229 96.5995 77.4528 96.8191 79.3345Z" fill="#BDFAFF"/>
<path d="M127.715 76.6421C128.614 78.163 128.441 78.9814 127.112 79.9309C122.931 82.9157 117.23 82.8954 113.033 79.8808C111.893 79.0618 111.596 77.9541 112.247 76.9555C112.902 75.9528 114.039 75.7157 115.227 76.4977C118.506 78.6569 121.744 78.6653 124.999 76.4793C125.896 75.8768 126.785 75.8488 127.715 76.6421Z" fill="#59595F"/>
<path d="M114.519 54.9577C115.446 52.1604 117.324 50.906 119.591 51.4908C121.702 52.0352 123.075 53.9865 122.82 56.08C122.591 57.9596 120.472 59.8415 118.67 59.7657C116.495 59.6743 114.657 57.9101 114.453 55.7088C114.434 55.4946 114.473 55.2749 114.519 54.9577Z" fill="#92E8E8"/>
<path d="M138.025 96.8208C136.343 95.801 135.448 94.3722 135.72 92.5295C135.96 90.9038 136.917 89.6767 138.604 89.1387C140.113 88.657 142.155 89.2059 143.083 90.4201C144.311 92.0255 144.357 93.7774 143.217 95.517C142.38 96.7953 140.493 97.5368 138.972 97.1721C138.677 97.1015 138.396 96.9773 138.025 96.8208Z" fill="#92E8E8"/>
<path d="M109.059 103.733C107.331 102.381 106.954 100.694 107.621 98.789C108.175 97.2046 109.451 96.3835 111.065 96.2295C112.915 96.0529 114.529 97.1524 115.268 98.9112C115.878 100.362 115.515 102.089 114.36 103.236C113.012 104.575 111.389 104.843 109.607 104.02C109.449 103.947 109.297 103.863 109.059 103.733Z" fill="#91E8E8"/>
<path d="M139.922 78.4412C139.888 77.1575 139.838 75.982 139.876 74.8094C139.917 73.5251 140.752 72.6669 141.87 72.653C142.9 72.6401 143.777 73.4523 143.876 74.6529C143.962 75.6903 143.944 76.7394 143.918 77.7819C143.892 78.819 143.505 79.689 142.397 79.9384C141.206 80.2065 140.367 79.7118 139.922 78.4412Z" fill="#59595F"/>
<path d="M96.7524 79.2502C96.5996 77.4527 96.352 75.7229 96.5246 74.036C96.5777 73.5177 97.74 72.8394 98.4671 72.7334C99.3586 72.6034 100.177 73.2869 100.254 74.2761C100.362 75.6579 100.41 77.0708 100.242 78.4407C100.043 80.0703 98.311 80.4737 96.7524 79.2502Z" fill="#58585E"/>
</g>
<defs>
<clipPath id="clip0_3004_4070">
<rect width="247" height="153" rx="15" fill="white"/>
</clipPath>
</defs>
</svg>
