<svg width="96" height="74" viewBox="0 0 96 74" fill="none" xmlns="http://www.w3.org/2000/svg">
<path d="M75.1873 72.6999C74.2764 72.8788 73.3726 73.126 72.453 73.2216C70.7442 73.3992 69.0263 73.4883 67.2269 73.5293C67.142 72.3895 67.1572 71.3344 67.1395 70.2798C67.0993 67.8877 67.5473 68.2299 65.0071 68.1721C64.2805 68.1556 64.1165 68.4729 64.1288 69.122C64.1583 70.6727 64.1352 72.2244 64.1334 73.7757C61.5712 73.7837 59.0089 73.7917 56.3597 73.7031C56.2702 72.5199 56.282 71.4328 56.2624 70.3464C56.2173 67.8427 56.6968 68.2367 54.0067 68.1723C53.2814 68.155 53.1109 68.4722 53.1208 69.1218C53.1437 70.6116 53.1148 72.1021 53.107 73.5923C50.8181 73.3558 48.5295 73.1179 46.2403 72.8846C45.9346 72.8535 45.6264 72.8464 45.2818 72.6754C45.2472 71.3393 45.2699 70.1558 45.2491 68.9731C45.207 66.5714 45.6844 66.931 43.1051 66.8753C42.4483 66.8611 42.2303 67.1115 42.2438 67.7501C42.2748 69.2129 42.2545 70.6768 42.255 72.1403C39.9665 71.5517 37.6771 70.9667 35.3904 70.3712C35.0107 70.2723 34.6429 70.1277 34.2732 69.8846C34.2669 68.4354 34.2683 67.1059 34.2447 65.7767C34.2029 63.4314 34.6635 63.7247 32.083 63.689C31.4188 63.6798 31.2212 63.9499 31.2314 64.5759C31.2534 65.9116 31.2225 67.2481 31.2133 68.5843C28.8342 67.4818 26.6713 66.0837 25.3056 63.7731C24.9235 63.1267 24.7365 62.2846 24.7104 61.5237C24.6337 59.2915 24.6831 57.055 24.6831 54.7633C22.8277 55.1315 21.0356 55.4872 19.1523 55.766C18.4146 54.5229 17.7852 53.3466 17.1178 52.1924C16.0082 50.2738 15.941 50.2773 14.1034 51.5525C13.6498 51.8672 13.5789 52.156 13.8588 52.6303C14.5527 53.8062 15.2085 55.0045 15.8796 56.1937C13.5497 56.2519 11.2398 56.3373 9.01784 55.3249C7.5001 54.6333 6.60179 53.506 5.83617 52.0923C4.39396 49.4294 2.82556 46.8348 1.36914 44.1512C2.06826 44.467 2.67545 44.9201 3.3531 45.2066C6.27187 46.4402 9.3252 46.3016 12.3583 45.8701C18.7339 44.9632 24.7153 42.7783 30.5068 40.0369C37.9679 36.5052 44.9242 32.1786 51.2262 26.8244C54.7746 23.8097 58.0394 20.5377 60.525 16.5678C62.0863 14.0743 63.2858 11.4651 62.6216 8.39014C63.0033 8.94842 63.4192 9.48661 63.7607 10.0685C65.2039 12.5273 66.6431 14.9888 68.0476 17.4698C68.9537 19.0706 68.9051 20.8305 68.3507 22.4668C67.7943 24.1091 66.8853 25.632 66.0382 27.1834C65.2898 26.0312 64.6621 24.8847 63.9567 23.7883C63.7952 23.5371 63.2762 23.2508 63.0759 23.3373C62.3491 23.6513 61.6877 24.1169 61.0198 24.5145C61.0647 24.7099 61.0655 24.8098 61.1085 24.8859C61.6591 25.8595 62.1963 26.8415 62.7772 27.7969C63.2082 28.5058 63.698 29.1789 64.1617 29.868C62.2647 31.849 60.3677 33.83 58.3682 35.7934C57.7302 34.8646 57.1924 33.9548 56.6595 33.0422C55.3244 30.7553 55.8507 31.1834 53.7651 32.2603C53.7099 32.2888 53.6569 32.3217 53.6016 32.3502C53.1508 32.5829 53.0711 32.8943 53.3359 33.3394C54.2098 34.8083 55.0658 36.2879 55.8897 37.8103C55.1776 38.4047 54.5326 38.9918 53.8256 39.491C52.4138 40.488 50.9679 41.4369 49.4846 42.3687C48.5573 40.8746 47.6815 39.4175 46.7777 37.9139C46.1569 38.2544 45.6292 38.5814 45.0701 38.841C44.332 39.1837 44.2397 39.5978 44.6687 40.3C45.4135 41.519 46.0691 42.7925 46.747 44.108C46.6706 44.2783 46.6357 44.4295 46.5441 44.4822C44.384 45.7253 42.2178 46.9577 40.0307 48.1283C39.4745 47.117 38.9643 46.155 38.4014 45.225C37.0245 42.95 37.6191 43.2757 35.3392 44.4651C34.8552 44.7176 34.7404 45.0219 35.036 45.5118C35.8385 46.8418 36.6153 48.1873 37.3535 49.5666C35.9643 50.2561 34.6238 50.9057 33.2146 51.5652C32.0688 51.997 30.9917 52.419 29.9159 52.773C29.3387 51.6139 28.7853 50.5086 28.176 49.4351C27.1127 47.562 27.1143 47.5971 25.2607 48.7088C24.6449 49.0782 24.6148 49.4181 24.9495 49.9772C25.698 51.2276 26.412 52.4987 27.1129 53.8053C27.448 54.2525 27.7409 54.7711 28.185 55.0383C29.7284 55.9672 31.262 56.9545 32.9108 57.6587C40.0499 60.7077 47.6415 61.7329 55.2942 62.1554C60.4096 62.4378 65.5506 62.2739 70.667 61.6757C76.0648 61.0445 81.386 60.09 86.4495 58.0802C90.3893 56.5164 94.2191 54.7202 95.7394 50.2422C95.7394 54.3599 95.7394 58.4776 95.7394 62.6829C95.6282 62.793 95.4355 62.7881 95.4176 62.8417C94.5797 65.3463 92.4747 66.6144 90.4434 67.9509C90.0943 68.1806 89.7138 68.3625 89.2341 68.567C89.089 68.5658 89.0577 68.5641 89.0302 68.4751C89.034 67.5172 89.0477 66.6463 89.0315 65.776C88.988 63.4308 89.4531 63.7249 86.8681 63.6889C86.2015 63.6797 86.0084 63.9532 86.0188 64.5778C86.0483 66.3497 86.0362 68.1223 86.0404 69.8946C84.3564 70.4494 82.6816 71.0347 80.9845 71.546C80.1176 71.8072 79.2107 71.9357 78.2405 72.0471C78.1579 70.9733 78.1734 69.9761 78.1519 68.9797C78.0999 66.5737 78.6353 66.9184 75.916 66.8794C75.3522 66.8713 75.1369 67.1003 75.146 67.6551C75.1735 69.3365 75.1754 71.0183 75.1873 72.6999Z" fill="#FE9923"/>
<path d="M62.5629 8.35157C63.2855 11.4651 62.086 14.0744 60.5247 16.5679C58.039 20.5378 54.7743 23.8097 51.2259 26.8244C44.9239 32.1787 37.9676 36.5053 30.5065 40.037C24.7149 42.7784 18.7336 44.9633 12.358 45.8702C9.32487 46.3016 6.27155 46.4402 3.35278 45.2066C2.67513 44.9202 2.06794 44.467 1.36291 44.0827C1.29749 44.0748 1.30826 44.0723 1.30078 44.021C1.22793 43.8799 1.16256 43.7901 1.09719 43.7002C0.764252 43.1579 0.431317 42.6156 0.0491914 42.1375C5.57275e-09 40.9512 0 39.7006 0 38.3625C0.125183 38.1944 0.328596 38.1393 0.364173 38.0297C1.40937 34.8098 3.34633 32.1566 5.5402 29.6351C8.89007 25.7849 12.7689 22.553 16.8808 19.5646C21.6858 16.0724 26.7832 13.0777 32.1439 10.5398C37.5499 7.98047 43.1343 5.86614 49.0489 4.86016C51.4352 4.45427 53.9207 4.3536 56.3389 4.49442C58.5848 4.6252 60.8174 5.23812 62.1462 7.40145C62.3144 7.67532 62.3875 8.00768 62.5629 8.35157ZM17.2242 26.6059C17.0531 26.7409 16.8827 26.8767 16.7109 27.0108C13.7177 29.3484 10.7878 31.7618 8.47122 34.8033C7.84044 35.6315 7.34796 36.5995 6.96148 37.5707C6.44881 38.8591 7.00715 40.0233 8.36463 40.2997C9.49941 40.5307 10.7241 40.5597 11.8769 40.4177C15.3315 39.9921 18.6005 38.8342 21.8075 37.54C27.2757 35.3334 32.4971 32.6249 37.5072 29.517C43.1001 26.0475 48.4966 22.3143 53.0304 17.4824C54.264 16.1678 55.438 14.7848 55.9566 12.9885C56.3775 11.5307 55.9007 10.4564 54.4242 10.2764C52.9391 10.0953 51.3746 10.107 49.9026 10.3643C45.5806 11.12 41.5146 12.7369 37.5583 14.571C30.4234 17.8787 23.6325 21.7936 17.2242 26.6059Z" fill="#FECC3D"/>
<path d="M29.9147 52.8412C30.9918 52.4192 32.0688 51.9972 33.2504 51.6176C34.8476 52.3445 36.287 53.2009 37.8425 53.6824C43.224 55.3484 48.803 55.883 54.3943 56.1992C56.9939 56.3462 59.6095 56.2793 62.2157 56.2187C64.8553 56.1574 67.4945 56.0188 70.13 55.8519C74.0493 55.6038 77.9379 55.0679 81.6935 53.9096C83.5489 53.3373 85.3985 52.5847 87.0625 51.5967C88.9106 50.4993 88.827 48.8999 87.1414 47.6214C85.4626 46.3481 83.4902 45.7536 81.513 45.2016C76.3927 43.7722 71.1264 43.16 65.8484 43.0122C60.7562 42.8696 55.6511 43.1944 50.5516 43.3123C49.8476 43.3285 49.1435 43.3353 48.4899 43.3087C48.8723 42.9826 49.2042 42.6942 49.5361 42.4058C50.9679 41.437 52.4138 40.4882 53.8257 39.4912C54.5327 38.9919 55.1777 38.4049 55.9491 37.7848C56.4432 37.4546 56.8388 37.197 57.2345 36.9395C59.1031 36.9486 60.9717 36.9629 62.8403 36.966C66.9367 36.9726 70.9844 37.4353 75.0327 38.0546C79.4036 38.7233 83.665 39.7774 87.7174 41.4989C90.546 42.7005 93.2895 44.1767 94.9775 46.9667C95.208 47.3477 95.42 47.7399 95.69 48.0627C95.7395 48.689 95.7395 49.3796 95.7395 50.1562C94.2192 54.7204 90.3893 56.5166 86.4496 58.0803C81.386 60.0902 76.0649 61.0446 70.6671 61.6758C65.5506 62.2741 60.4097 62.4379 55.2942 62.1555C47.6416 61.7331 40.05 60.7079 32.9109 57.6589C31.2621 56.9547 29.7284 55.9674 28.1851 55.0385C27.741 54.7712 27.4481 54.2527 27.1797 53.798C28.1539 53.4448 29.0343 53.143 29.9147 52.8412Z" fill="#FECD3D"/>
<path d="M12.3415 8.90904C12.3415 9.43189 12.3415 9.86368 12.3415 10.3542C11.4105 10.3542 10.5273 10.3542 9.55395 10.3542C9.55395 9.1595 9.55395 7.96298 9.55395 6.67984C8.27124 6.67984 7.07442 6.67984 5.83887 6.67984C5.83887 5.66841 5.83887 4.74448 5.83887 3.73108C7.01678 3.73108 8.21348 3.73108 9.49821 3.73108C9.49821 2.45024 9.49821 1.25331 9.49821 0C10.4694 0 11.3526 0 12.3259 0C12.3259 1.1968 12.3259 2.39361 12.3259 3.67691C13.6085 3.67691 14.8054 3.67691 16.0401 3.67691C16.0401 4.68838 16.0401 5.61229 16.0401 6.62563C14.86 6.62563 13.6633 6.62563 12.3415 6.62563C12.3415 7.41349 12.3415 8.11573 12.3415 8.90904Z" fill="#FEA832"/>
<path d="M79.284 24.9807C79.284 25.3797 79.284 25.6881 79.284 26.0837C80.5808 26.0837 81.84 26.0837 83.153 26.0837C83.153 27.0545 83.153 27.9383 83.153 28.9112C81.8928 28.9112 80.6338 28.9112 79.2882 28.9112C79.2882 30.1926 79.2882 31.39 79.2882 32.6245C78.3387 32.6245 77.4769 32.6245 76.5257 32.6245C76.5257 31.4431 76.5257 30.2459 76.5257 28.961C75.2444 28.961 74.0475 28.961 72.7959 28.961C72.7959 27.9894 72.7959 27.1062 72.7959 26.1326C73.998 26.1326 75.1953 26.1326 76.4456 26.1326C76.4456 24.8721 76.4456 23.6985 76.4456 22.4531C77.3815 22.4531 78.2661 22.4531 79.284 22.4531C79.284 23.2381 79.284 24.0641 79.284 24.9807Z" fill="#FEA832"/>
<path d="M64.2197 29.8419C63.6978 29.1792 63.208 28.506 62.7769 27.7971C62.196 26.8418 61.6588 25.8597 61.1082 24.8861C61.0652 24.8101 61.0644 24.7101 61.0195 24.5148C61.6875 24.1171 62.3488 23.6515 63.0756 23.3376C63.276 23.251 63.7949 23.5374 63.9565 23.7885C64.6618 24.885 65.2895 26.0314 65.9796 27.2154C65.4352 28.1192 64.8566 28.9674 64.2197 29.8419Z" fill="#CA5B29"/>
<path d="M57.2576 36.8833C56.8386 37.197 56.443 37.4546 55.9879 37.7378C55.0657 36.288 54.2096 34.8085 53.3358 33.3396C53.0709 32.8944 53.1506 32.5831 53.6015 32.3504C53.6567 32.3219 53.7097 32.289 53.7649 32.2605C55.8505 31.1836 55.3242 30.7555 56.6594 33.0423C57.1923 33.955 57.7301 34.8648 58.3118 35.8215C57.999 36.1871 57.6399 36.5071 57.2576 36.8833Z" fill="#C95B29"/>
<path d="M7.9021 73.9796C7.73937 72.7773 7.66603 71.5834 7.58416 70.2505C7.03197 70.2505 6.4243 70.2505 5.81663 70.2505C5.22819 70.2505 4.63974 70.2505 3.98926 70.2505C3.98926 69.2641 3.98926 68.3181 3.98926 67.282C5.1742 67.282 6.37063 67.282 7.65465 67.282C7.65465 65.9997 7.65465 64.8024 7.65465 63.5635C8.66608 63.5635 9.59035 63.5635 10.6042 63.5635C10.6042 64.7329 10.6042 65.9301 10.6042 67.2156C11.8852 67.2156 13.0822 67.2156 14.3381 67.2156C14.3381 68.2493 14.3381 69.1949 14.3381 70.2313C13.1471 70.2313 11.9501 70.2313 10.6673 70.2313C10.6673 71.5146 10.6673 72.7116 10.6673 73.9879C9.71817 73.9879 8.85483 73.9879 7.9021 73.9796Z" fill="#FEA832"/>
<path d="M53.1431 73.607C53.1145 72.1021 53.1434 70.6116 53.1205 69.1218C53.1105 68.4722 53.281 68.1549 54.0064 68.1723C56.6965 68.2367 56.217 67.8427 56.2621 70.3464C56.2817 71.4328 56.2699 72.5198 56.2781 73.6924C56.1407 73.786 55.9975 73.7937 55.7173 73.7511C54.8062 73.6753 54.0321 73.6499 53.2581 73.6246C53.2581 73.6246 53.1795 73.6217 53.1431 73.607Z" fill="#C85929"/>
<path d="M15.9629 56.2063C15.2086 55.0045 14.5527 53.8062 13.8589 52.6304C13.579 52.156 13.6499 51.8672 14.1035 51.5525C15.9411 50.2774 16.0083 50.2738 17.1178 52.1924C17.7853 53.3466 18.4147 54.5229 19.0747 55.7533C18.0742 55.9512 17.0601 56.085 15.9629 56.2063Z" fill="#C95A29"/>
<path d="M31.2091 68.5799C31.2225 67.2481 31.2534 65.9116 31.2315 64.5759C31.2212 63.9499 31.4188 63.6797 32.0831 63.6889C34.6636 63.7247 34.2029 63.4314 34.2447 65.7767C34.2684 67.1058 34.2669 68.4354 34.2358 69.8234C34.1949 69.882 34.1093 69.8782 34.0386 69.833C33.9188 69.7567 33.8698 69.7255 33.8207 69.6943C33.103 69.4284 32.3853 69.1625 31.592 68.7985C31.4103 68.6622 31.3043 68.6239 31.1982 68.5855C31.1982 68.5855 31.205 68.5755 31.2091 68.5799Z" fill="#C95A29"/>
<path d="M86.099 69.8908C86.0363 68.1223 86.0485 66.3497 86.0189 64.5778C86.0085 63.9532 86.2017 63.6797 86.8682 63.6889C89.4533 63.7249 88.9881 63.4308 89.0317 65.776C89.0479 66.6463 89.0342 67.5172 88.9926 68.4965C88.903 68.638 88.8621 68.678 88.8282 68.7253C88.1357 69.0479 87.4431 69.3704 86.6403 69.7165C86.4745 69.7693 86.4276 69.8089 86.3894 69.8589C86.3121 69.8682 86.2347 69.8775 86.099 69.8908Z" fill="#C95A29"/>
<path d="M42.2929 72.2051C42.2544 70.6768 42.2747 69.213 42.2438 67.7502C42.2302 67.1115 42.4482 66.8611 43.105 66.8753C45.6843 66.931 45.2069 66.5714 45.249 68.9731C45.2698 70.1558 45.2472 71.3393 45.2389 72.611C44.2661 72.5563 43.2985 72.4131 42.2929 72.2051Z" fill="#C95A29"/>
<path d="M75.2671 72.6946C75.1752 71.0183 75.1733 69.3364 75.1458 67.6551C75.1367 67.1003 75.352 66.8713 75.9158 66.8794C78.6351 66.9183 78.0997 66.5737 78.1517 68.9797C78.1732 69.9761 78.1577 70.9733 78.1619 72.0597C77.2256 72.3292 76.2864 72.5093 75.2671 72.6946Z" fill="#C95A29"/>
<path d="M64.2197 73.7878C64.135 72.2245 64.158 70.6728 64.1286 69.1221C64.1162 68.473 64.2802 68.1557 65.0069 68.1722C67.5471 68.2301 67.0991 67.8879 67.1392 70.2799C67.157 71.3345 67.1417 72.3896 67.1409 73.5321C66.1956 73.6797 65.251 73.7397 64.2197 73.7878Z" fill="#C85929"/>
<path d="M48.4385 43.3463C49.1426 43.3352 49.8468 43.3284 50.5507 43.3122C55.6502 43.1943 60.7554 42.8695 65.8475 43.0121C71.1255 43.1599 76.3918 43.7721 81.5121 45.2016C83.4894 45.7536 85.4618 46.348 87.1405 47.6214C88.8261 48.8999 88.9098 50.4992 87.0617 51.5966C85.3977 52.5847 83.548 53.3373 81.6926 53.9095C77.937 55.0678 74.0484 55.6037 70.1291 55.8518C67.4937 56.0187 64.8545 56.1573 62.2148 56.2187C59.6086 56.2792 56.993 56.3461 54.3935 56.1991C48.8021 55.8829 43.2232 55.3484 37.8416 53.6824C36.2862 53.2008 34.8467 52.3445 33.3184 51.6077C34.623 50.9057 35.9635 50.2561 37.4186 49.5491C38.3728 49.0586 39.2124 48.6253 40.0519 48.1921C42.217 46.9578 44.3832 45.7253 46.5433 44.4823C46.6349 44.4296 46.6698 44.2784 46.8149 44.1218C47.412 43.8292 47.9252 43.5878 48.4385 43.3463Z" fill="#FEA832"/>
<path d="M29.9153 52.7732C29.0335 53.1431 28.1531 53.4449 27.206 53.7541C26.4113 52.4989 25.6973 51.2278 24.9488 49.9774C24.6142 49.4184 24.6442 49.0785 25.2601 48.7091C27.1136 47.5973 27.112 47.5623 28.1753 49.4354C28.7847 50.5089 29.338 51.6142 29.9153 52.7732Z" fill="#C95B29"/>
<path d="M48.4899 43.3087C47.9261 43.5878 47.4128 43.8292 46.8309 44.0569C46.0692 42.7926 45.4136 41.5192 44.6688 40.3002C44.2398 39.598 44.3321 39.1839 45.0702 38.8411C45.6293 38.5815 46.157 38.2545 46.7778 37.9141C47.6816 39.4176 48.5574 40.8748 49.4847 42.3688C49.2042 42.6942 48.8723 42.9826 48.4899 43.3087Z" fill="#C95B29"/>
<path d="M40.0303 48.1283C39.2128 48.6253 38.3733 49.0585 37.4678 49.5092C36.615 48.1874 35.8382 46.8419 35.0357 45.5119C34.7401 45.022 34.8549 44.7177 35.3388 44.4652C37.6188 43.2757 37.0241 42.95 38.4011 45.225C38.964 46.1551 39.4741 47.1171 40.0303 48.1283Z" fill="#C95B29"/>
<path d="M17.2796 26.5679C23.6324 21.7936 30.4233 17.8787 37.5582 14.571C41.5145 12.7369 45.5805 11.12 49.9025 10.3643C51.3745 10.1069 52.939 10.0953 54.4241 10.2764C55.9007 10.4564 56.3774 11.5307 55.9565 12.9885C55.4379 14.7848 54.2639 16.1678 53.0303 17.4824C48.4965 22.3143 43.1001 26.0475 37.5071 29.517C32.497 32.6249 27.2757 35.3334 21.8074 37.54C18.6005 38.8341 15.3314 39.9921 11.8769 40.4177C10.7241 40.5597 9.49933 40.5307 8.36456 40.2997C7.00707 40.0233 6.44873 38.8591 6.9614 37.5707C7.34788 36.5995 7.84036 35.6315 8.47114 34.8033C10.7877 31.7618 13.7177 29.3484 16.7108 27.0108C16.8826 26.8767 17.053 26.7409 17.2796 26.5679Z" fill="#FEA832"/>
</svg>
