<svg width="67" height="88" viewBox="0 0 67 88" fill="none" xmlns="http://www.w3.org/2000/svg">
<path d="M42.3774 0C42.5059 1.71875e-07 42.6344 1.74157e-07 42.8094 0.0554223C40.2667 2.84752 39.251 6.23744 38.9711 9.87694C38.7565 12.6667 39.2395 15.3936 40.067 18.0678C41.3699 22.278 43.5962 26.0272 45.7841 29.7992C47.3363 32.4752 48.9561 35.115 50.4169 37.8403C52.4275 41.5914 53.9122 45.5389 54.3693 49.8933C55.7357 47.2285 57.025 44.5522 58.1761 41.8174C59.3235 39.0917 59.9318 36.2221 59.8362 33.2476C59.8026 32.2023 59.5726 31.1633 59.4283 30.092C59.5305 30.1268 59.6418 30.1289 59.6778 30.1822C60.6528 31.6257 61.7129 33.0215 62.5711 34.5325C64.9889 38.7899 65.9237 43.4828 66.157 48.3036C66.2919 51.0898 66.0863 53.8934 66.0122 56.6886C65.992 57.452 65.9462 58.2223 65.8196 58.9738C65.5164 60.7742 65.1735 62.5682 64.8187 64.3593C64.1975 67.4954 63.1487 70.504 61.6598 73.3119C59.979 76.4818 57.7183 79.2267 54.9299 81.5237C52.4748 83.5461 49.7563 85.127 46.8725 86.4091C45.2345 87.1373 43.4984 87.6196 41.6688 87.6747C41.0457 87.6934 40.4278 87.8866 39.8074 88C38.2619 88 36.7163 88 35.1405 87.9574C35.6957 87.8 36.2848 87.7014 36.866 87.5678C45.3676 85.6141 52.5516 76.7602 50.9373 66.7002C50.6241 64.7479 49.91 62.9334 48.9328 61.3414C48.6892 64.0222 48.5398 66.7519 48.1677 69.4507C47.8086 72.0558 45.6342 75.9967 44.3043 76.4354C44.3043 76.3163 44.2748 76.1954 44.3086 76.0962C45.4866 72.6347 44.871 69.2683 43.7141 65.9568C42.4248 62.2662 40.1159 59.143 38.0462 55.8834C36.3926 53.2791 34.7447 50.6571 33.321 47.9241C31.9944 45.3775 31.2483 42.5989 31.2549 39.6826C31.2566 38.9319 31.425 38.1815 31.5493 37.1658C27.0504 40.7797 24.3041 45.22 22.8879 50.5459C21.4515 55.9482 22.354 61.1411 24.2615 66.2779C21.5589 64.265 20.2264 61.4972 19.6655 58.1755C18.0414 60.0958 16.9464 62.1542 16.1371 64.37C15.2411 66.8233 14.8483 69.3877 15.1913 71.9588C15.9195 77.4175 18.8236 81.5836 23.3165 84.6206C24.8873 85.6824 26.6567 86.4484 28.2641 87.3336C26.9965 87.0276 25.7729 86.8208 24.609 86.4334C19.6532 84.7839 15.1285 82.4415 11.7097 78.3055C9.30337 75.3944 6.9134 72.4874 4.90438 69.2661C2.00485 64.6169 0.473639 59.5468 0.0858258 54.1331C-0.162179 50.6712 0.12921 47.2107 0.935149 43.8201C2.21941 38.417 4.53808 33.4759 7.67047 28.9111C8.07228 28.3256 8.55067 27.7929 9.11555 27.0824C9.13638 31.7356 10.2102 35.8128 13.1759 39.2342C13.1475 38.2894 12.9131 37.3681 12.932 36.4521C12.9766 34.2952 12.9631 32.1126 13.296 29.9913C13.9888 25.5769 15.6304 21.4879 18.0896 17.7471C20.1741 14.5762 22.753 11.8571 25.6715 9.45129C28.5251 7.09891 31.557 5.0164 34.9026 3.42958C37.3794 2.25486 39.8848 1.14098 42.3774 0Z" fill="#F3705A"/>
<path d="M30.7175 88.0001C29.748 87.8161 28.8592 87.6321 27.9277 87.3987C26.1955 86.4477 24.4146 85.6812 22.8337 84.6188C18.3118 81.5801 15.389 77.4117 14.6561 71.95C14.3108 69.3775 14.7061 66.8117 15.608 64.357C16.4225 62.14 17.5245 60.0804 19.1591 58.1591C19.7237 61.4826 21.0647 64.2519 23.7848 66.2659C21.865 61.1263 20.9566 55.9306 22.4024 50.5252C23.8277 45.1964 26.5917 40.7536 31.1196 37.1377C30.9945 38.154 30.825 38.9048 30.8233 39.6559C30.8166 42.5739 31.5676 45.3539 32.9028 47.902C34.3356 50.6365 35.9942 53.26 37.6585 55.8657C39.7415 59.1271 42.0653 62.252 43.3629 65.9447C44.5273 69.258 45.1469 72.6263 43.9612 76.0897C43.9272 76.1889 43.9569 76.3099 43.9569 76.4291C45.2954 75.9901 47.4838 72.047 47.8453 69.4406C48.2197 66.7402 48.3701 64.009 48.6153 61.3267C49.5988 62.9196 50.3174 64.7351 50.6327 66.6885C52.2575 76.7541 45.027 85.6129 36.4706 87.5676C35.8857 87.7013 35.2928 87.8 34.6532 87.9575C33.3347 88.0001 32.0665 88.0001 30.7175 88.0001Z" fill="#FFD15C"/>
</svg>
