<svg width="247" height="153" viewBox="0 0 247 153" fill="none" xmlns="http://www.w3.org/2000/svg">
<g clip-path="url(#clip0_3004_4087)">
<rect width="247" height="153" rx="15" fill="white"/>
<path d="M233.984 39.747C233.984 33.2578 239.259 27.9976 245.766 27.9976C246.183 27.9976 246.594 28.0199 247 28.0621V0H144C146.089 5.36689 151.208 13.5609 163.456 16.7985C182.35 21.7926 211.488 17.2525 209.667 33.143C207.948 48.1418 210.698 87.1792 247 80.1647V51.4324C246.594 51.4747 246.183 51.4969 245.767 51.4969C239.259 51.4965 233.984 46.2363 233.984 39.747ZM228.374 20.1278C226.133 20.1278 224.316 18.7049 224.316 16.9497C224.316 15.1945 226.133 13.7716 228.374 13.7716C230.615 13.7716 232.431 15.1945 232.431 16.9497C232.431 18.7049 230.615 20.1278 228.374 20.1278Z" fill="#46B17B"/>
<path d="M30.8772 136.171C16.6609 131.496 32.4113 86.0339 17.3438 76.0388C12.0605 72.5341 5.8453 72.4551 0 73.8276V153H101C92.5991 112.667 44.4622 140.638 30.8772 136.171ZM8.96112 122.614C6.72593 122.614 4.48078 119.708 4.48078 116.7C4.48078 113.692 6.72637 111.721 8.96112 111.721C11.1963 111.721 13.8751 114.627 13.8751 117.635C13.8751 120.643 11.1959 122.614 8.96112 122.614Z" fill="#7BC9EF"/>
<path d="M137.305 49.7823C134.543 49.589 132.494 47.6498 132.396 45.0867C132.314 42.9555 132.237 40.8233 132.215 38.6909C132.185 35.7244 132.174 32.7568 132.223 29.7908C132.245 28.4078 132.368 26.9769 133.361 25.8973C133.993 25.2108 134.811 24.6952 135.484 24.0515C141.237 24.0001 147.051 24.0001 153.002 24.046C155.697 25.0927 157.012 26.6872 157.017 28.8685C157.029 34.1628 157.036 39.4572 157.001 44.7514C156.997 45.3906 156.814 46.0644 156.565 46.6596C155.896 48.2553 154.568 49.1114 152.909 49.6284C152.658 49.6552 152.474 49.6733 152.205 49.6673C150.588 49.6555 149.058 49.6678 147.443 49.6613C144.313 49.6343 141.269 49.6212 138.225 49.6249C137.918 49.6253 137.612 49.7274 137.305 49.7823ZM146.956 45.5186C147.153 44.9784 147.517 44.4397 147.522 43.8976C147.567 39.2297 147.552 34.5611 147.54 29.8927C147.539 29.4905 147.559 28.9847 147.34 28.7112C147.024 28.3167 146.531 27.9372 146.052 27.8315C145.431 27.6947 144.878 28.046 144.69 28.7265C144.592 29.0856 144.526 29.4666 144.525 29.8379C144.514 34.5378 144.513 39.2377 144.52 43.9376C144.523 45.5332 145.299 46.0842 146.956 45.5186ZM138.681 27.8019C137.402 27.8643 136.944 28.3285 136.941 29.6168C136.934 32.893 136.939 36.1691 136.939 39.4452C136.939 41.0203 136.919 42.5957 136.947 44.1703C136.969 45.4308 137.959 46.1566 139.044 45.7252C139.928 45.3739 139.929 44.4961 139.936 43.7946C139.986 39.133 139.988 34.4704 139.938 29.8088C139.93 29.0376 139.858 28.1146 138.681 27.8019ZM154.75 28.2841C154.219 27.7642 153.543 27.5512 152.957 27.9849C152.6 28.2489 152.316 28.8582 152.312 29.3152C152.267 34.3606 152.279 39.4066 152.288 44.4523C152.29 45.4336 152.721 45.817 153.696 45.7878C154.578 45.7613 155.118 45.1781 155.12 44.1462C155.132 39.2581 155.132 34.37 155.114 29.4819C155.113 29.1224 154.939 28.7634 154.75 28.2841Z" fill="#FFE177"/>
<path d="M162.297 74.2136C162.307 78.0937 162.323 81.9738 162.325 85.854C162.33 93.5839 162.361 101.314 162.309 109.044C162.289 111.905 161.291 114.45 159.4 116.652C157.656 118.683 155.566 120.095 152.938 120.68C152.861 120.697 152.804 120.808 152.796 120.938C150.891 121 148.929 121 146.879 121C146.368 120.795 145.945 120.59 145.548 120.293C147.731 119.469 149.465 118.113 150.894 116.393C152.637 114.295 153.611 111.868 153.612 109.105C153.614 97.4873 153.612 85.8699 153.698 74.236C156.622 74.2175 159.46 74.2156 162.297 74.2136Z" fill="#FD4755"/>
<path d="M92.7943 50.3687C91.2676 49.2841 89.6801 48.2747 88.2257 47.1004C84.2086 43.8572 80.6895 40.1767 79.174 35.08C78.5746 33.0641 78.2694 30.937 78.0544 28.8375C77.8483 26.8251 78.7038 25.2282 80.6178 24.3222C80.6938 24.2862 80.7353 24.1772 80.7322 24.0511C81.8123 24 82.953 24 84.122 24.0506C84.9551 24.9492 85.7601 25.7973 86.5397 26.7242C86.6559 27.8309 86.7975 28.8589 86.9323 29.9657C87.3223 31.3818 87.7191 32.7191 88.1224 34.1195C88.8639 35.1562 89.5988 36.13 90.3575 37.1611C93.6016 40.5257 97.4602 42.9557 101.439 45.304C101.519 45.4297 101.565 45.5221 101.64 45.567C104.22 47.11 106.8 48.6518 109.387 50.1806C109.562 50.284 109.798 50.2853 110.005 50.3341C110.633 50.7919 111.26 51.2497 111.912 51.8533C111.936 52.9583 111.992 53.9215 111.923 54.8757C111.754 57.2186 110.61 58.9427 108.432 60.0023C106.034 58.4781 103.703 56.9574 101.342 55.3775C98.6202 53.7014 95.9293 52.0831 93.2334 50.4731C93.1102 50.3995 92.9417 50.4018 92.7943 50.3687Z" fill="#01D0FB"/>
<path d="M152.977 49.6196C154.568 49.1114 155.896 48.2553 156.565 46.6595C156.814 46.0643 156.997 45.3906 157.001 44.7513C157.036 39.4572 157.029 34.1627 157.017 28.8684C157.012 26.6872 155.696 25.0927 153.091 24.046C156.709 24 160.376 24 164.131 24C164.332 24.1468 164.413 24.356 164.562 24.4311C166.567 25.4444 167.426 27.1435 167.435 29.3069C167.456 34.2589 167.408 39.2114 167.454 44.1631C167.482 47.1538 165.553 49.4817 162.324 49.7591C159.313 49.7559 156.466 49.7622 153.554 49.7565C153.318 49.7028 153.147 49.6612 152.977 49.6196Z" fill="#FECE85"/>
<path d="M80.7597 121C80.6164 120.876 80.5961 120.691 80.502 120.639C78.163 119.352 77.8464 117.584 78.0527 115.382C78.2063 113.743 78.5827 112.116 78.9773 110.512C79.631 107.856 80.9561 105.517 82.6544 103.393C85.3833 99.9808 88.74 97.2856 92.408 94.9536C92.5111 94.888 92.5838 94.7746 92.8022 94.6714C93.1086 94.7145 93.3021 94.7384 93.4556 94.8295C95.9615 96.3163 98.4639 97.809 100.961 99.3106C101.138 99.4169 101.267 99.6025 101.356 99.7639C100.142 100.477 98.9629 101.133 97.8478 101.885C95.1814 103.683 92.4563 105.416 90.2712 107.918C89.51 108.942 88.8109 109.944 88.088 111.015C87.6891 112.428 87.3138 113.77 86.8879 115.176C86.7463 116.277 86.6554 117.316 86.5373 118.416C85.8475 119.185 85.182 119.89 84.5252 120.603C84.4204 120.717 84.3545 120.867 84.2706 121C83.1299 121 81.9892 121 80.7597 121Z" fill="#01D0FB"/>
<path d="M114.038 97.5C115.678 98.9921 117.407 100.399 118.941 101.994C121.875 105.047 123.752 108.7 124.408 112.897C124.648 114.435 124.662 116.029 124.596 117.589C124.541 118.872 123.713 119.792 122.628 120.458C122.421 120.585 122.237 120.75 122.102 120.948C121.021 121 119.88 121 118.71 120.948C117.67 120.246 116.737 119.521 116.277 118.276C116.155 117.169 116.022 116.143 115.897 115.039C115.482 113.618 115.059 112.274 114.623 110.864C113.907 109.829 113.203 108.861 112.473 107.837C111.515 106.89 110.582 105.999 109.651 105.026C108.971 100.999 111.052 98.2594 114.038 97.5Z" fill="#FD4855"/>
<path d="M122.073 24C122.166 24.0927 122.138 24.246 122.18 24.2693C124.328 25.4425 124.904 27.2125 124.685 29.6153C124.466 32.0102 124.019 34.2859 123.129 36.5087C122.178 38.887 120.844 41.0278 119.086 42.858C117.532 44.4752 115.805 45.9261 114.027 47.4637C112.366 46.9009 111.03 46.1193 110.25 44.5565C109.499 43.0508 109.413 41.5032 109.674 39.8341C110.632 38.8859 111.566 37.9964 112.557 37.077C113.288 36.0544 113.962 35.0617 114.685 34.0221C115.119 32.6108 115.504 31.2464 115.921 29.81C116.059 28.7061 116.163 27.6743 116.294 26.581C117.011 25.8025 117.706 25.0888 118.39 24.3643C118.477 24.2714 118.506 24.1228 118.562 24C119.702 24 120.843 24 122.073 24Z" fill="#FD4855"/>
<path d="M153.611 74.2523C153.612 85.8697 153.615 97.487 153.612 109.104C153.611 111.868 152.638 114.295 150.895 116.393C149.465 118.113 147.731 119.468 145.511 120.23C140.941 118.475 138.236 115.227 137.518 110.405C137.372 109.422 137.327 108.416 137.326 107.421C137.314 96.4145 137.319 85.4076 137.421 74.312C140.861 74.2095 144.2 74.1959 147.628 74.1959C149.236 74.2015 150.754 74.1935 152.357 74.198C152.836 74.1989 153.231 74.1873 153.627 74.1957C153.628 74.2158 153.611 74.2523 153.611 74.2523Z" fill="#FE646F"/>
<path d="M114.007 97.4411C111.052 98.2595 108.971 100.999 109.584 105.016C106.818 103.308 104.118 101.53 101.419 99.7514C101.268 99.6027 101.138 99.4172 100.961 99.3108C98.4642 97.8093 95.9618 96.3166 93.4559 94.8298C93.3024 94.7387 93.109 94.7147 92.8641 94.6454C91.3973 93.6301 89.9704 92.6678 88.6094 91.6199C85.0043 88.8441 81.8387 85.6622 79.9408 81.4473C78.9532 79.2541 78.4074 76.9403 78.1624 74.5089C77.8311 71.2214 78.2825 68.0904 79.3566 65.0228C80.1984 62.6182 81.5261 60.489 83.1629 58.5241C85.8791 55.2636 89.2394 52.7964 92.7676 50.4272C92.9415 50.4018 93.1099 50.3995 93.2331 50.4731C95.929 52.0831 98.6199 53.7014 101.307 55.4373C100.332 56.1416 99.3537 56.7118 98.3954 57.3146C95.5432 59.1089 92.7428 60.971 90.4637 63.5846C89.6763 64.6072 88.9529 65.6131 88.221 66.6605C88.2125 66.7019 88.2033 66.7861 88.1523 66.8304C87.7117 68.2373 87.322 69.5999 86.8768 71.0212C86.8585 72.0656 86.8958 73.0512 86.9288 74.1159C87.3229 75.5311 87.7212 76.8673 88.1198 78.2666C88.9226 79.3638 89.7251 80.3978 90.5494 81.49C91.3266 82.2992 91.9941 83.1755 92.8533 83.7785C95.6805 85.7624 98.5771 87.6474 101.479 89.6287C103.849 91.0872 106.184 92.4917 108.526 93.8838C109.005 94.1685 109.511 94.4067 110.005 94.6663C111.329 95.5716 112.653 96.4768 114.007 97.4411Z" fill="#FE646F"/>
<path d="M108.499 60.006C110.61 58.9428 111.754 57.2187 111.923 54.8758C111.991 53.9216 111.935 52.9584 111.938 51.9133C113.109 52.6597 114.334 53.4245 115.436 54.3382C117.788 56.2898 119.87 58.4881 121.505 61.1081C123.021 63.5378 124.017 66.1105 124.46 68.9509C125.015 72.5059 124.769 75.9716 123.67 79.3737C122.783 82.12 121.393 84.6119 119.394 86.7032C117.895 88.2701 116.277 89.7222 114.65 91.1652C114.787 87.6492 112.614 85.3989 109.303 85.3642C109.038 85.3614 108.777 85.1149 108.538 84.9221C109.812 83.7204 111.061 82.5782 112.372 81.4156C113.155 80.3346 113.875 79.2741 114.655 78.1783C115.107 76.771 115.499 75.399 115.931 73.958C115.945 72.9169 115.918 71.9448 115.899 70.8942C115.468 69.4728 115.029 68.13 114.589 66.7463C114.588 66.7054 114.563 66.6272 114.575 66.56C113.827 65.5166 113.068 64.5403 112.284 63.5069C111.006 62.3019 109.753 61.1539 108.499 60.006Z" fill="#01C0FA"/>
<path d="M147.539 74.1826C144.2 74.1963 140.861 74.2099 137.435 74.226C137.338 67.9011 137.327 61.5737 137.318 55.2463C137.315 53.4832 137.317 51.7201 137.311 49.8697C137.611 49.7275 137.918 49.6254 138.224 49.6251C141.268 49.6213 144.313 49.6344 147.447 49.741C147.537 57.9538 147.538 66.0682 147.539 74.1826Z" fill="#C8EFFE"/>
<path d="M108.513 84.9817C108.776 85.1149 109.038 85.3614 109.302 85.3642C112.614 85.3989 114.787 87.6492 114.59 91.1918C113.082 92.3672 111.572 93.4558 110.033 94.6054C109.511 94.4068 109.004 94.1686 108.525 93.8839C106.183 92.4918 103.849 91.0873 101.517 89.5693C102.329 88.9581 103.146 88.4802 103.941 87.9682C105.472 86.9829 106.99 85.9783 108.513 84.9817Z" fill="#02D0FB"/>
<path d="M109.649 39.8928C109.413 41.5033 109.499 43.0509 110.25 44.5566C111.03 46.1194 112.366 46.901 113.968 47.4886C112.714 48.405 111.391 49.3098 110.036 50.2744C109.797 50.2854 109.562 50.2842 109.387 50.1807C106.799 48.6519 104.219 47.1101 101.64 45.5671C101.565 45.5222 101.518 45.4298 101.5 45.2901C102.783 44.4421 104.039 43.6854 105.262 42.8792C106.739 41.9057 108.188 40.8902 109.649 39.8928Z" fill="#FD646F"/>
<path d="M153.62 49.7686C156.467 49.7623 159.313 49.7559 162.247 49.7696C162.331 57.8719 162.328 65.9542 162.311 74.125C159.46 74.2156 156.623 74.2175 153.699 74.236C153.612 74.2526 153.628 74.216 153.625 74.1091C153.621 65.9244 153.621 57.8465 153.62 49.7686Z" fill="#9AE6FC"/>
<path d="M147.628 74.1959C147.538 66.0679 147.538 57.9534 147.532 49.7594C149.058 49.6676 150.588 49.6553 152.201 49.7456C152.28 57.9606 152.276 66.073 152.273 74.1855C150.754 74.1935 149.235 74.2015 147.628 74.1959Z" fill="#F8F3F0"/>
<path d="M146.897 45.5675C145.298 46.0841 144.522 45.5331 144.519 43.9376C144.512 39.2377 144.513 34.5377 144.524 29.8378C144.525 29.4665 144.591 29.0855 144.69 28.7264C144.877 28.0459 145.43 27.6946 146.051 27.8315C146.53 27.9371 147.023 28.3167 147.339 28.7111C147.559 28.9847 147.539 29.4904 147.54 29.8927C147.552 34.561 147.567 39.2296 147.521 43.8975C147.516 44.4397 147.153 44.9783 146.897 45.5675Z" fill="#FECE85"/>
<path d="M138.755 27.8142C139.858 28.1146 139.929 29.0376 139.937 29.8087C139.988 34.4703 139.985 39.133 139.936 43.7945C139.928 44.4961 139.927 45.3738 139.044 45.7252C137.959 46.1565 136.968 45.4308 136.946 44.1702C136.919 42.5956 136.939 41.0202 136.939 39.4452C136.939 36.169 136.934 32.8929 136.941 29.6168C136.944 28.3285 137.401 27.8643 138.755 27.8142Z" fill="#FECF85"/>
<path d="M154.797 28.3442C154.938 28.7634 155.112 29.1224 155.113 29.4819C155.131 34.37 155.131 39.2581 155.119 44.1462C155.117 45.1781 154.577 45.7613 153.695 45.7878C152.72 45.817 152.289 45.4336 152.287 44.4523C152.278 39.4066 152.266 34.3606 152.311 29.3152C152.315 28.8582 152.599 28.2489 152.956 27.9849C153.542 27.5512 154.218 27.7642 154.797 28.3442Z" fill="#FECE85"/>
<path d="M152.357 74.1983C152.276 66.0733 152.28 57.9609 152.286 49.7698C152.474 49.6733 152.657 49.6552 152.909 49.6284C153.147 49.6612 153.318 49.7028 153.554 49.7565C153.62 57.8465 153.62 65.9244 153.623 74.0891C153.23 74.1875 152.836 74.1992 152.357 74.1983Z" fill="#C8EFFE"/>
<path d="M115.921 29.81C106.297 29.8795 96.7053 29.877 87.0261 29.8807C86.7969 28.8589 86.6553 27.8309 86.5391 26.7242C96.4075 26.6474 106.251 26.6494 116.181 26.647C116.163 27.6743 116.059 28.7061 115.921 29.81Z" fill="#FFE177"/>
<path d="M112.557 37.0769C107.057 37.0953 101.615 37.0825 96.1726 37.0729C94.2848 37.0696 92.3969 37.0744 90.4213 37.0895C89.5985 36.1299 88.8635 35.1562 88.1221 34.1194C96.8932 34.0522 105.671 34.048 114.542 34.0564C113.962 35.0616 113.288 36.0543 112.557 37.0769Z" fill="#FFE177"/>
<path d="M86.8883 115.176C96.5312 115.117 106.123 115.122 115.803 115.122C116.022 116.143 116.155 117.169 116.277 118.276C106.424 118.354 96.5821 118.351 86.6523 118.352C86.6559 117.316 86.7468 116.277 86.8883 115.176Z" fill="#FFE177"/>
<path d="M90.2715 107.918C97.6634 107.906 104.993 107.915 112.411 107.909C113.203 108.862 113.907 109.829 114.623 110.864C107.772 110.941 100.908 110.951 94.0446 110.959C92.1239 110.961 90.2032 110.957 88.1973 110.951C88.8112 109.944 89.5103 108.942 90.2715 107.918Z" fill="#FFE177"/>
<path d="M115.931 73.9577C106.296 74.0237 96.7026 74.0207 87.0207 74.0271C86.8954 73.051 86.8582 72.0654 86.8765 71.0211C96.5266 70.9692 106.121 70.9761 115.803 70.9778C115.918 71.9446 115.944 72.9167 115.931 73.9577Z" fill="#FFE177"/>
<path d="M112.372 81.4153C105.107 81.4262 97.9054 81.4166 90.6152 81.4193C89.7244 80.3977 88.922 79.3636 88.1191 78.2664C96.8849 78.1976 105.651 78.1918 114.506 78.1997C113.874 79.2739 113.154 80.3344 112.372 81.4153Z" fill="#FFE178"/>
<path d="M90.4637 63.5846C97.7293 63.576 104.931 63.5842 112.22 63.5781C113.068 64.5402 113.828 65.5164 114.488 66.5599C105.669 66.6244 96.9491 66.6217 88.2295 66.619C88.9529 65.6131 89.6763 64.6072 90.4637 63.5846Z" fill="#FFE177"/>
<path d="M88.2209 66.6604C96.949 66.6217 105.669 66.6244 114.476 66.6271C114.563 66.6271 114.588 66.7053 114.589 66.7462C108.253 66.7969 101.915 66.8079 95.5776 66.8157C93.1811 66.8187 90.7846 66.8143 88.2956 66.7996C88.2031 66.786 88.2124 66.7019 88.2209 66.6604Z" fill="#FFFF55"/>
</g>
<defs>
<clipPath id="clip0_3004_4087">
<rect width="247" height="153" rx="15" fill="white"/>
</clipPath>
</defs>
</svg>
