<svg width="48" height="47" viewBox="0 0 48 47" fill="none" xmlns="http://www.w3.org/2000/svg">
<path d="M44.1038 34.8663C43.5952 35.6707 43.1159 36.4771 42.5863 37.2489C42.191 37.8249 41.7553 38.378 41.2926 38.9015C40.7738 39.4885 40.2162 40.0429 39.653 40.5882C39.2296 40.9982 38.7762 41.378 38.3262 41.7595C37.5896 42.3838 36.8102 42.9529 35.975 43.4368C35.1456 43.9174 34.3124 44.3966 33.4519 44.8171C32.2352 45.4117 30.9645 45.8805 29.6466 46.201C28.784 46.4108 27.9144 46.5969 27.0411 46.7555C26.516 46.8507 25.9789 46.8956 25.4451 46.9225C24.5413 46.9679 23.6355 47.0078 22.7311 46.9987C22.0844 46.9921 21.4343 46.9316 20.7934 46.8412C19.8487 46.7079 18.9023 46.5642 17.9719 46.3565C16.6575 46.0629 15.3873 45.6196 14.1508 45.0802C12.7035 44.4488 11.3244 43.6958 10.041 42.7768C9.41882 42.3312 8.81487 41.8571 8.23005 41.3634C7.68707 40.905 7.15264 40.4299 6.66505 39.9143C6.06967 39.2847 5.52029 38.6109 4.96337 37.9459C4.2874 37.1387 3.71702 36.2553 3.18665 35.3495C2.59798 34.3442 2.0832 33.2985 1.65596 32.2131C1.24032 31.1573 0.882878 30.0809 0.639399 28.9718C0.487099 28.278 0.350688 27.5788 0.251964 26.8757C0.153729 26.1761 0.0884922 25.4699 0.0509793 24.7644C0.0102969 23.9992 -0.0185203 23.2299 0.0141275 22.4652C0.0580395 21.4368 0.178723 20.4139 0.356837 19.3967C0.580253 18.1206 0.906238 16.8744 1.33109 15.653C1.72942 14.508 2.2307 13.4068 2.8015 12.3383C3.39363 11.2298 4.07405 10.1747 4.84576 9.18426C5.32559 8.5684 5.84838 7.98417 6.37653 7.40835C6.80787 6.9381 7.2525 6.47465 7.73305 6.0562C8.39534 5.47952 9.08037 4.92565 9.78551 4.40222C10.9673 3.52494 12.2418 2.79525 13.5757 2.17483C14.8036 1.60375 16.0661 1.11798 17.3843 0.798494C18.2471 0.589388 19.1165 0.402468 19.9899 0.243957C20.5149 0.148673 21.0521 0.104206 21.5858 0.0774506C22.4897 0.0321419 23.3954 -0.00757215 24.2999 0.0012325C24.9399 0.00746136 25.5792 0.0956023 26.2185 0.15074C27.3313 0.246705 28.4286 0.444757 29.4975 0.759673C30.5013 1.05543 31.5001 1.37989 32.4754 1.75822C34.1029 2.38958 35.6158 3.2491 37.041 4.25398C37.6503 4.68353 38.2311 5.15668 38.7996 5.63979C39.3361 6.0957 39.8673 6.5642 40.35 7.0752C40.9496 7.70996 41.511 8.38265 42.064 9.05926C43.2087 10.4597 44.1148 12.0117 44.8775 13.646C45.4388 14.8487 45.9067 16.0903 46.216 17.3839C46.4209 18.2409 46.6102 19.1029 46.768 19.9696C46.8635 20.4946 46.9094 21.0318 46.9351 21.5655C46.9806 22.5095 47.0185 23.4553 47.0115 24.3999C47.0071 24.9997 46.9362 25.6016 46.8581 26.1977C46.758 26.9614 46.641 27.7242 46.493 28.4799C46.3768 29.0732 46.2209 29.6606 46.0504 30.2412C45.606 31.7547 44.9998 33.2036 44.2575 34.5954C44.211 34.6826 44.1602 34.7675 44.1038 34.8663ZM13.0338 24.0112C13.4771 24.2819 13.9526 24.47 14.468 24.5401C14.6042 24.5586 14.6554 24.6169 14.6973 24.7381C15.1166 25.95 15.7424 27.0446 16.5951 28.0038C16.9395 28.3914 17.3057 28.7596 17.6578 29.1322C17.6724 29.1236 17.651 29.14 17.6269 29.1499C16.7017 29.527 15.7757 29.9021 14.8511 30.2804C13.8986 30.6702 12.9673 31.1016 12.1489 31.7384C11.2329 32.4511 10.6019 33.3539 10.5687 34.54C10.5232 36.1633 10.5521 37.7887 10.5538 39.4132C10.5541 39.6763 10.7297 39.8997 10.9766 39.9897C11.413 40.149 11.8406 39.8323 11.8414 39.3417C11.8438 37.8442 11.8416 36.3466 11.8427 34.8491C11.8432 34.1685 12.0868 33.588 12.563 33.1012C13.0128 32.6413 13.5419 32.2866 14.1189 32.0228C15.2755 31.4939 16.4491 31.002 17.6163 30.4961C17.6303 30.49 17.6513 30.4997 17.6681 30.5019C17.6428 33.4754 20.0323 36.085 23.1131 36.2885C24.4789 36.3787 25.7414 36.0439 26.8558 35.2448C28.4769 34.0825 29.2897 32.4774 29.356 30.4729C30.1823 30.8156 30.999 31.1252 31.7897 31.4911C32.4714 31.8066 33.1455 32.1505 33.7835 32.5456C34.7435 33.1403 35.2343 33.9972 35.1942 35.1724C35.1474 36.5413 35.1828 37.913 35.1843 39.2835C35.1844 39.3761 35.1854 39.4727 35.2103 39.5607C35.2986 39.8738 35.5972 40.0658 35.9159 40.0253C36.2349 39.9849 36.4729 39.7145 36.4733 39.3712C36.4749 37.7935 36.4743 36.2157 36.4684 34.638C36.4677 34.4591 36.4388 34.2786 36.4061 34.1019C36.2203 33.0964 35.6501 32.3359 34.8617 31.7227C33.9309 30.9987 32.8666 30.5214 31.784 30.0795C30.9642 29.7449 30.1455 29.4077 29.3214 29.0695C29.3392 29.0439 29.3475 29.0245 29.3618 29.0123C30.7574 27.8257 31.7561 26.3692 32.3522 24.6355C32.3715 24.5791 32.4561 24.5193 32.519 24.5074C34.0988 24.2106 35.1816 23.3083 35.6436 21.7761C36.1013 20.2582 35.7013 18.9155 34.5612 17.8072C34.446 17.6952 34.3964 17.5825 34.3851 17.4275C34.2828 16.034 33.9979 14.68 33.4595 13.3878C32.2267 10.4291 30.1102 8.41298 27.0296 7.47198C24.9895 6.84879 22.9115 6.80589 20.8288 7.25154C18.283 7.7963 16.235 9.10802 14.7693 11.2789C13.5179 13.1324 12.9727 15.2177 12.8066 17.4203C12.7973 17.5437 12.7559 17.618 12.6635 17.7025C12.4081 17.9357 12.1395 18.1661 11.9343 18.441C10.6072 20.2194 11.1037 22.7484 13.0338 24.0112Z" fill="#333333"/>
<path d="M25.4803 15.8795C25.9051 15.4832 26.3185 15.0956 26.7464 14.6943C26.8106 14.7654 26.893 14.8589 26.978 14.95C28.2763 16.3414 29.8162 17.3684 31.6109 18.0058C31.7526 18.0561 31.7939 18.1237 31.7846 18.2633C31.7736 18.4296 31.7769 18.5975 31.7836 18.7644C31.7984 19.1285 32.0717 19.402 32.4201 19.4084C32.7728 19.4148 33.05 19.1568 33.0776 18.79C33.086 18.6776 33.0789 18.5641 33.0789 18.4493C33.6834 18.5267 34.3865 19.555 34.4905 20.4936C34.6132 21.6015 33.8885 22.7298 32.7853 23.1327C32.8571 22.7551 32.9297 22.3848 32.9971 22.0135C33.0268 21.8495 33.0525 21.6841 33.0687 21.5183C33.1061 21.1353 32.8625 20.8226 32.4995 20.7779C32.1438 20.7341 31.8242 20.9936 31.7768 21.3716C31.6351 22.5019 31.3734 23.6016 30.9365 24.6559C30.2297 26.3613 29.1769 27.7792 27.5369 28.6978C26.3572 29.3586 25.0751 29.6283 23.7338 29.6535C22.0634 29.6848 20.483 29.3668 19.0627 28.4382C17.752 27.5813 16.8584 26.3792 16.2172 24.9732C15.69 23.8173 15.3828 22.599 15.212 21.3435C15.1594 20.9571 14.8531 20.6998 14.4987 20.7379C14.125 20.7781 13.8682 21.0919 13.9228 21.4881C13.9965 22.0219 14.0981 22.5519 14.1871 23.0799C13.3501 22.9329 12.5473 21.841 12.4937 20.7635C12.4452 19.7867 13.1084 18.7011 13.9166 18.4669C13.9166 18.5631 13.914 18.6537 13.917 18.7441C13.9298 19.119 14.2077 19.3938 14.5683 19.39C14.9255 19.3861 15.2012 19.1042 15.2088 18.7304C15.2127 18.5376 15.2095 18.3447 15.2095 18.2037C15.7942 18.0668 16.3576 17.9443 16.9151 17.7992C17.1125 17.7479 17.3057 17.6588 17.4822 17.5553C17.6533 17.455 17.7991 17.4527 17.9837 17.5205C19.4888 18.0737 20.9921 17.9966 22.4959 17.4989C23.5843 17.1387 24.5755 16.605 25.4803 15.8795ZM23.181 27.4284C23.2476 27.4341 23.3142 27.4404 23.3808 27.4455C24.5961 27.5378 25.6733 26.5401 25.6782 25.3176C25.6797 24.9459 25.4133 24.6571 25.0541 24.6413C24.7071 24.626 24.4242 24.889 24.3848 25.2501C24.3698 25.3879 24.3494 25.5319 24.295 25.6572C24.139 26.0167 23.7441 26.2121 23.353 26.1437C22.9474 26.0728 22.6822 25.7477 22.6405 25.2702C22.6074 24.8901 22.326 24.6254 21.972 24.6414C21.6073 24.6578 21.3406 24.953 21.3495 25.3381C21.3728 26.3407 22.0878 27.2303 23.181 27.4284ZM24.3679 21.6501C24.2089 21.7044 24.027 21.7265 23.8956 21.8198C23.6382 22.0027 23.4415 22.0347 23.1619 21.8677C22.8049 21.6543 22.4195 21.7326 22.2223 22.0584C22.0256 22.3833 22.1322 22.7796 22.4985 22.9761C23.2335 23.3706 23.952 23.3294 24.6454 22.8571C24.8989 22.6844 25.0159 22.4526 24.9527 22.155C24.8914 21.8662 24.6982 21.6967 24.3679 21.6501ZM19.9414 20.3745C19.9427 20.3279 19.9458 20.2812 19.9449 20.2347C19.9373 19.8338 19.6728 19.4699 19.2945 19.3389C18.9231 19.2103 18.4955 19.3256 18.2405 19.6232C17.978 19.9295 17.9308 20.373 18.1233 20.7239C18.3199 21.0823 18.6915 21.2678 19.1132 21.2178C19.5238 21.1692 19.8139 20.8848 19.9414 20.3745ZM28.1703 19.2921C28.1236 19.2907 28.077 19.2874 28.0304 19.2882C27.6291 19.2956 27.2641 19.5594 27.1324 19.9364C27.0031 20.3066 27.1177 20.7381 27.4127 20.9919C27.7176 21.2542 28.1623 21.303 28.5136 21.1127C28.8709 20.9191 29.0581 20.5474 29.0115 20.1241C28.9668 19.7183 28.6759 19.4199 28.1703 19.2921Z" fill="#333333"/>
<path d="M21.2756 16.495C20.5226 16.6408 19.7887 16.6431 19.026 16.4641C19.0764 16.4029 19.1127 16.3605 19.1472 16.3168C19.395 16.0025 19.6544 15.6965 19.8866 15.3712C20.1039 15.0666 20.0043 14.6542 19.6936 14.462C19.3849 14.2711 19.0015 14.3614 18.8018 14.6753C17.9651 15.9913 16.7627 16.687 15.2135 16.8087C14.8631 16.8362 14.5156 16.9023 14.1201 16.957C14.2179 16.4145 14.2931 15.8821 14.4118 15.3595C14.7552 13.8491 15.3674 12.4631 16.375 11.2702C17.5532 9.87529 19.0551 9.01066 20.8164 8.57801C22.0009 8.28706 23.2041 8.20679 24.4173 8.30135C28.1557 8.59271 31.0967 10.7096 32.4128 14.3064C32.5953 14.8055 32.7262 15.3251 32.8543 15.8418C32.9468 16.2147 32.9949 16.5985 33.0651 16.9896C32.3577 16.9029 31.7263 16.6693 31.1134 16.371C29.6302 15.649 28.3721 14.6476 27.343 13.3581C26.9572 12.8746 26.5495 12.8654 26.1533 13.3384C25.2287 14.4423 24.1635 15.3753 22.8409 15.9687C22.3462 16.1906 21.8096 16.3192 21.2756 16.495Z" fill="#333333"/>
<path d="M22.545 34.7377C20.3033 34.2321 18.7754 32.1544 18.9909 29.9021C19.1882 29.9915 19.3838 30.0716 19.569 30.1712C19.607 30.1917 19.6184 30.2845 19.621 30.3449C19.6879 31.8973 20.3919 33.0642 21.7723 33.7777C24.147 35.0049 27.0732 33.4256 27.3693 30.777C27.3731 30.7439 27.3797 30.7109 27.3826 30.6777C27.3973 30.5129 27.3496 30.2855 27.4392 30.1972C27.5856 30.0531 27.8212 29.9996 28.0225 29.9063C28.3222 32.8278 25.6431 35.3949 22.545 34.7377Z" fill="#333333"/>
<path d="M24.5495 32.6035C22.9824 33.2652 21.2522 32.3241 20.96 30.6396C22.6608 31.0595 24.3565 31.0596 26.0744 30.6379C25.8896 31.5622 25.3903 32.2059 24.5495 32.6035Z" fill="#333333"/>
</svg>
