<svg width="247" height="153" viewBox="0 0 247 153" fill="none" xmlns="http://www.w3.org/2000/svg">
<g clip-path="url(#clip0_3020_4574)">
<rect width="247" height="153" rx="15" fill="white"/>
<path d="M233.984 39.747C233.984 33.2578 239.259 27.9976 245.766 27.9976C246.183 27.9976 246.594 28.0199 247 28.0621V0H144C146.089 5.36689 151.208 13.5609 163.456 16.7985C182.35 21.7926 211.488 17.2525 209.667 33.143C207.948 48.1418 210.698 87.1792 247 80.1647V51.4324C246.594 51.4747 246.183 51.4969 245.767 51.4969C239.259 51.4965 233.984 46.2363 233.984 39.747ZM228.374 20.1278C226.133 20.1278 224.316 18.7049 224.316 16.9497C224.316 15.1945 226.133 13.7716 228.374 13.7716C230.615 13.7716 232.431 15.1945 232.431 16.9497C232.431 18.7049 230.615 20.1278 228.374 20.1278Z" fill="#46B17B"/>
<path d="M30.8772 136.171C16.6609 131.496 32.4113 86.0339 17.3438 76.0388C12.0605 72.5341 5.8453 72.4551 0 73.8276V153H101C92.5991 112.667 44.4622 140.638 30.8772 136.171ZM8.96112 122.614C6.72593 122.614 4.48078 119.708 4.48078 116.7C4.48078 113.692 6.72637 111.721 8.96112 111.721C11.1963 111.721 13.8751 114.627 13.8751 117.635C13.8751 120.643 11.1959 122.614 8.96112 122.614Z" fill="#7BC9EF"/>
<path d="M63 113.753C63 88.7593 63 63.7653 63.0626 38.7381C63.2429 38.5609 63.3895 38.432 63.4739 38.2706C64.6328 36.0562 66.4168 34.9982 68.9552 35C99.9352 35.0224 130.915 35.0143 161.895 35.0163C162.483 35.0163 163.072 35.0422 163.721 35.1085C163.92 35.235 164.053 35.3232 164.197 35.3809C166.969 36.4876 168.141 38.2215 168.146 41.2268C168.148 42.5998 168.153 43.9728 168.074 45.3265C167.254 45.0956 166.518 44.8841 165.709 44.662C165.451 44.5976 165.266 44.5436 164.986 44.4598C163.696 44.4503 162.499 44.4707 161.214 44.4932C156.507 45.5447 153.407 48.2867 152.276 52.9057C151.171 57.418 152.542 61.2438 156.129 64.3371C157.182 64.9896 158.137 65.711 159.209 66.1368C162.197 67.3231 165.185 67.0165 168.128 65.9632C168.137 69.5406 168.14 73.0046 168.033 76.4833C162.863 76.5004 157.803 76.502 152.742 76.5074C152.351 76.5078 151.943 76.4703 151.571 76.5627C150.618 76.7996 150.075 77.4429 150.131 78.4357C150.183 79.3645 150.715 79.9611 151.665 80.0877C152.09 80.1442 152.526 80.1315 152.957 80.1326C158.017 80.1448 163.077 80.1537 168.139 80.2663C168.139 82.2626 168.138 84.156 168.028 86.0586C162.936 86.0714 157.954 86.0741 152.971 86.0806C152.54 86.0811 152.104 86.0691 151.679 86.1273C150.674 86.2652 150.132 86.8976 150.129 87.8831C150.127 88.8716 150.701 89.4898 151.671 89.6738C152.051 89.7459 152.453 89.7055 152.845 89.7066C157.944 89.7201 163.044 89.7319 168.144 89.8524C168.145 92.3799 168.145 94.7993 168.035 97.2344C166.583 97.2637 165.24 97.2774 163.788 97.2755C157.638 97.266 151.598 97.2699 145.558 97.2795C143.815 97.2822 143.34 97.7614 143.334 99.5207C143.327 101.56 143.325 103.6 143.335 105.64C143.344 107.249 143.846 107.781 145.431 107.784C151.587 107.798 157.744 107.793 164.01 107.81C165.462 107.843 166.805 107.861 168.147 107.988C168.146 109.197 168.157 110.296 168.142 111.396C168.111 113.712 167.157 115.464 165.022 116.509C164.689 116.672 164.422 116.969 164.047 117.22C163.866 117.224 163.762 117.213 163.635 117.181C163.546 117.13 163.488 117.14 163.326 117.201C162.027 117.249 160.838 117.286 159.54 117.309C135.229 117.297 111.028 117.3 86.7507 117.238C84.5151 117.194 82.3549 117.215 80.0859 117.222C78.0669 117.204 76.1563 117.183 74.2462 117.202C72.2234 117.222 70.201 117.28 68.0861 117.307C65.9529 116.896 64.4438 115.782 63.4469 113.956C63.3843 113.841 63.1529 113.819 63 113.753ZM143.837 64.0646C143.84 57.9558 143.835 51.847 143.856 45.7382C143.859 44.8103 143.621 44.2163 142.559 44.2267C139.701 44.2546 136.844 44.2606 133.763 44.2553C113.829 44.2534 93.8946 44.2516 73.9606 44.25C73.8037 44.2499 73.6467 44.2531 73.4898 44.2545C72.6357 44.2623 72.1976 44.6391 72.2012 45.5473C72.2261 51.7859 72.2312 58.0247 72.2154 64.4801C72.2261 65.6229 72.2369 66.7658 72.2218 68.1421C72.217 74.187 72.2089 80.232 72.2097 86.2769C72.2099 87.7278 72.3457 87.8518 73.8635 87.8519C93.9607 87.853 114.058 87.8519 134.383 87.8781C137.088 87.8813 139.794 87.8691 142.499 87.8962C143.43 87.9056 143.86 87.5545 143.855 86.5844C143.826 80.3504 143.824 74.1162 143.834 67.6806C143.826 66.5505 143.819 65.4205 143.837 64.0646ZM81.7732 105.508C82.9171 103.707 83.0889 101.858 82.0209 99.9622C81.0014 98.1529 79.3763 97.2831 77.3647 97.2859C74.8497 97.2894 72.7853 99.1537 72.2638 101.698C71.8227 103.85 73.2043 106.344 75.3885 107.338C77.5855 108.337 80.1087 107.661 81.7732 105.508ZM91.6916 102.556C91.8677 105.657 94.1646 107.907 97.045 107.801C99.84 107.698 102.094 105.403 102.134 102.621C102.174 99.7747 99.9383 97.4047 97.0979 97.282C94.2293 97.158 91.943 99.2985 91.6916 102.556ZM120.883 95.8282C120.131 96.4618 119.809 97.3036 120.39 98.0989C120.747 98.5887 121.555 99.097 122.081 99.0246C122.671 98.9434 123.402 98.312 123.64 97.7403C123.83 97.2848 123.524 96.4387 123.164 95.982C122.63 95.3053 121.804 95.3027 120.883 95.8282ZM132.304 95.4773C130.671 95.7925 130.475 97.7117 131.289 98.4939C131.914 99.0951 132.623 99.3066 133.426 98.8922C134.208 98.4881 134.575 97.811 134.411 96.9518C134.216 95.9223 133.505 95.4542 132.304 95.4773ZM110.255 95.8145C109.513 96.4376 109.133 97.2727 109.724 98.0673C110.101 98.5747 110.94 99.0815 111.502 99.0135C112.067 98.9451 112.748 98.2503 112.996 97.6674C113.175 97.2446 112.871 96.4465 112.532 96.0123C111.996 95.3269 111.184 95.324 110.255 95.8145ZM109.936 106.585C109.169 107.958 109.587 109.268 110.892 109.531C111.747 109.704 112.453 109.429 112.882 108.659C113.338 107.841 113.198 107.045 112.504 106.436C111.719 105.748 110.873 105.806 109.936 106.585ZM123.45 106.724C122.353 105.712 121.145 105.716 120.461 106.759C119.948 107.541 119.996 108.329 120.641 109.01C121.288 109.693 122.107 109.789 122.882 109.309C123.805 108.738 124.039 107.883 123.45 106.724ZM132.655 109.557C133.657 109.497 134.261 108.965 134.419 107.986C134.571 107.045 133.916 106.159 133.001 105.982C132.02 105.793 131.061 106.421 130.871 107.377C130.654 108.468 131.183 109.189 132.655 109.557Z" fill="#FFBC85"/>
<path d="M163.721 35.1082C168.713 35.0408 173.768 34.9448 178.819 35.0536C180.661 35.0933 182.064 36.2439 183.004 37.8658C183.173 38.1572 183.383 38.4245 183.638 38.6267C183.701 63.5444 183.701 88.5382 183.701 113.643C183.473 113.953 183.191 114.116 183.027 114.359C181.875 116.06 180.382 117.184 178.068 117.273C175.656 117.263 173.434 117.276 171.101 117.279C168.702 117.247 166.413 117.226 164.124 117.204C164.422 116.969 164.689 116.672 165.022 116.509C167.157 115.464 168.11 113.711 168.142 111.396C168.157 110.296 168.146 109.196 168.255 107.969C169.773 107.838 171.183 107.858 172.591 107.825C173.848 107.795 174.483 107.171 174.495 105.942C174.518 103.672 174.516 101.402 174.496 99.1319C174.484 97.8866 173.86 97.2843 172.604 97.2615C171.118 97.2345 169.631 97.2318 168.145 97.2185C168.145 94.7991 168.145 92.3797 168.253 89.8372C170.24 89.7115 172.119 89.7159 173.998 89.7044C175.437 89.6956 176.244 89.0367 176.251 87.8922C176.257 86.7379 175.487 86.1055 174.007 86.0877C172.051 86.0641 170.094 86.0611 168.137 86.0492C168.138 84.1558 168.139 82.2623 168.249 80.2551C170.236 80.1368 172.115 80.1417 173.993 80.1249C175.479 80.1116 176.247 79.4895 176.249 78.3363C176.252 77.1904 175.443 76.5219 174.011 76.5076C172.055 76.4882 170.099 76.4809 168.143 76.4685C168.14 73.0044 168.137 69.5403 168.182 65.9061C168.435 65.6204 168.641 65.5088 168.843 65.3889C173.104 62.8595 175.205 58.2535 174.274 53.3743C173.573 49.6942 171.379 47.12 168.156 45.3456C168.152 43.9726 168.147 42.5996 168.145 41.2266C168.141 38.2213 166.969 36.4874 164.197 35.3807C164.053 35.323 163.92 35.2347 163.721 35.1082Z" fill="#F4A96C"/>
<path d="M134.155 87.8512C114.058 87.8518 93.961 87.853 73.8638 87.8518C72.3461 87.8517 72.2102 87.7277 72.21 86.2768C72.2092 80.2319 72.2173 74.187 72.342 68.0308C74.6603 67.9233 76.8631 68.015 79.0559 67.9057C81.1784 67.8 82.5663 68.6745 83.478 70.5367C83.9597 71.5205 84.5068 72.4838 85.1256 73.3869C87.3172 76.5851 91.2577 76.5736 93.4622 73.3887C93.7073 73.0347 93.9202 72.6573 94.1322 72.2818C96.1764 68.661 98.2072 65.0326 100.263 61.4186C101.292 59.6113 102.23 59.6275 103.297 61.4335C103.457 61.7036 103.606 61.9798 103.76 62.2533C105.685 65.6714 107.582 69.1055 109.553 72.4962C110.037 73.3277 110.658 74.1488 111.399 74.7476C113.716 76.6185 116.853 75.9432 118.553 73.1666C120.15 70.5587 121.587 67.8535 123.096 65.1917C123.889 63.7926 124.643 62.3693 125.49 61.0038C126.258 59.7674 127.155 59.76 127.957 60.9538C128.459 61.7006 128.897 62.4967 129.297 63.3035C130.394 65.5119 131.947 67.1745 134.432 67.8894C134.431 74.0447 134.438 80.0892 134.418 86.1337C134.416 86.7065 134.247 87.2787 134.155 87.8512Z" fill="#B1E4F9"/>
<path d="M72.2426 64.2634C72.2311 58.0247 72.226 51.786 72.2012 45.5473C72.1976 44.6391 72.6356 44.2623 73.4897 44.2545C73.6467 44.2531 73.8036 44.25 73.9606 44.25C93.8946 44.2516 113.829 44.2535 133.924 44.3354C134.2 44.8572 134.413 45.2986 134.415 45.7406C134.433 51.7662 134.423 57.7919 134.338 63.8025C133.821 63.298 133.312 62.8552 132.964 62.3095C132.248 61.1857 131.683 59.9638 130.941 58.8589C128.749 55.5927 124.741 55.5987 122.53 58.8392C122.243 59.2597 121.994 59.7077 121.744 60.1519C119.777 63.6377 117.839 67.1406 115.824 70.5986C115.48 71.1891 114.768 72.0178 114.302 71.9712C113.706 71.9116 113.021 71.1734 112.662 70.5595C110.602 67.0374 108.63 63.4635 106.619 59.9124C106.33 59.4015 106.03 58.8871 105.667 58.4291C103.508 55.711 99.9196 55.748 97.8124 58.5106C97.4336 59.0072 97.1224 59.5592 96.8137 60.1047C94.823 63.6223 92.8511 67.1505 90.8536 70.6641C89.7425 72.6184 88.8405 72.6006 87.7014 70.6296C87.2105 69.7803 86.7444 68.9167 86.2517 68.0685C84.7847 65.5431 82.5881 64.2652 79.6651 64.2586C77.1909 64.253 74.7168 64.2613 72.2426 64.2634ZM91.7041 54.9083C91.8625 54.1918 92.3361 53.3293 92.0909 52.7997C91.8449 52.2685 90.8929 51.7983 90.2313 51.7717C87.452 51.6598 84.6655 51.7168 81.8816 51.7269C80.425 51.7322 79.6527 52.3903 79.6755 53.564C79.6974 54.6913 80.4445 55.3186 81.8419 55.3252C84.6258 55.3384 87.4098 55.3425 90.1934 55.3154C90.645 55.311 91.0948 55.1266 91.7041 54.9083Z" fill="#B1E3F8"/>
<path d="M72.2289 64.3719C74.7167 64.2614 77.1909 64.2532 79.665 64.2587C82.5881 64.2653 84.7846 65.5433 86.2516 68.0687C86.7443 68.9169 87.2105 69.7805 87.7013 70.6298C88.8404 72.6007 89.7425 72.6186 90.8535 70.6642C92.8511 67.1506 94.823 63.6224 96.8137 60.1049C97.1224 59.5594 97.4336 59.0074 97.8123 58.5108C99.9195 55.7482 103.508 55.7112 105.666 58.4292C106.03 58.8873 106.33 59.4017 106.619 59.9126C108.63 63.4636 110.602 67.0375 112.662 70.5597C113.021 71.1736 113.706 71.9117 114.302 71.9714C114.768 72.018 115.48 71.1892 115.824 70.5987C117.839 67.1408 119.777 63.6378 121.743 60.152C121.994 59.7079 122.242 59.2599 122.529 58.8393C124.741 55.5988 128.749 55.5929 130.941 58.859C131.683 59.964 132.248 61.1858 132.964 62.3096C133.312 62.8553 133.821 63.2982 134.405 63.863C135.246 64.0429 135.937 64.2236 136.632 64.2378C139.024 64.2869 141.418 64.2777 143.811 64.2907C143.819 65.4207 143.826 66.5507 143.717 67.7979C140.543 67.8696 137.488 67.8242 134.432 67.7788C131.946 67.1748 130.393 65.5122 129.297 63.3038C128.896 62.497 128.458 61.7009 127.957 60.9541C127.155 59.7603 126.257 59.7677 125.49 61.0041C124.643 62.3695 123.889 63.7929 123.096 65.192C121.587 67.8538 120.149 70.5589 118.553 73.1668C116.853 75.9434 113.715 76.6187 111.399 74.7479C110.658 74.1491 110.036 73.328 109.553 72.4965C107.581 69.1058 105.684 65.6716 103.76 62.2535C103.606 61.9801 103.456 61.7039 103.297 61.4337C102.229 59.6277 101.291 59.6116 100.263 61.4188C98.2067 65.0328 96.176 68.6613 94.1318 72.2821C93.9198 72.6575 93.7068 73.0349 93.4618 73.3889C91.2573 76.5739 87.3167 76.5853 85.1252 73.3871C84.5063 72.484 83.9593 71.5208 83.4776 70.537C82.5658 68.6748 81.1779 67.8002 79.0554 67.906C76.8626 68.0153 74.6598 67.9236 72.3545 67.9143C72.2368 66.766 72.226 65.6231 72.2289 64.3719Z" fill="#39607F"/>
<path d="M165.081 44.4897C165.266 44.5437 165.452 44.5977 165.748 44.7318C165.986 44.9604 166.109 45.1138 166.242 45.2567C170.765 50.0949 170.235 57.2433 166.031 61.2649C163.252 63.9235 159.893 64.9015 156.084 64.2712C152.542 61.2439 151.172 57.4181 152.277 52.9058C153.408 48.2868 156.507 45.5448 161.216 44.5999C161.309 47.7227 161.296 50.7411 161.32 53.7592C161.329 54.9284 162.239 55.9561 163.182 55.9635C164.123 55.9709 165.016 54.9424 165.07 53.7797C165.083 53.5059 165.074 53.231 165.074 52.9566C165.077 50.1343 165.079 47.312 165.081 44.4897Z" fill="#F9F7F8"/>
<path d="M163.9 107.795C157.744 107.793 151.587 107.798 145.431 107.785C143.847 107.781 143.344 107.249 143.335 105.64C143.325 103.6 143.327 101.56 143.334 99.5209C143.34 97.7616 143.815 97.2824 145.558 97.2796C151.598 97.27 157.638 97.2662 163.807 97.3592C164.153 98.1216 164.568 98.7891 164.555 99.4476C164.496 102.239 165.085 105.091 163.9 107.795Z" fill="#3A5F7D"/>
<path d="M143.823 64.1775C141.418 64.2775 139.024 64.2867 136.632 64.2377C135.937 64.2234 135.246 64.0427 134.486 63.8779C134.422 57.7919 134.433 51.7662 134.414 45.7405C134.413 45.2985 134.2 44.8572 134.035 44.3454C136.843 44.2606 139.701 44.2546 142.559 44.2267C143.621 44.2163 143.859 44.8103 143.855 45.7382C143.834 51.847 143.84 57.9558 143.823 64.1775Z" fill="#76CEF8"/>
<path d="M134.431 67.8895C137.488 67.8241 140.543 67.8695 143.706 67.8985C143.823 74.1163 143.826 80.3504 143.855 86.5845C143.86 87.5546 143.429 87.9056 142.499 87.8963C139.794 87.8691 137.088 87.8814 134.269 87.8648C134.246 87.2789 134.416 86.7066 134.418 86.1338C134.437 80.0894 134.43 74.0448 134.431 67.8895Z" fill="#75CEF8"/>
<path d="M156.129 64.3371C159.893 64.9014 163.251 63.9234 166.03 61.2648C170.235 57.2432 170.764 50.0948 166.242 45.2565C166.108 45.1136 165.986 44.9603 165.82 44.7422C166.518 44.8841 167.254 45.0956 168.074 45.3264C171.379 47.1202 173.573 49.6944 174.275 53.3745C175.205 58.2537 173.104 62.8597 168.844 65.3891C168.642 65.509 168.435 65.6206 168.176 65.793C165.185 67.0164 162.197 67.323 159.209 66.1367C158.137 65.711 157.182 64.9895 156.129 64.3371Z" fill="#E5E4EB"/>
<path d="M164.01 107.81C165.085 105.091 164.496 102.238 164.554 99.4471C164.568 98.7886 164.153 98.1211 163.916 97.3742C165.24 97.2771 166.583 97.2634 168.035 97.2341C169.632 97.2317 171.118 97.2344 172.605 97.2614C173.861 97.2843 174.485 97.8865 174.496 99.1318C174.517 101.402 174.518 103.672 174.495 105.942C174.483 107.171 173.848 107.795 172.591 107.825C171.183 107.858 169.773 107.838 168.256 107.86C166.805 107.861 165.462 107.843 164.01 107.81Z" fill="#2C4D66"/>
<path d="M77.3713 126.905C76.0395 126.922 74.7006 126.857 73.3773 126.972C70.5387 127.218 68.7976 124.597 68.6477 122.259C68.5462 120.675 68.3452 119.097 68.1836 117.418C70.2011 117.28 72.2235 117.222 74.2463 117.202C76.1564 117.183 78.067 117.204 80.0897 117.336C80.2046 119.149 80.1962 120.832 80.2132 122.515C80.2253 123.718 79.8457 124.737 78.9238 125.536C78.4024 125.988 77.8885 126.448 77.3713 126.905Z" fill="#375E7D"/>
<path d="M164.047 117.22C166.413 117.226 168.702 117.248 171.1 117.39C171.209 119.113 171.175 120.715 171.216 122.316C171.262 124.085 170.5 125.381 169.062 126.34C168.815 126.505 168.599 126.716 168.369 126.905C166.837 126.922 165.305 126.973 163.775 126.946C161.574 126.908 159.719 124.841 159.663 122.371C159.626 120.762 159.654 119.151 159.651 117.432C160.838 117.287 162.027 117.249 163.381 117.22C163.546 117.228 163.658 117.203 163.658 117.203C163.762 117.214 163.866 117.224 164.047 117.22Z" fill="#375E7D"/>
<path d="M168.028 86.0586C170.094 86.0613 172.051 86.0644 174.007 86.0879C175.487 86.1057 176.257 86.7382 176.251 87.8925C176.244 89.0369 175.437 89.6959 173.998 89.7047C172.119 89.7161 170.24 89.7118 168.252 89.7292C163.044 89.732 157.944 89.7202 152.845 89.7066C152.453 89.7055 152.05 89.7459 151.671 89.6738C150.7 89.4899 150.127 88.8716 150.129 87.8831C150.131 86.8976 150.673 86.2652 151.679 86.1273C152.104 86.0691 152.54 86.0811 152.971 86.0806C157.953 86.0741 162.936 86.0714 168.028 86.0586Z" fill="#385E7D"/>
<path d="M168.033 76.4833C170.099 76.4812 172.056 76.4884 174.012 76.5079C175.443 76.5221 176.252 77.1906 176.25 78.3365C176.247 79.4898 175.479 80.1118 173.993 80.1251C172.115 80.1419 170.236 80.1371 168.248 80.1525C163.077 80.1537 158.017 80.1448 152.957 80.1326C152.526 80.1315 152.09 80.1442 151.665 80.0876C150.715 79.9611 150.183 79.3645 150.131 78.4357C150.075 77.4429 150.618 76.7995 151.571 76.5627C151.943 76.4702 152.351 76.5078 152.742 76.5073C157.803 76.5019 162.863 76.5004 168.033 76.4833Z" fill="#385E7D"/>
<path d="M81.7249 105.581C80.1085 107.661 77.5853 108.337 75.3883 107.338C73.2041 106.344 71.8225 103.851 72.2636 101.698C72.7851 99.1539 74.8495 97.2897 77.3645 97.2861C79.3761 97.2833 81.0012 98.1531 82.0206 99.9624C83.0887 101.858 82.9169 103.707 81.7249 105.581Z" fill="#F37D7C"/>
<path d="M91.6924 102.449C91.9431 99.2985 94.2294 97.1581 97.098 97.282C99.9384 97.4047 102.174 99.7747 102.134 102.621C102.094 105.403 99.8402 107.698 97.0452 107.801C94.1647 107.907 91.8678 105.657 91.6924 102.449Z" fill="#51C9AF"/>
<path d="M77.4814 126.922C77.8888 126.448 78.4027 125.988 78.9241 125.536C79.8459 124.737 80.2256 123.717 80.2134 122.515C80.1964 120.832 80.2048 119.148 80.1987 117.351C82.3553 117.215 84.5155 117.194 86.7511 117.238C86.9021 118.86 86.9996 120.415 87.0487 121.972C87.1347 124.698 85.1936 127.268 82.0585 126.977C80.581 126.841 79.0811 126.945 77.4814 126.922Z" fill="#2D4E67"/>
<path d="M164.987 44.46C165.079 47.3122 165.077 50.1345 165.074 52.9568C165.074 53.2312 165.083 53.506 165.07 53.7798C165.016 54.9426 164.123 55.971 163.182 55.9637C162.239 55.9563 161.329 54.9285 161.32 53.7594C161.296 50.7413 161.309 47.7229 161.305 44.598C162.5 44.471 163.696 44.4505 164.987 44.46Z" fill="#DEDBEB"/>
<path d="M120.956 95.7791C121.804 95.3028 122.63 95.3055 123.163 95.9821C123.524 96.4389 123.83 97.2849 123.64 97.7404C123.402 98.3122 122.671 98.9436 122.081 99.0247C121.554 99.0971 120.747 98.5889 120.39 98.0991C119.809 97.3037 120.131 96.4619 120.956 95.7791Z" fill="#3D617D"/>
<path d="M132.39 95.459C133.505 95.4542 134.216 95.9223 134.411 96.9518C134.575 97.811 134.208 98.4881 133.426 98.8922C132.623 99.3066 131.915 99.095 131.289 98.4939C130.475 97.7117 130.671 95.7925 132.39 95.459Z" fill="#3E617D"/>
<path d="M110.329 95.7646C111.184 95.324 111.996 95.3269 112.532 96.0124C112.872 96.4466 113.176 97.2446 112.996 97.6675C112.749 98.2504 112.068 98.9452 111.502 99.0136C110.94 99.0815 110.102 98.5747 109.725 98.0673C109.134 97.2727 109.513 96.4377 110.329 95.7646Z" fill="#3E617D"/>
<path d="M110.001 106.521C110.874 105.806 111.719 105.748 112.505 106.437C113.199 107.045 113.338 107.841 112.882 108.659C112.453 109.429 111.748 109.704 110.892 109.531C109.587 109.268 109.169 107.959 110.001 106.521Z" fill="#3F627D"/>
<path d="M123.499 106.8C124.038 107.883 123.804 108.737 122.881 109.309C122.107 109.789 121.288 109.693 120.641 109.01C119.996 108.329 119.948 107.541 120.46 106.759C121.145 105.716 122.352 105.712 123.499 106.8Z" fill="#3E617D"/>
<path d="M132.559 109.551C131.183 109.189 130.654 108.468 130.871 107.377C131.061 106.421 132.02 105.793 133.001 105.982C133.917 106.159 134.572 107.045 134.42 107.986C134.262 108.964 133.657 109.497 132.559 109.551Z" fill="#3C607D"/>
<path d="M163.635 117.181C163.659 117.203 163.546 117.228 163.491 117.21C163.488 117.14 163.547 117.13 163.635 117.181Z" fill="#F4A96C"/>
<path d="M168.479 126.922C168.599 126.715 168.815 126.505 169.062 126.34C170.5 125.381 171.262 124.085 171.216 122.316C171.175 120.715 171.209 119.112 171.211 117.4C173.434 117.276 175.656 117.263 177.971 117.286C178.059 118.926 177.99 120.534 178.066 122.134C178.17 124.357 176.312 127.227 173.281 126.977C171.727 126.848 170.153 126.945 168.479 126.922Z" fill="#2D4E67"/>
<path d="M91.6246 54.967C91.0946 55.1268 90.6448 55.3111 90.1932 55.3155C87.4096 55.3427 84.6256 55.3385 81.8418 55.3254C80.4444 55.3188 79.6972 54.6914 79.6753 53.5642C79.6525 52.3905 80.4248 51.7323 81.8815 51.7271C84.6653 51.717 87.4518 51.66 90.2312 51.7718C90.8927 51.7985 91.8447 52.2686 92.0907 52.7999C92.3359 53.3295 91.8623 54.1919 91.6246 54.967Z" fill="#385F7E"/>
</g>
<defs>
<clipPath id="clip0_3020_4574">
<rect width="247" height="153" rx="15" fill="white"/>
</clipPath>
</defs>
</svg>
